<svg width="37" height="36" viewBox="0 0 37 36" fill="none" xmlns="http://www.w3.org/2000/svg">
<g clip-path="url(#clip0_84_2515)">
<path d="M35.375 22.4998C34.754 22.4998 34.25 23.0038 34.25 23.6248V31.4998H2.75V17.9998H15.125C15.746 17.9998 16.25 17.4958 16.25 16.8748C16.25 16.2538 15.746 15.7498 15.125 15.7498H2.75V11.2498H15.125C15.746 11.2498 16.25 10.7458 16.25 10.1248C16.25 9.50376 15.746 8.99976 15.125 8.99976H2.75C1.508 8.99976 0.5 10.0078 0.5 11.2498V31.4998C0.5 32.7418 1.508 33.7498 2.75 33.7498H34.25C35.492 33.7498 36.5 32.7418 36.5 31.4998V23.6248C36.5 23.0038 35.996 22.4998 35.375 22.4998Z" fill="black"/>
<path d="M10.625 22.4998H6.125C5.504 22.4998 5 23.0038 5 23.6248C5 24.2458 5.504 24.7498 6.125 24.7498H10.625C11.246 24.7498 11.75 24.2458 11.75 23.6248C11.75 23.0038 11.246 22.4998 10.625 22.4998Z" fill="black"/>
<path d="M35.8182 5.71468L27.9432 2.33968C27.6575 2.22043 27.3403 2.22043 27.0545 2.33968L19.1795 5.71468C18.7678 5.89243 18.5 6.29968 18.5 6.74968V11.2497C18.5 17.4394 20.7883 21.0574 26.9398 24.6012C27.113 24.7002 27.3065 24.7497 27.5 24.7497C27.6935 24.7497 27.887 24.7002 28.0602 24.6012C34.2117 21.0664 36.5 17.4484 36.5 11.2497V6.74968C36.5 6.29968 36.2322 5.89243 35.8182 5.71468ZM34.25 11.2497C34.25 16.4449 32.531 19.3047 27.5 22.3197C22.469 19.2979 20.75 16.4382 20.75 11.2497V7.49218L27.5 4.59868L34.25 7.49218V11.2497Z" fill="black"/>
<path d="M31.5792 9.24505C31.0954 8.86255 30.3889 8.9368 29.9974 9.42055L26.4604 13.844L25.0609 11.7515C24.7122 11.234 24.0124 11.0968 23.5017 11.4388C22.9864 11.783 22.8447 12.4828 23.1889 12.998L25.4389 16.373C25.6392 16.6723 25.9677 16.8568 26.3277 16.8748C26.3434 16.8748 26.3614 16.8748 26.3749 16.8748C26.7147 16.8748 27.0387 16.7218 27.2547 16.4518L31.7547 10.8268C32.1417 10.3408 32.0652 9.6343 31.5792 9.24505Z" fill="black"/>
</g>
<defs>
<clipPath id="clip0_84_2515">
<rect width="36" height="36" fill="white" transform="translate(0.5)"/>
</clipPath>
</defs>
</svg>
