<svg width="28" height="28" viewBox="0 0 28 28" fill="none" xmlns="http://www.w3.org/2000/svg">
<path d="M25.8735 9.40916C25.9608 8.94148 26.0049 8.46677 26.0055 7.99101C26.0002 3.57237 22.4139 -0.00532654 17.9952 5.95325e-06C14.6316 0.00404927 11.6297 2.11156 10.4832 5.27384C8.43057 4.45674 6.10414 5.45831 5.28698 7.51097C5.21625 7.68864 5.15835 7.87112 5.11376 8.05705C1.83621 8.54723 -0.423362 11.6016 0.0668167 14.8791C0.506425 17.8186 3.03168 19.9933 6.00382 19.9921H11.0042C11.5566 19.9921 12.0043 19.5444 12.0043 18.992C12.0043 18.4396 11.5566 17.9919 11.0042 17.9919H6.00382C3.79446 17.9919 2.00345 16.2009 2.00345 13.9915C2.00345 11.7822 3.79446 9.99116 6.00382 9.99116C6.55617 9.99116 7.00392 9.54341 7.00392 8.99106C7.00574 7.88641 7.90271 6.99237 9.00736 6.99418C9.52977 6.99506 10.0311 7.20028 10.4042 7.56593C10.7976 7.95362 11.4308 7.94899 11.8185 7.55562C11.964 7.40789 12.0601 7.21862 12.0933 7.01387C12.6361 3.74799 15.7237 1.54057 18.9896 2.08343C22.2555 2.62629 24.4629 5.71386 23.9201 8.97975C23.8877 9.17447 23.8457 9.3675 23.7943 9.55806C23.6793 9.97552 23.846 10.4195 24.2074 10.6581C26.0483 11.8796 26.5504 14.3623 25.3289 16.2032C24.5895 17.3175 23.3424 17.9886 22.0052 17.9918H19.0049C18.4525 17.9918 18.0048 18.4395 18.0048 18.9919C18.0048 19.5442 18.4525 19.992 19.0049 19.992H22.0052C25.3192 19.9889 28.0032 17.2998 28 13.9858C27.9984 12.2219 27.2206 10.548 25.8735 9.40916Z" fill="#FAFAFA"/>
<path d="M20.6894 21.2851C20.3018 20.9108 19.6874 20.9108 19.2999 21.2851L16.0046 24.5784V9.99107C16.0046 9.43872 15.5569 8.99097 15.0045 8.99097C14.4522 8.99097 14.0044 9.43872 14.0044 9.99107V24.5783L10.7111 21.285C10.3138 20.9013 9.68069 20.9123 9.29698 21.3096C8.92265 21.6971 8.92265 22.3115 9.29698 22.6991L14.2974 27.6995C14.6874 28.0906 15.3207 28.0914 15.7117 27.7013C15.7123 27.7007 15.7129 27.7001 15.7136 27.6995L20.714 22.6991C21.0977 22.3019 21.0867 21.6688 20.6894 21.2851Z" fill="#FAFAFA"/>
</svg>
