<svg width="37" height="36" viewBox="0 0 37 36" fill="none" xmlns="http://www.w3.org/2000/svg">
<path d="M23.6068 22.2891C22.1343 23.3958 20.342 23.9942 18.5 23.9942C16.6579 23.9942 14.8657 23.3958 13.3932 22.2891C13.0727 22.0658 12.6778 21.9763 12.2924 22.0395C11.9069 22.1028 11.5613 22.3139 11.329 22.6279C11.0968 22.9419 10.9961 23.3342 11.0485 23.7213C11.1008 24.1083 11.302 24.4598 11.6094 24.7008C13.5988 26.1906 16.0174 26.9958 18.5028 26.9958C20.9882 26.9958 23.4068 26.1906 25.3962 24.7008C25.7161 24.4635 25.9285 24.1089 25.9869 23.715C26.0452 23.321 25.9447 22.92 25.7074 22.6002C25.5899 22.4419 25.4423 22.3082 25.2732 22.2069C25.104 22.1055 24.9166 22.0385 24.7215 22.0096C24.3276 21.9513 23.9266 22.0518 23.6068 22.2891Z" fill="black"/>
<path d="M33.703 11.577C32.0273 7.62139 28.8786 4.47275 24.923 2.79703C22.8899 1.94083 20.7061 1.49976 18.5 1.49976C16.2939 1.49976 14.1101 1.94083 12.077 2.79703C8.12139 4.47275 4.97275 7.62139 3.29703 11.577C2.44083 13.6101 1.99976 15.7939 1.99976 18C1.99976 20.2061 2.44083 22.3899 3.29703 24.423C4.97275 28.3786 8.12139 31.5273 12.077 33.203C14.1101 34.0592 16.2939 34.5002 18.5 34.5002C20.7061 34.5002 22.8899 34.0592 24.923 33.203C28.8786 31.5273 32.0273 28.3786 33.703 24.423C34.5592 22.3899 35.0002 20.2061 35.0002 18C35.0002 15.7939 34.5592 13.6101 33.703 11.577ZM30.9397 23.2545C29.6366 26.3518 27.229 28.8544 24.1843 30.2764C21.1397 31.6983 17.6753 31.9382 14.4638 30.9494C11.2523 29.9606 8.52273 27.8137 6.80518 24.9255C5.08762 22.0373 4.50459 18.6139 5.16928 15.32C5.83397 12.026 7.69895 9.09663 10.4021 7.1005C13.1053 5.10438 16.4538 4.18395 19.7975 4.51794C23.1412 4.85193 26.2414 6.4165 28.4964 8.90789C30.7513 11.3993 32 14.6397 32 18C32.0025 19.8049 31.6419 21.5918 30.9397 23.2545Z" fill="black"/>
<path d="M14 17.2498H14.0077C14.6045 17.2498 15.1768 17.0127 15.5987 16.5907C16.0207 16.1688 16.2577 15.5965 16.2577 14.9998C16.2577 14.403 16.0207 13.8307 15.5987 13.4088C15.1768 12.9868 14.6045 12.7498 14.0077 12.7498H14C13.4033 12.7498 12.831 12.9868 12.409 13.4088C11.9871 13.8307 11.75 14.403 11.75 14.9998C11.75 15.5965 11.9871 16.1688 12.409 16.5907C12.831 17.0127 13.4033 17.2498 14 17.2498Z" fill="black"/>
<path d="M22.9922 17.2498C24.2348 17.2498 25.2422 16.2424 25.2422 14.9998C25.2422 13.7571 24.2348 12.7498 22.9922 12.7498C21.7495 12.7498 20.7422 13.7571 20.7422 14.9998C20.7422 16.2424 21.7495 17.2498 22.9922 17.2498Z" fill="black"/>
</svg>
