<svg width="37" height="36" viewBox="0 0 37 36" fill="none" xmlns="http://www.w3.org/2000/svg">
<g clip-path="url(#clip0_84_2548)">
<path d="M12.106 18.2431C11.5146 18.2431 11.0513 17.7998 11.0513 17.2339H8.94189C8.94189 18.6065 9.81792 19.7531 11.0468 20.1766V22.437H13.1562V20.1725C14.3861 19.7384 15.27 18.565 15.27 17.1884C15.27 15.4437 13.8506 14.0243 12.106 14.0243C11.5244 14.0243 11.0513 13.5512 11.0513 12.9696C11.0513 12.3881 11.5244 11.915 12.106 11.915C12.6777 11.915 13.1606 12.4188 13.1606 13.0151H15.27C15.27 11.6187 14.3861 10.4284 13.1562 9.98804V7.7417H11.0468V9.98846C9.82157 10.4251 8.94189 11.5963 8.94189 12.9696C8.94189 14.7142 10.3613 16.1336 12.106 16.1336C12.6875 16.1336 13.1606 16.6068 13.1606 17.1883C13.1606 17.7699 12.6875 18.2431 12.106 18.2431Z" fill="black"/>
<path d="M32.211 13.9997H23.7031V4.07056L20.5391 0.906494L18.4297 3.01587L16.3203 0.906494L14.2109 3.01587L12.1016 0.906494L9.99219 3.01587L7.88281 0.906494L5.77344 3.01587L3.66406 0.906494L0.5 4.07056V29.8199C0.5 32.7277 2.86566 35.0933 5.77344 35.0933H25.8125C28.1254 35.0933 30.1016 33.2242 30.1016 30.8746V28.7652H36.5V18.2183C36.5 15.8684 34.5234 13.9997 32.211 13.9997ZM5.77344 32.984C4.02877 32.984 2.60938 31.5646 2.60938 29.82V4.94433L3.66406 3.88964L5.77344 5.99902L7.88281 3.88964L9.99219 5.99902L12.1016 3.88964L14.2109 5.99902L16.3203 3.88964L18.4297 5.99902L20.5391 3.88964L21.5938 4.94433V30.8747C21.5938 31.6428 21.8011 32.363 22.1613 32.984H5.77344ZM27.9922 18.2184V30.8747C27.9922 32.0181 26.994 32.984 25.8125 32.984C24.6494 32.984 23.7031 32.0378 23.7031 30.8747V16.1083H28.5597C28.1995 16.73 27.9922 17.4503 27.9922 18.2184ZM34.3906 26.6559H30.1016V18.2184C30.1016 17.0553 31.0478 16.109 32.2109 16.109C33.3925 16.109 34.3906 17.075 34.3906 18.2184V26.6559Z" fill="black"/>
<path d="M8.9375 28.7654H19.4844V30.8748H8.9375V28.7654Z" fill="black"/>
<path d="M4.71875 28.7654H6.82812V30.8748H4.71875V28.7654Z" fill="black"/>
<path d="M8.9375 24.5466H19.4844V26.656H8.9375V24.5466Z" fill="black"/>
<path d="M4.71875 24.5466H6.82812V26.656H4.71875V24.5466Z" fill="black"/>
</g>
<defs>
<clipPath id="clip0_84_2548">
<rect width="36" height="36" fill="white" transform="translate(0.5)"/>
</clipPath>
</defs>
</svg>
