<svg width="159" height="147" viewBox="0 0 159 147" fill="none" xmlns="http://www.w3.org/2000/svg">
<path d="M140.261 125.72C137.03 128.867 133.972 130.897 131.556 132.5C103.159 151.348 69.558 145.854 62.4167 144.512C51.8714 142.531 31.4874 138.701 16.7502 122.669C-5.54596 98.4146 -2.07411 60.2019 15.2203 34.9772C18.3837 30.3631 35.0938 4.75414 69.057 0.647281C89.6112 -1.83814 113.571 3.17465 130.922 16.6218C167.343 44.8485 164.75 101.871 140.261 125.72Z" fill="url(#paint0_linear_84_1531)"/>
<path d="M80.1873 140.632C80.1873 140.632 111.196 67.2788 157.262 59.2657C158.079 59.1235 158.824 59.7354 158.784 60.5131C158.318 69.5612 152.417 117.447 80.1873 140.632Z" fill="#5D80D9"/>
<path opacity="0.62" d="M148.986 71.1637C146.634 74.3071 144.169 77.3677 141.67 80.4052C141.046 81.1651 140.408 81.9149 139.778 82.6704C139.143 83.422 138.521 84.1838 137.875 84.927L135.944 87.1624C135.297 87.9053 134.664 88.6586 134.001 89.3894C132.685 90.8577 131.381 92.3361 130.055 93.796L126.033 98.1434C123.305 101.002 120.579 103.864 117.767 106.652L115.675 108.757C114.985 109.467 114.255 110.139 113.547 110.831L109.275 114.967L104.894 119.002C104.162 119.673 103.437 120.351 102.691 121.008L100.431 122.958C98.9215 124.254 97.4274 125.568 95.8923 126.838L91.2249 130.583L90.0528 131.513C89.6588 131.819 89.2759 132.138 88.8729 132.434L86.4618 134.219C85.6604 134.816 84.8477 135.4 84.0413 135.991C83.234 136.581 82.4258 137.169 81.6128 137.752C81.5506 137.796 81.4616 137.785 81.4139 137.727C81.3681 137.671 81.3774 137.591 81.4339 137.546L81.4379 137.542C82.2146 136.918 82.996 136.3 83.7786 135.683C84.5617 135.068 85.3386 134.445 86.1269 133.836L88.4848 132C89.2621 131.378 90.0155 130.731 90.7867 130.102L95.4037 126.324L99.9258 122.446L102.189 120.508C102.567 120.186 102.927 119.846 103.297 119.517L104.407 118.526L108.843 114.56C111.729 111.847 114.662 109.176 117.449 106.371C118.856 104.981 120.28 103.606 121.639 102.175C123.01 100.753 124.393 99.3423 125.754 97.9123L129.789 93.5835C131.121 92.1294 132.429 90.6571 133.75 89.1947C134.415 88.467 135.051 87.7165 135.7 86.9767L137.639 84.75C138.288 84.0097 138.912 83.2507 139.55 82.502C140.183 81.7496 140.823 81.0025 141.45 80.2455C143.946 77.2118 146.408 74.1482 148.752 71.0134L148.753 71.0111C148.798 70.9511 148.887 70.9364 148.951 70.9786C149.015 71.0207 149.031 71.1036 148.986 71.1636L148.986 71.1637Z" fill="white"/>
<g opacity="0.79">
<path d="M72.6729 98.5632C72.6729 98.5632 87.7474 33.7887 133.254 0.210891C133.848 -0.226913 134.726 0.0499768 134.907 0.736718C137.77 11.5831 152.673 80.7649 72.6729 98.5632Z" fill="#A4B8EA"/>
<path opacity="0.62" d="M128.423 18.8971C127.9 20.7763 127.292 22.6275 126.65 24.4704C126.008 26.3123 125.332 28.1445 124.615 29.9625C123.175 33.5966 121.608 37.1868 119.919 40.7266C119.5 41.6129 119.058 42.4895 118.629 43.3717C118.197 44.2526 117.73 45.1181 117.282 45.9923C116.838 46.8679 116.357 47.7268 115.891 48.5923L115.185 49.8877L114.455 51.1712C112.51 54.5944 110.461 57.9684 108.252 61.2508C106.037 64.5278 103.735 67.7568 101.251 70.8629C100.943 71.2531 100.642 71.6472 100.33 72.0341L99.3767 73.1833L98.4238 74.3324C98.1044 74.7141 97.7945 75.1029 97.4596 75.4731L95.4808 77.7168L94.984 78.2759L94.4693 78.8209L93.44 79.9108C87.9782 85.7461 81.8648 91.0432 75.2548 95.7066C75.2003 95.7451 75.1229 95.7348 75.0818 95.6839C75.0417 95.6341 75.0511 95.5637 75.1021 95.5246L75.1049 95.5225L77.5049 93.6897L78.7065 92.7763L79.8695 91.8198L82.1927 89.9053L84.439 87.912C84.8106 87.5773 85.1936 87.2537 85.5599 86.9138L86.6476 85.8838C87.3691 85.1937 88.1058 84.5177 88.8147 83.8166C90.2083 82.3929 91.6347 80.9976 92.9614 79.518L93.973 78.4227L94.4787 77.8751L94.9665 77.3132L96.9233 75.0702C97.2551 74.7007 97.562 74.3126 97.8785 73.9314L98.8224 72.7843L99.7662 71.6373C100.076 71.2511 100.374 70.8574 100.679 70.4681C103.139 67.368 105.418 64.145 107.611 60.875C109.815 57.6104 111.875 54.2607 113.825 50.8564L114.558 49.5804L115.266 48.2921C115.734 47.4316 116.217 46.5775 116.663 45.7065C117.579 43.9753 118.463 42.2297 119.333 40.4776C121.06 36.968 122.665 33.4049 124.147 29.7971C124.899 27.9969 125.609 26.1816 126.287 24.3557C126.627 23.4432 126.954 22.5265 127.271 21.6067C127.592 20.6887 127.899 19.7646 128.183 18.8383L128.184 18.836C128.203 18.7746 128.271 18.7391 128.337 18.7568C128.402 18.7742 128.439 18.8367 128.423 18.8971Z" fill="white"/>
</g>
<g opacity="0.76">
<path d="M49.0239 95.0868C49.0239 95.0868 43.1452 37.6262 7.5107 4.18949C7.04608 3.75354 6.25629 3.90787 6.02375 4.48404C2.35099 13.5842 -18.1749 71.9519 49.0239 95.0868Z" fill="#A4B8EA"/>
<path opacity="0.62" d="M9.85338 20.783C10.4616 24.0961 11.2485 27.3864 12.1482 30.6433C13.0337 33.9045 14.0304 37.1389 15.1387 40.3389C15.6994 41.9368 16.2716 43.531 16.8722 45.1159C17.162 45.9118 17.4848 46.6965 17.7947 47.4858L18.2648 48.6676L18.7576 49.8413C20.0678 52.9719 21.4798 56.0661 23.0248 59.1006C24.5579 62.1396 26.1711 65.1462 27.9541 68.0641C28.1743 68.4302 28.3888 68.7994 28.6135 69.1631L29.3023 70.246L29.9912 71.329C30.2225 71.6891 30.4448 72.0543 30.6907 72.4058L32.1333 74.5343L32.4924 75.0673L32.8685 75.5899L33.6209 76.635C34.6028 78.043 35.6803 79.3878 36.7265 80.7542C37.2611 81.4292 37.8226 82.0852 38.3694 82.7518L39.195 83.7481C39.4736 84.0775 39.7688 84.3944 40.0525 84.7201L41.771 86.6625L43.5649 88.5446L44.4632 89.4853L45.3997 90.3922L47.2683 92.2121L47.2706 92.2143C47.3179 92.2604 47.3164 92.3338 47.2672 92.378C47.2193 92.4212 47.1438 92.4207 47.0962 92.3782C41.8861 87.7147 37.1792 82.5448 33.096 76.9719L32.3253 75.9302L31.9398 75.4092L31.5715 74.8777L30.1071 72.7462C29.8583 72.3937 29.6331 72.0274 29.3989 71.6665L28.7015 70.5804L28.004 69.4945C27.7765 69.1298 27.5592 68.7596 27.3362 68.3924C25.5305 65.466 23.8954 62.4509 22.3407 59.4026C20.7939 56.3497 19.3956 53.233 18.0924 50.0837L17.6031 48.9029L17.1364 47.7141C16.8288 46.9204 16.5085 46.131 16.221 45.3307C15.9307 44.5312 15.623 43.7375 15.3469 42.9337C15.0738 42.1291 14.7893 41.3279 14.5257 40.5206C12.4072 34.0672 10.6471 27.5018 9.60847 20.8149C9.59869 20.7518 9.64542 20.693 9.71303 20.6838C9.77944 20.6748 9.84117 20.7169 9.85255 20.7785L9.85338 20.783Z" fill="white"/>
</g>
<path d="M17.4242 7.60673C16.9139 30.1555 15.259 107.934 16.049 135.497C16.1328 138.417 18.2696 140.761 20.9351 140.856C34.1185 141.329 82.4482 142.527 104.012 141.536C108.503 141.329 112.075 137.344 112.168 132.421C112.616 108.753 113.605 42.1844 111.255 11.6894C110.973 8.03569 108.355 5.12606 105.025 4.76099C90.6675 3.18762 42.13 -0.658358 23.5003 0.666017C20.1404 0.904866 17.5077 3.91961 17.4242 7.60673Z" fill="#1E397D"/>
<path d="M23.3067 14.5245C22.5971 32.7248 20.3588 93.2724 21.0691 115.662C21.173 118.934 23.5275 121.58 26.5115 121.772C38.7978 122.559 80.7156 124.296 98.7365 122.715C101.981 122.43 104.528 119.556 104.703 115.995C105.616 97.4268 108.238 41.0484 107.557 18.91C107.449 15.3783 104.951 12.4941 101.739 12.1781C88.4467 10.8708 43.9043 7.76017 28.5907 8.67541C25.716 8.84724 23.4295 11.3737 23.3067 14.5245Z" fill="#5D80D9"/>
<path d="M56.2637 5.13877C56.2637 5.83066 56.7558 6.40132 57.3866 6.43741C60.5004 6.61603 69.2722 7.12147 73.1925 7.37062C73.9654 7.41978 74.5721 6.65866 74.4254 5.82588L74.4004 5.68375C74.3003 5.1155 73.8702 4.68779 73.3441 4.63498C70.6942 4.36895 62.6984 3.6314 57.4006 3.83859C56.7643 3.86356 56.2637 4.44122 56.2637 5.13877Z" fill="#5D80D9"/>
<path d="M62.3905 52.6971C72.5463 52.6971 80.7791 44.9879 80.7791 35.4781C80.7791 25.9683 72.5463 18.2591 62.3905 18.2591C52.2348 18.2591 44.002 25.9683 44.002 35.4781C44.002 44.9879 52.2348 52.6971 62.3905 52.6971Z" fill="#5D80D9"/>
<path d="M68.0204 28.9719C68.0204 31.8875 65.4963 35.0352 62.3826 35.0352C59.269 35.0352 56.7449 31.8875 56.7449 28.9719C56.7449 26.0563 59.269 23.9879 62.3826 23.9879C65.4963 23.9879 68.0204 26.0563 68.0204 28.9719Z" fill="white"/>
<path d="M55.3861 46.2605H69.1489C70.5976 46.2605 71.8803 45.3837 72.3217 44.0916L73.0623 41.9242C73.6046 40.3372 72.723 38.6189 71.0517 38.0468C65.4508 36.1291 59.6593 36.3752 53.7265 38.2238C52.0645 38.7416 51.1421 40.4063 51.6008 41.9893L52.171 43.9578C52.5648 45.3169 53.8822 46.2605 55.3861 46.2605Z" fill="white"/>
<g opacity="0.71">
<path opacity="0.65" d="M97.6595 80.1966H30.5478C30.3429 80.1966 30.1768 80.041 30.1768 79.8491V70.769C30.1768 70.5771 30.3429 70.4215 30.5478 70.4215H97.6595C97.8645 70.4215 98.0306 70.5771 98.0306 70.769V79.8491C98.0306 80.041 97.8645 80.1966 97.6595 80.1966Z" fill="white"/>
<path opacity="0.65" d="M97.2933 96.1456H30.1816C29.9767 96.1456 29.8105 95.99 29.8105 95.7981V86.7179C29.8105 86.526 29.9767 86.3705 30.1816 86.3705H97.2933C97.4983 86.3705 97.6644 86.526 97.6644 86.7179V95.7981C97.6644 95.99 97.4983 96.1456 97.2933 96.1456Z" fill="white"/>
<path opacity="0.65" d="M84.1902 115.168H41.2722C41.0193 115.168 40.8142 114.976 40.8142 114.739V103.134C40.8142 102.897 41.0193 102.705 41.2722 102.705H84.1902C84.4431 102.705 84.6482 102.897 84.6482 103.134V114.739C84.6482 114.976 84.4431 115.168 84.1902 115.168Z" fill="white"/>
</g>
<path opacity="0.75" d="M72.9381 78.0663H33.8422C33.4779 78.0663 33.1826 77.7898 33.1826 77.4487V73.2532C33.1826 72.912 33.4779 72.6355 33.8422 72.6355H72.9381C73.3024 72.6355 73.5977 72.912 73.5977 73.2532V77.4487C73.5978 77.7897 73.3025 78.0663 72.9381 78.0663Z" fill="white"/>
<g opacity="0.75">
<path d="M35.5007 93.0469C36.7156 92.5756 37.2925 91.2714 36.7893 90.1337C36.286 88.9961 34.8932 88.4559 33.6783 88.9271C32.4634 89.3984 31.8865 90.7026 32.3897 91.8402C32.893 92.9779 34.2858 93.5181 35.5007 93.0469Z" fill="white"/>
<path d="M41.119 93.3295C42.434 93.3295 43.5 92.3313 43.5 91.1C43.5 89.8686 42.434 88.8705 41.119 88.8705C39.804 88.8705 38.738 89.8686 38.738 91.1C38.738 92.3313 39.804 93.3295 41.119 93.3295Z" fill="white"/>
<path d="M49.721 91.9069C50.0232 90.7086 49.2307 89.5078 47.951 89.2248C46.6713 88.9419 45.3889 89.6839 45.0867 90.8823C44.7845 92.0806 45.577 93.2814 46.8567 93.5644C48.1364 93.8473 49.4188 93.1053 49.721 91.9069Z" fill="white"/>
<path d="M53.9393 93.73C55.2543 93.73 56.3203 92.7318 56.3203 91.5005C56.3203 90.2691 55.2543 89.2709 53.9393 89.2709C52.6243 89.2709 51.5583 90.2691 51.5583 91.5005C51.5583 92.7318 52.6243 93.73 53.9393 93.73Z" fill="white"/>
<path d="M60.4713 93.6723C61.7863 93.6723 62.8523 92.6741 62.8523 91.4428C62.8523 90.2115 61.7863 89.2133 60.4713 89.2133C59.1563 89.2133 58.0903 90.2115 58.0903 91.4428C58.0903 92.6741 59.1563 93.6723 60.4713 93.6723Z" fill="white"/>
<path d="M67.004 93.7872C68.319 93.7872 69.385 92.789 69.385 91.5576C69.385 90.3263 68.319 89.3281 67.004 89.3281C65.689 89.3281 64.623 90.3263 64.623 91.5576C64.623 92.789 65.689 93.7872 67.004 93.7872Z" fill="white"/>
</g>
<path d="M94.1931 98.8354L101.487 100.543L99.6638 113.35C99.6638 113.35 102.399 115.911 103.311 119.326C104.223 122.741 105.063 137.081 105.063 137.081L106.794 138.061L107.005 138.879L101.969 145.219L102.804 140.173C102.937 139.372 102.707 137.747 102.779 137.713C100.044 130.883 94.1931 111.642 94.1931 111.642V98.8354Z" fill="url(#paint1_linear_84_1531)"/>
<path d="M92.0616 138.966C92.1406 138.965 92.2182 138.971 92.2976 138.966C91.9451 134.849 90.3343 116.727 88.7223 109.934C86.8988 102.25 91.4576 86.8822 91.4576 86.8822L99.6637 94.5663L95.1048 109.081C98.229 113.469 94.5951 139.167 94.6734 139.156L94.6684 139.213L95.858 140.745L95.7133 141.575L88.4465 145.591L91.3058 141.243C91.7596 140.552 92.0104 139.77 92.0616 138.966Z" fill="url(#paint2_linear_84_1531)"/>
<path d="M101.292 52.8027C101.292 52.8027 117.269 69.6645 101.292 78.3101L99.6638 77.2064C99.6638 77.2064 107.596 70.0938 99.6638 61.3869L101.292 52.8027Z" fill="url(#paint3_linear_84_1531)"/>
<path d="M87.9679 146.22H90.287C90.7211 146.22 91.1304 146.034 91.3951 145.711C92.1181 144.832 93.6159 143.116 94.3321 143.071C95.2963 143.011 95.173 146.22 95.173 146.22H95.7134L96.398 142.232C96.5702 141.228 96.0372 140.234 95.0749 139.764C95.0749 139.764 94.8545 141.29 93.6595 141.965C92.4644 142.641 88.7964 145.058 88.7964 145.058C88.7964 145.058 88.3471 144.998 87.8539 145.082C87.1222 145.206 87.2244 146.22 87.9679 146.22Z" fill="#5D80D9"/>
<path d="M101.789 145.973L103.926 145.131C104.326 144.973 104.626 144.652 104.737 144.259C105.039 143.186 105.709 141.06 106.351 140.759C107.215 140.353 108.43 143.357 108.43 143.357L108.928 143.16L107.908 139.236C107.651 138.248 106.748 137.525 105.666 137.441C105.666 137.441 106.095 138.928 105.273 139.984C104.451 141.041 102.071 144.601 102.071 144.601C102.071 144.601 101.632 144.709 101.212 144.965C100.589 145.345 101.103 146.243 101.789 145.973Z" fill="#5D80D9"/>
<path d="M89.3678 73.8892C89.3678 73.8892 89.636 75.4283 89.2431 79.659C88.8502 83.8898 86.9721 93.823 87.3545 103.327C87.3545 103.327 92.6934 104.492 101.969 103.94C101.969 103.94 105.884 89.1016 104.93 83.4606C103.976 77.8196 98.8032 73.7726 98.8032 73.7726L89.3678 73.8892Z" fill="url(#paint4_linear_84_1531)"/>
<path d="M93.313 45.6179L92.6604 52.8026H98.8599L97.3184 41.8355L93.313 45.6179Z" fill="url(#paint5_linear_84_1531)"/>
<path d="M100.696 51.8091C98.5568 51.6987 93.7732 51.4942 90.3843 51.6671C88.6 51.7581 87.1054 52.9569 86.7404 54.5949L85.9138 58.304C85.6059 59.6855 85.652 61.1157 86.0481 62.4774L89.368 73.8892C89.368 73.8892 92.3209 75.5509 98.8036 73.7727C98.8036 73.7727 104.497 61.0603 102.166 52.9281C101.985 52.2965 101.394 51.8452 100.696 51.8091Z" fill="url(#paint6_linear_84_1531)"/>
<path d="M86.9022 53.9297C85.989 56.1822 85.1643 58.5441 84.2782 60.7562C83.8277 61.8633 83.3707 62.9487 82.8818 63.9454C82.6345 64.4418 82.3628 64.8979 82.1135 65.3115C81.864 65.7209 81.5829 66.0615 81.4365 66.2182C81.4077 66.2414 81.5039 66.2592 81.5361 66.2606C81.5555 66.2629 80.9188 66.3584 80.7234 66.3891L79.9603 66.3848C78.8665 66.3321 77.6275 66.1516 76.3848 65.9254C73.8783 65.4878 71.2723 64.8734 68.5965 64.4085L68.5759 64.405C68.0639 64.316 67.5718 64.6326 67.4768 65.1121C67.4142 65.4283 67.5412 65.7372 67.7809 65.9359C68.8598 66.8252 70.0035 67.5558 71.1898 68.2669C71.7869 68.6088 72.3945 68.9439 73.0121 69.2657C73.6418 69.5662 74.2732 69.8693 74.9292 70.1494C76.2497 70.6882 77.6139 71.1845 79.1855 71.5033C79.5985 71.568 80.0062 71.6359 80.4311 71.6892C80.9077 71.7047 81.3406 71.7442 81.8611 71.716C82.1376 71.6904 82.4153 71.6586 82.6923 71.6209C82.84 71.5965 82.9486 71.5939 83.1276 71.5477C83.3175 71.4944 83.5069 71.4346 83.6936 71.369C84.0839 71.2378 84.3362 71.0791 84.6532 70.9139C84.9164 70.7514 85.1564 70.5815 85.3892 70.4072C86.2483 69.7219 86.7819 69.0418 87.2521 68.3889C87.721 67.7364 88.0926 67.0828 88.4263 66.4422C89.0955 65.1626 89.6181 63.8948 90.0422 62.618C90.9014 60.0597 91.4837 57.5453 91.7294 54.8745C91.847 53.5952 90.8349 52.4689 89.4688 52.3587C88.3381 52.2674 87.3192 52.901 86.9348 53.8473L86.9022 53.9297Z" fill="url(#paint7_linear_84_1531)"/>
<path d="M69.4388 65.5562L68.3325 63.0972L62.5098 61.7386C62.5098 61.7386 62.044 62.6837 64.4895 63.0972C64.4895 63.0972 63.616 64.0013 64.0819 65.0645C64.5478 66.1277 69.497 67.1928 69.4388 65.5562Z" fill="url(#paint8_linear_84_1531)"/>
<path d="M90.688 37.3201C90.4666 37.4424 88.7225 43.2026 90.184 45.6177C91.6456 48.0329 96.1088 45.3278 97.3183 41.8354C98.5279 38.3432 96.5846 34.0638 90.688 37.3201Z" fill="url(#paint9_linear_84_1531)"/>
<path d="M102.256 41.8358C103.257 46.4287 106.574 45.1718 108.923 47.2151C112.731 50.5269 118.178 47.1129 123.473 50.2513C127.296 52.517 129.138 58.3135 127.304 62.9934C124.763 69.4753 116.079 72.1409 111.579 70.1667C107.279 68.2799 107.891 62.6289 102.105 60.445C99.648 59.5178 98.4352 60.1203 96.9639 58.7461C94.3885 56.3405 95.0834 51.6722 95.3511 49.8738C95.9321 45.9715 97.3293 45.265 96.6615 43.55C95.3627 40.2142 89.3043 40.9024 88.7994 38.5475C88.3396 36.403 92.7308 32.3382 96.8632 32.9788C103.257 33.9698 101.81 39.7896 102.256 41.8358Z" fill="#1E397D"/>
<path opacity="0.6" d="M125.394 61.8957C125.47 61.8957 125.538 61.8477 125.557 61.7757C126.376 58.5935 126.004 55.9837 124.453 54.0187C121.878 50.7575 116.874 50.4349 116.823 50.432C116.745 50.4198 116.652 50.4924 116.646 50.5791C116.641 50.6654 116.71 50.7398 116.803 50.7449C116.852 50.7477 121.705 51.063 124.185 54.2069C125.674 56.0936 126.026 58.6155 125.231 61.7022C125.21 61.7863 125.265 61.8711 125.355 61.8914C125.368 61.8942 125.381 61.8957 125.394 61.8957Z" fill="white"/>
<path opacity="0.72" d="M109.004 64.8086C109.011 64.8086 109.019 64.8077 109.026 64.8062C109.07 64.7951 109.097 64.7523 109.086 64.7103C108.288 61.8456 106.889 59.8561 104.927 58.7966C103.5 58.0257 102.164 57.9541 100.985 57.8908C99.8483 57.8295 98.8666 57.7765 98.0764 57.1187C96.4432 55.7586 96.5377 52.4885 98.3576 47.3992C98.3724 47.3581 98.3485 47.3138 98.3047 47.3C98.2605 47.2862 98.2134 47.3085 98.1987 47.3496C96.3555 52.5038 96.2771 55.83 97.9653 57.2357C98.799 57.93 99.8075 57.9845 100.976 58.0473C102.136 58.1097 103.451 58.1804 104.844 58.9325C106.765 59.97 108.138 61.9274 108.923 64.7502C108.933 64.7854 108.967 64.8086 109.004 64.8086Z" fill="white"/>
<path opacity="0.72" d="M99.8873 40.6956C99.8961 40.6956 99.9048 40.6945 99.9141 40.6917C99.9579 40.6779 99.9814 40.6332 99.9667 40.5922C99.3328 38.8264 97.5066 39.0888 95.5715 39.3673C94.3468 39.5437 93.0808 39.7252 92.0068 39.4277C91.2055 39.2051 90.7295 38.8605 90.5918 38.4027C90.3568 37.6236 91.18 36.7548 91.1881 36.746C91.2192 36.7139 91.2163 36.6642 91.182 36.6355C91.1479 36.6064 91.0947 36.6092 91.064 36.6413C91.0273 36.6793 90.1711 37.5821 90.4304 38.445C90.5847 38.9578 91.099 39.3389 91.9591 39.5777C93.0697 39.8857 94.3542 39.7011 95.5971 39.5223C97.5394 39.2431 99.2187 39.001 99.8079 40.6425C99.8196 40.6751 99.8523 40.6956 99.8873 40.6956Z" fill="white"/>
<g opacity="0.3">
<path d="M39.1233 130.499C39.2615 130.772 39.1704 131.11 38.9027 131.276C38.3175 131.641 37.7072 131.986 37.0892 132.301C36.7885 132.455 36.4176 132.339 36.2608 132.043C36.259 132.04 36.2572 132.036 36.2555 132.033C36.1068 131.739 36.2241 131.381 36.5211 131.229C37.1083 130.929 37.6879 130.602 38.2439 130.255C38.5299 130.077 38.9095 130.161 39.0914 130.443C39.1033 130.461 39.1138 130.48 39.1233 130.499ZM34.3174 132.796C34.328 132.818 34.3376 132.84 34.3459 132.862C34.4603 133.177 34.2943 133.522 33.9752 133.634C33.3194 133.863 32.6472 134.067 31.9772 134.241C31.6494 134.325 31.3146 134.133 31.2262 133.81C31.1394 133.487 31.3349 133.157 31.6624 133.073C32.2993 132.908 32.9378 132.714 33.5609 132.496C33.857 132.392 34.1806 132.526 34.3174 132.796ZM29.114 133.995C29.1445 134.055 29.1652 134.122 29.1739 134.192C29.2141 134.524 28.9741 134.824 28.6375 134.863C27.9475 134.943 27.2451 134.994 26.5501 135.016C26.2111 135.026 25.9275 134.764 25.9157 134.431C25.9044 134.098 26.1699 133.819 26.5087 133.808C27.1688 133.788 27.8355 133.739 28.4909 133.663C28.7558 133.633 29.0016 133.773 29.114 133.995ZM23.7649 134.019C23.8153 134.118 23.8383 134.233 23.8255 134.351C23.7897 134.683 23.4872 134.922 23.1501 134.886C22.4584 134.812 21.7617 134.708 21.0791 134.576C20.7466 134.512 20.529 134.195 20.5932 133.868C20.6577 133.54 20.9799 133.327 21.3128 133.391C21.9609 133.516 22.6227 133.616 23.28 133.686C23.4965 133.709 23.6746 133.84 23.7649 134.019ZM18.542 132.869C18.6126 133.008 18.6286 133.174 18.5732 133.333C18.4634 133.649 18.1144 133.816 17.7937 133.707C17.1372 133.485 16.4811 133.232 15.8438 132.954C15.5333 132.82 15.3921 132.463 15.5287 132.158C15.6652 131.853 16.0274 131.715 16.3379 131.85C16.9436 132.114 17.5673 132.354 18.1911 132.566C18.3503 132.62 18.4726 132.731 18.542 132.869ZM13.7054 130.612C13.7968 130.793 13.7943 131.014 13.6786 131.198C13.5005 131.482 13.1224 131.569 12.8338 131.393C12.2423 131.033 11.659 130.643 11.1005 130.235C10.8279 130.036 10.7708 129.658 10.9728 129.39C11.1745 129.123 11.5591 129.067 11.8315 129.266C12.3623 129.654 12.9163 130.025 13.4783 130.367C13.5796 130.428 13.6561 130.514 13.7054 130.612ZM2.37206 111.417C2.40993 111.492 2.43247 111.576 2.43566 111.665C2.45891 112.313 2.5113 112.969 2.59151 113.615C2.63257 113.946 2.39306 114.247 2.05662 114.286C1.72003 114.326 1.41383 114.09 1.37271 113.759C1.28827 113.079 1.23297 112.388 1.2084 111.705C1.19641 111.371 1.46149 111.092 1.80034 111.081C2.04887 111.073 2.2681 111.212 2.37206 111.417ZM9.49787 127.36C9.61139 127.584 9.57444 127.864 9.38589 128.052C9.14808 128.289 8.75942 128.292 8.5176 128.057C8.02197 127.577 7.54156 127.07 7.08963 126.549C6.8704 126.295 6.89899 125.914 7.15675 125.698C7.4143 125.482 7.80191 125.512 8.02257 125.766C8.45163 126.26 8.9079 126.742 9.37847 127.198C9.42833 127.247 9.46835 127.302 9.49787 127.36ZM3.16234 116.621C3.18037 116.657 3.19533 116.695 3.20616 116.735C3.37646 117.363 3.57678 117.991 3.80101 118.604C3.9159 118.918 3.75049 119.263 3.4316 119.376C3.11265 119.488 2.75945 119.325 2.64577 119.011C2.40993 118.366 2.19917 117.705 2.01974 117.044C1.93222 116.722 2.12682 116.391 2.45435 116.306C2.7412 116.231 3.03497 116.37 3.16234 116.621ZM6.13207 123.267C6.27016 123.54 6.17945 123.877 5.91251 124.044C5.62665 124.223 5.24712 124.139 5.06445 123.858C4.69091 123.282 4.3376 122.682 4.01469 122.075C4.01255 122.071 4.01057 122.067 4.00864 122.063C3.86022 121.769 3.97692 121.412 4.27328 121.26C4.57371 121.106 4.94477 121.221 5.1021 121.517C5.40901 122.093 5.74468 122.663 6.09963 123.211C6.11151 123.229 6.12239 123.248 6.13207 123.267Z" fill="url(#paint10_linear_84_1531)"/>
<path d="M2.6102 107.185C2.66407 107.291 2.68672 107.415 2.66781 107.541C2.62174 107.849 2.58161 108.163 2.54802 108.475C2.51251 108.806 2.21022 109.046 1.87307 109.01C1.53581 108.974 1.29086 108.677 1.32703 108.345C1.3621 108.017 1.40443 107.687 1.45281 107.363C1.50206 107.033 1.81403 106.806 2.14936 106.855C2.35628 106.885 2.52367 107.014 2.6102 107.185Z" fill="url(#paint11_linear_84_1531)"/>
</g>
<g opacity="0.3">
<path d="M12.3462 91.4838C12.4782 91.745 12.402 92.0686 12.1533 92.243C11.8959 92.4234 11.6379 92.6122 11.3868 92.8041C11.1192 93.0084 10.7335 92.9604 10.5251 92.6969C10.3158 92.4322 10.3646 92.054 10.632 91.8497C10.8965 91.6478 11.1681 91.4489 11.4392 91.2589C11.715 91.0656 12.0985 91.1292 12.2958 91.4009C12.3151 91.4276 12.3318 91.4554 12.3462 91.4838Z" fill="url(#paint12_linear_84_1531)"/>
<path d="M47.6646 100.187C47.7905 100.436 47.9125 100.688 48.0308 100.943C48.1714 101.247 48.0356 101.604 47.7271 101.742C47.4187 101.88 47.0526 101.744 46.9135 101.442C46.6406 100.853 46.3442 100.277 46.0285 99.7222C45.8631 99.4304 45.968 99.0632 46.2638 98.9008C46.5598 98.7383 46.934 98.8429 47.0997 99.1342C47.295 99.4772 47.4851 99.8314 47.6646 100.187ZM49.172 103.929C49.1873 103.96 49.2002 103.992 49.2105 104.025C49.4081 104.671 49.5801 105.332 49.7215 105.989C49.7918 106.316 49.5797 106.636 49.2482 106.704C48.9164 106.772 48.5895 106.563 48.5204 106.237C48.3859 105.612 48.2225 104.984 48.0349 104.37C47.9371 104.051 48.121 103.715 48.4455 103.619C48.7363 103.534 49.0411 103.67 49.172 103.929ZM45.3284 96.4726C45.4573 96.7278 45.3882 97.0446 45.1491 97.2221C44.8785 97.4228 44.4936 97.3693 44.2888 97.103C43.8974 96.5934 43.4785 96.0933 43.0433 95.6166C42.8169 95.3678 42.8371 94.9863 43.0891 94.764C43.3413 94.5415 43.7296 94.5626 43.9563 94.8111C44.4145 95.3131 44.8557 95.8398 45.268 96.3765C45.2915 96.4072 45.3116 96.4395 45.3284 96.4726ZM50.1259 109.024C50.1606 109.092 50.1823 109.169 50.1883 109.25C50.2369 109.921 50.2568 110.603 50.2476 111.276C50.2431 111.609 49.9646 111.875 49.6256 111.87C49.2864 111.864 49.0153 111.59 49.02 111.256C49.0287 110.618 49.0098 109.97 48.9635 109.333C48.9393 109 49.1942 108.712 49.5323 108.689C49.7879 108.672 50.0183 108.811 50.1259 109.024ZM41.7087 92.7103C41.8145 92.9196 41.7912 93.1794 41.6282 93.3689C41.4095 93.6233 41.0221 93.6546 40.763 93.4389C40.2677 93.0264 39.7472 92.629 39.2165 92.2575C38.9399 92.0639 38.8746 91.6869 39.0709 91.4152C39.2671 91.1438 39.6502 91.0806 39.9267 91.2741C40.4856 91.6652 41.0334 92.0836 41.5551 92.5179C41.621 92.5728 41.6725 92.6386 41.7087 92.7103ZM37.3391 89.8181C37.4237 89.9854 37.4284 90.1887 37.3341 90.3667C37.1773 90.662 36.8065 90.7759 36.5058 90.621C35.9291 90.324 35.3331 90.0473 34.7344 89.7988C34.4215 89.6694 34.2743 89.3153 34.4057 89.0077C34.5369 88.7004 34.8967 88.5567 35.2095 88.6863C35.8396 88.9478 36.4668 89.2389 37.0735 89.5516C37.1929 89.6131 37.2833 89.7077 37.3391 89.8181ZM32.4346 87.9301C32.4989 88.0574 32.5182 88.2072 32.4779 88.355C32.3904 88.677 32.0538 88.8675 31.7263 88.7807C31.0974 88.6138 30.4548 88.4712 29.816 88.357C29.4823 88.2972 29.2602 87.9832 29.3202 87.6547C29.3802 87.3267 29.6992 87.1091 30.0331 87.1688C30.7054 87.2892 31.3819 87.4392 32.0434 87.6147C32.2205 87.6617 32.3588 87.7802 32.4346 87.9301ZM27.231 87.1382C27.2756 87.2263 27.2989 87.3263 27.2945 87.4316C27.2807 87.7647 26.9949 88.023 26.6562 88.0087C26.0062 87.981 25.3479 87.9804 24.6993 88.0068C24.3605 88.0206 24.0738 87.7613 24.0589 87.4286C24.044 87.0954 24.3067 86.8141 24.6454 86.8003C25.3286 86.7724 26.0219 86.773 26.7061 86.8021C26.938 86.8121 27.1345 86.9471 27.231 87.1382ZM21.9784 87.4887C22.0035 87.5382 22.0219 87.5921 22.0326 87.6492C22.0938 87.9773 21.873 88.2916 21.5396 88.3508C20.9013 88.4645 20.2598 88.6065 19.6322 88.7731C19.305 88.8599 18.9676 88.6682 18.8786 88.3473C18.7895 88.0253 18.9826 87.6938 19.3098 87.607C19.9704 87.4317 20.6459 87.2821 21.3178 87.1626C21.5932 87.1135 21.8596 87.2536 21.9784 87.4887ZM16.9385 88.9647C16.9441 88.9758 16.9494 88.9872 16.9544 88.9988C17.0867 89.306 16.9409 89.6602 16.6288 89.7895C16.1881 89.9722 15.7481 90.1703 15.3204 90.3787C15.1656 90.4541 15.0119 90.5312 14.8596 90.6094C14.5593 90.7638 14.188 90.6492 14.0305 90.3536C13.865 90.0574 13.9884 89.6933 14.2885 89.539C14.4488 89.4565 14.6102 89.3757 14.7732 89.2963C15.223 89.0772 15.6862 88.8686 16.1496 88.6766C16.45 88.5519 16.7951 88.6809 16.9385 88.9647Z" fill="url(#paint13_linear_84_1531)"/>
<path d="M49.9137 114.212C49.9681 114.319 49.9905 114.444 49.9709 114.571C49.921 114.894 49.8632 115.222 49.799 115.546C49.7343 115.874 49.412 116.087 49.0792 116.022C48.7464 115.958 48.5289 115.641 48.5937 115.313C48.6546 115.005 48.7095 114.693 48.757 114.387C48.8077 114.057 49.1208 113.831 49.4561 113.882C49.6615 113.913 49.8276 114.041 49.9137 114.212Z" fill="url(#paint14_linear_84_1531)"/>
</g>
<path d="M43.1692 116.587C43.2196 116.477 43.1937 116.348 43.1047 116.265L40.565 113.902C40.8801 112.329 40.9424 110.694 40.7235 109.057L43.4087 106.87C43.503 106.794 43.5371 106.667 43.4939 106.554L42.0148 102.696C41.9715 102.583 41.8603 102.509 41.738 102.513L38.2492 102.603C37.314 101.23 36.1692 100.041 34.8753 99.0614L35.1978 95.6419C35.209 95.5221 35.1418 95.4082 35.0303 95.3583L31.2129 93.6524C31.1013 93.6025 30.9701 93.6277 30.8861 93.7151L28.4887 96.2072C26.8885 95.8935 25.2264 95.8284 23.5622 96.0397L21.3326 93.3935C21.2544 93.3007 21.1251 93.2668 21.0105 93.309L17.0911 94.7546C16.9766 94.7968 16.902 94.906 16.9056 95.0263L17.0062 98.4578C15.6123 99.3742 14.4059 100.497 13.4129 101.768L9.93521 101.442C9.81339 101.431 9.69773 101.497 9.64732 101.606L7.9219 105.357C7.87143 105.466 7.89738 105.595 7.98638 105.678L10.5261 108.042C10.2109 109.615 10.1487 111.25 10.3676 112.887L7.68227 115.073C7.58811 115.15 7.55391 115.277 7.59707 115.39L9.07632 119.248C9.11953 119.361 9.23063 119.434 9.35305 119.431L12.8419 119.34C13.777 120.713 14.9219 121.903 16.2158 122.882L15.8934 126.302C15.882 126.422 15.9493 126.535 16.0609 126.585L19.8782 128.291C19.9897 128.341 20.121 128.316 20.2051 128.229L22.6024 125.736C24.2027 126.05 25.8648 126.115 27.5289 125.904L29.7585 128.55C29.8366 128.643 29.966 128.677 30.0806 128.635L33.9999 127.189C34.1144 127.147 34.1889 127.038 34.1854 126.917L34.0848 123.486C35.4786 122.569 36.6851 121.446 37.6781 120.176L41.1556 120.501C41.2776 120.513 41.3931 120.447 41.4436 120.337L43.1692 116.587Z" fill="url(#paint15_linear_84_1531)"/>
<path opacity="0.7" d="M29.3169 109.137C30.2316 110.947 29.6853 113.193 27.9516 114.376C26.0459 115.676 23.4165 115.207 22.0898 113.33C21.4468 112.42 21.2023 111.32 21.4006 110.232C21.5989 109.143 22.2164 108.197 23.1396 107.567C25.0454 106.267 27.6748 106.736 29.0015 108.613C29.1211 108.783 29.2262 108.958 29.3169 109.137ZM22.6517 112.374C22.7224 112.514 22.8037 112.649 22.8959 112.78C23.913 114.219 25.9294 114.579 27.3903 113.582C28.8513 112.585 29.2133 110.603 28.1954 109.163C27.1783 107.724 25.162 107.364 23.7011 108.361C22.9932 108.844 22.5197 109.57 22.3676 110.404C22.2441 111.082 22.345 111.767 22.6517 112.374Z" fill="white"/>
<path opacity="0.7" d="M34.7232 106.409C34.8802 106.72 35.0224 107.04 35.1486 107.369C35.1884 107.473 35.2263 107.577 35.2627 107.682C35.4418 108.199 35.5788 108.729 35.6717 109.263C35.673 109.271 35.6743 109.278 35.6756 109.285C35.6791 109.306 35.6826 109.327 35.6859 109.347C35.6926 109.388 35.6988 109.428 35.705 109.469C35.7213 109.575 35.6646 109.675 35.5719 109.72C35.5494 109.731 35.5246 109.739 35.4985 109.743C35.3643 109.762 35.2397 109.671 35.2194 109.539C35.1161 108.86 34.9376 108.187 34.689 107.539C33.4555 104.32 30.6599 102.118 27.4692 101.453C25.6945 101.083 23.7976 101.188 21.979 101.859C21.66 101.976 21.3495 102.109 21.0486 102.256C19.0228 103.243 17.4188 104.873 16.4742 106.926C15.3891 109.284 15.3038 111.919 16.234 114.346C18.1556 119.356 23.8562 121.902 28.944 120.026C29.2578 119.91 29.5643 119.779 29.8625 119.634C31.1546 119.004 32.2917 118.103 33.1887 116.991C33.2119 116.962 33.2404 116.94 33.2717 116.925C33.3542 116.885 33.4566 116.892 33.5336 116.952C33.6398 117.036 33.6583 117.187 33.5736 117.292C32.6318 118.459 31.4381 119.406 30.0815 120.067C29.7685 120.219 29.4468 120.357 29.1175 120.478C23.7757 122.448 17.7897 119.772 15.7743 114.515C14.7977 111.968 14.8873 109.202 16.0265 106.726C17.0181 104.57 18.702 102.86 20.8287 101.823C21.1447 101.669 21.4706 101.53 21.8053 101.407C24.393 100.452 27.206 100.547 29.7261 101.673C31.9207 102.654 33.6644 104.315 34.7232 106.409Z" fill="white"/>
<g opacity="0.3">
<path d="M62.9437 141.911C63.0168 142.056 62.9883 142.236 62.8617 142.351C62.6256 142.565 62.3797 142.776 62.1306 142.977C61.9689 143.107 61.7301 143.083 61.597 142.924C61.4632 142.764 61.4876 142.529 61.6494 142.399C61.8867 142.208 62.1211 142.007 62.3465 141.802C62.4999 141.663 62.7399 141.672 62.8824 141.824C62.9076 141.851 62.9279 141.88 62.9437 141.911Z" fill="url(#paint16_linear_84_1531)"/>
<path d="M60.631 143.654C60.7167 143.824 60.6598 144.032 60.4939 144.135C60.0253 144.425 59.5361 144.695 59.0402 144.936C58.9357 144.987 58.8304 145.037 58.7243 145.086C58.5345 145.173 58.3108 145.08 58.2192 144.907C58.1299 144.72 58.211 144.498 58.4002 144.411C58.5018 144.364 58.6025 144.316 58.7023 144.268C59.1754 144.037 59.6419 143.78 60.0888 143.504C60.266 143.394 60.5 143.447 60.612 143.621C60.6189 143.632 60.6254 143.643 60.631 143.654ZM57.0699 145.298C57.0778 145.313 57.085 145.33 57.0908 145.347C57.1564 145.543 57.0484 145.754 56.8495 145.818C56.2115 146.024 55.5546 146.192 54.8977 146.319C54.6922 146.359 54.4927 146.226 54.4519 146.025C54.4112 145.822 54.5445 145.627 54.75 145.587C55.3768 145.466 56.0032 145.305 56.6117 145.109C56.793 145.051 56.9872 145.134 57.0699 145.298ZM53.2078 146.042C53.2292 146.084 53.2427 146.131 53.2465 146.181C53.2615 146.387 53.104 146.565 52.8952 146.579C52.226 146.624 51.5463 146.629 50.8756 146.593C50.6662 146.581 50.506 146.406 50.517 146.2C50.528 145.994 50.7065 145.836 50.9155 145.848C51.5553 145.883 52.203 145.878 52.8413 145.835C52.9991 145.824 53.1414 145.91 53.2078 146.042ZM49.2755 145.829C49.3105 145.898 49.3238 145.978 49.3093 146.06C49.2726 146.262 49.0755 146.397 48.8693 146.361C48.2075 146.243 47.5475 146.084 46.9071 145.888C46.7071 145.827 46.5954 145.617 46.657 145.421C46.7187 145.224 46.931 145.115 47.1313 145.176C47.7415 145.363 48.3714 145.515 49.0023 145.627C49.1253 145.648 49.2237 145.726 49.2755 145.829ZM45.5131 144.678C45.562 144.774 45.5681 144.891 45.5196 144.997C45.4339 145.184 45.2095 145.268 45.0184 145.183C44.4061 144.911 43.8049 144.599 43.2317 144.257C43.052 144.15 42.9951 143.92 43.1037 143.744C43.2122 143.568 43.4455 143.512 43.6243 143.619C44.1714 143.946 44.7448 144.244 45.3292 144.503C45.4123 144.54 45.4754 144.603 45.5131 144.678ZM42.1471 142.664C42.2104 142.79 42.1992 142.945 42.1054 143.062C41.9758 143.223 41.7375 143.25 41.5729 143.122C41.0459 142.712 40.5398 142.266 40.0691 141.796C39.9221 141.648 39.9238 141.413 40.0727 141.268C40.2216 141.124 40.4619 141.126 40.6088 141.273C41.0577 141.721 41.54 142.147 42.0425 142.538C42.0881 142.573 42.1229 142.617 42.1471 142.664ZM39.3825 139.905C39.4617 140.061 39.4201 140.256 39.274 140.366C39.1079 140.491 38.8698 140.46 38.7421 140.296C38.3345 139.773 37.955 139.219 37.6137 138.647C37.5104 138.468 37.5681 138.241 37.7487 138.137C37.9291 138.033 38.1615 138.093 38.2678 138.271C38.5929 138.816 38.955 139.345 39.3437 139.843C39.3589 139.863 39.3718 139.883 39.3825 139.905ZM36.7161 134.736C36.7258 134.755 36.7341 134.776 36.7405 134.797C36.8965 135.319 37.0843 135.842 37.2988 136.351C37.3308 136.429 37.3632 136.504 37.3965 136.579C37.4798 136.768 37.392 136.988 37.1998 137.069C37.0075 137.151 36.7781 137.065 36.7008 136.875C36.6657 136.795 36.631 136.715 36.5974 136.634C36.3735 136.101 36.1766 135.553 36.0131 135.006C35.954 134.808 36.0688 134.601 36.2698 134.544C36.4487 134.492 36.6356 134.577 36.7161 134.736Z" fill="url(#paint17_linear_84_1531)"/>
</g>
<g opacity="0.3">
<path d="M66.29 123.167C66.3822 123.349 66.3085 123.571 66.1237 123.664C65.9376 123.758 65.7088 123.685 65.6132 123.502C65.3249 122.95 65.0001 122.41 64.6475 121.898C64.5322 121.727 64.5749 121.495 64.7484 121.38C64.9219 121.265 65.1577 121.31 65.2752 121.481C65.6447 122.018 65.9855 122.583 66.2877 123.162C66.2877 123.162 66.2892 123.165 66.29 123.167ZM67.0716 124.915C67.0777 124.927 67.083 124.939 67.0879 124.952C67.3174 125.562 67.5115 126.191 67.665 126.822C67.7135 127.023 67.5882 127.223 67.3845 127.271C67.1805 127.319 66.9762 127.193 66.9272 126.994C66.7808 126.391 66.5956 125.791 66.3768 125.21C66.3039 125.016 66.4042 124.802 66.6005 124.731C66.7842 124.664 66.9864 124.747 67.0716 124.915ZM64.1161 120.011C64.191 120.159 64.1587 120.343 64.0262 120.457C63.8688 120.592 63.6293 120.576 63.4913 120.421C63.0756 119.953 62.6278 119.506 62.1597 119.093C62.0041 118.954 61.9907 118.719 62.1307 118.566C62.2702 118.413 62.5102 118.401 62.6662 118.538C63.1568 118.972 63.6262 119.44 64.0617 119.931C64.0839 119.956 64.1019 119.983 64.1161 120.011ZM67.9702 128.623C67.9894 128.661 68.0024 128.703 68.0076 128.748C68.0816 129.394 68.1157 130.05 68.1087 130.7C68.1067 130.906 67.9351 131.07 67.7256 131.068C67.5168 131.065 67.3486 130.896 67.3505 130.69C67.3569 130.071 67.3243 129.445 67.2539 128.83C67.2306 128.625 67.3803 128.441 67.5884 128.418C67.7509 128.4 67.9012 128.487 67.9702 128.623ZM61.2324 117.463C61.2922 117.582 61.2863 117.728 61.2041 117.843C61.0842 118.012 60.8478 118.053 60.6761 117.934C60.1602 117.579 59.6168 117.251 59.0604 116.96C58.875 116.863 58.805 116.636 58.9032 116.455C59.0014 116.273 59.2311 116.204 59.4161 116.301C59.9991 116.607 60.5691 116.951 61.1102 117.323C61.164 117.361 61.2051 117.409 61.2324 117.463ZM57.8131 115.669C57.8589 115.76 57.8673 115.868 57.8276 115.969C57.7524 116.161 57.533 116.257 57.3375 116.182C56.7487 115.958 56.1411 115.767 55.5319 115.615C55.3285 115.564 55.2055 115.361 55.2568 115.161C55.3079 114.962 55.5139 114.841 55.7168 114.892C56.3558 115.052 56.9928 115.252 57.6098 115.487C57.7018 115.522 57.7723 115.588 57.8131 115.669ZM54.0567 114.731C54.0889 114.795 54.1032 114.868 54.0932 114.944C54.0672 115.148 53.8774 115.292 53.6695 115.266C53.0439 115.187 52.4078 115.145 51.7793 115.141C51.5703 115.139 51.4007 114.972 51.4016 114.766C51.4024 114.56 51.5726 114.394 51.7823 114.395C52.4413 114.399 53.1085 114.443 53.7648 114.526C53.8954 114.543 54.0021 114.623 54.0567 114.731Z" fill="url(#paint18_linear_84_1531)"/>
<path d="M67.9292 132.45C67.9618 132.515 67.9758 132.589 67.9654 132.666C67.9224 132.982 67.8695 133.298 67.8087 133.606C67.7686 133.808 67.5696 133.94 67.364 133.9C67.1589 133.86 67.0245 133.664 67.064 133.462C67.1222 133.169 67.1724 132.867 67.2137 132.565C67.2414 132.361 67.4324 132.218 67.6399 132.246C67.7694 132.263 67.875 132.343 67.9292 132.45Z" fill="url(#paint19_linear_84_1531)"/>
</g>
<path d="M63.4035 134.309C63.4372 134.235 63.4199 134.149 63.3603 134.094L61.6608 132.512C61.8717 131.459 61.9134 130.365 61.7669 129.27L63.5638 127.807C63.6268 127.756 63.6497 127.67 63.6208 127.595L62.631 125.013C62.602 124.938 62.5277 124.889 62.4458 124.891L60.1113 124.951C59.4855 124.033 58.7194 123.237 57.8536 122.581L58.0694 120.293C58.077 120.213 58.0319 120.137 57.9573 120.103L55.4029 118.962C55.3282 118.929 55.2404 118.945 55.1841 119.004L53.5799 120.672C52.5091 120.462 51.3969 120.418 50.2833 120.559L48.7914 118.789C48.7391 118.727 48.6526 118.704 48.5759 118.732L45.9533 119.7C45.8766 119.728 45.8267 119.801 45.8291 119.881L45.8964 122.178C44.9637 122.791 44.1564 123.542 43.492 124.392L41.1649 124.175C41.0834 124.167 41.006 124.211 40.9723 124.284L39.8177 126.794C39.7839 126.867 39.8013 126.954 39.8608 127.009L41.5603 128.591C41.3493 129.643 41.3078 130.737 41.4542 131.833L39.6573 133.296C39.5943 133.347 39.5713 133.432 39.6003 133.508L40.5901 136.089C40.619 136.165 40.6933 136.214 40.7752 136.212L43.1098 136.151C43.7356 137.07 44.5016 137.866 45.3674 138.521L45.1517 140.809C45.1441 140.89 45.1891 140.966 45.2637 140.999L47.8181 142.141C47.8928 142.174 47.9806 142.157 48.0369 142.099L49.6411 140.431C50.7119 140.641 51.8241 140.684 52.9377 140.543L54.4296 142.314C54.4819 142.376 54.5685 142.399 54.6451 142.37L57.2678 141.403C57.3444 141.375 57.3943 141.302 57.3919 141.221L57.3246 138.925C58.2573 138.312 59.0646 137.56 59.729 136.71L62.0561 136.928C62.1377 136.936 62.215 136.892 62.2488 136.818L63.4035 134.309Z" fill="url(#paint20_linear_84_1531)"/>
<path opacity="0.7" d="M54.1814 129.306C54.454 129.845 54.5437 130.453 54.4339 131.056C54.2988 131.797 53.878 132.441 53.2492 132.87C51.9516 133.756 50.1605 133.436 49.2565 132.158C48.3539 130.876 48.6738 129.118 49.9718 128.232C50.6006 127.803 51.3623 127.641 52.1162 127.776C52.8705 127.91 53.5271 128.326 53.9647 128.945C54.0463 129.061 54.1188 129.182 54.1814 129.306ZM49.7209 131.471C49.7664 131.56 49.819 131.648 49.8789 131.733C50.5439 132.674 51.8613 132.909 52.816 132.257C53.2784 131.942 53.5882 131.467 53.6873 130.922C53.7866 130.377 53.6635 129.826 53.3421 129.37C53.0201 128.914 52.5372 128.609 51.9826 128.51C51.4276 128.411 50.8674 128.53 50.4048 128.846C49.5364 129.438 49.2626 130.564 49.7209 131.471Z" fill="white"/>
<path opacity="0.7" d="M57.947 127.412C58.0539 127.623 58.1507 127.842 58.2374 128.067C58.4093 128.515 58.535 128.98 58.6112 129.452C58.6145 129.473 58.6177 129.494 58.621 129.515C58.646 129.679 58.5585 129.834 58.4154 129.904C58.3806 129.921 58.3424 129.933 58.302 129.938C58.0949 129.968 57.9027 129.827 57.871 129.624C57.8041 129.183 57.6885 128.748 57.5278 128.329L57.5277 128.329C57.519 128.306 57.5098 128.283 57.5008 128.26C57.1114 127.273 56.4868 126.419 55.6868 125.751C55.2524 125.389 54.766 125.082 54.2365 124.84C54.2322 124.838 54.2279 124.836 54.2236 124.834C54.2102 124.828 54.1973 124.822 54.184 124.816C52.6299 124.122 50.8952 124.063 49.2997 124.652C49.0931 124.728 48.8923 124.814 48.6973 124.909C47.3859 125.548 46.3476 126.603 45.7358 127.932C45.0335 129.459 44.9785 131.165 45.5807 132.735C46.1831 134.305 47.3704 135.553 48.9243 136.248C50.4784 136.942 52.2131 137.001 53.8087 136.412C54.0117 136.338 54.2102 136.253 54.4031 136.159C55.2398 135.751 55.9757 135.168 56.5564 134.448C56.5923 134.404 56.6361 134.369 56.6846 134.346C56.8119 134.284 56.9701 134.295 57.089 134.388C57.2529 134.517 57.2811 134.751 57.1508 134.913C56.501 135.718 55.6775 136.371 54.7418 136.827C54.5256 136.932 54.3038 137.027 54.0767 137.111C52.2913 137.769 50.3507 137.704 48.6118 136.927C46.8733 136.15 45.5439 134.756 44.8711 132.997C44.1972 131.24 44.2588 129.331 45.0451 127.623C45.7291 126.136 46.8909 124.956 48.3581 124.241C48.5759 124.135 48.8008 124.038 49.0317 123.953C52.4881 122.679 56.335 124.223 57.947 127.412Z" fill="white"/>
<defs>
<linearGradient id="paint0_linear_84_1531" x1="178.251" y1="190.051" x2="49.5592" y2="19.3674" gradientUnits="userSpaceOnUse">
<stop stop-color="#DAE3FE"/>
<stop offset="1" stop-color="#E9EFFD"/>
</linearGradient>
<linearGradient id="paint1_linear_84_1531" x1="110.526" y1="144.09" x2="92.1734" y2="93.6332" gradientUnits="userSpaceOnUse">
<stop stop-color="#FEBBBA"/>
<stop offset="1" stop-color="#FF928E"/>
</linearGradient>
<linearGradient id="paint2_linear_84_1531" x1="110.839" y1="303.766" x2="51.1056" y2="-441.791" gradientUnits="userSpaceOnUse">
<stop stop-color="#FEBBBA"/>
<stop offset="1" stop-color="#FF928E"/>
</linearGradient>
<linearGradient id="paint3_linear_84_1531" x1="108.393" y1="65.5564" x2="99.6638" y2="65.5564" gradientUnits="userSpaceOnUse">
<stop stop-color="#FEBBBA"/>
<stop offset="1" stop-color="#FF928E"/>
</linearGradient>
<linearGradient id="paint4_linear_84_1531" x1="115.463" y1="63.814" x2="98.7749" y2="87.948" gradientUnits="userSpaceOnUse">
<stop stop-color="#4F52FF"/>
<stop offset="1" stop-color="#4042E2"/>
</linearGradient>
<linearGradient id="paint5_linear_84_1531" x1="98.8599" y1="47.3191" x2="92.6604" y2="47.3191" gradientUnits="userSpaceOnUse">
<stop stop-color="#FEBBBA"/>
<stop offset="1" stop-color="#FF928E"/>
</linearGradient>
<linearGradient id="paint6_linear_84_1531" x1="170.903" y1="39.1897" x2="145.834" y2="47.9805" gradientUnits="userSpaceOnUse">
<stop stop-color="#FF928E"/>
<stop offset="1" stop-color="#FE7062"/>
</linearGradient>
<linearGradient id="paint7_linear_84_1531" x1="62.4864" y1="50.629" x2="114.306" y2="82.3318" gradientUnits="userSpaceOnUse">
<stop stop-color="#FEBBBA"/>
<stop offset="1" stop-color="#FF928E"/>
</linearGradient>
<linearGradient id="paint8_linear_84_1531" x1="57.1588" y1="59.3368" x2="108.978" y2="91.0396" gradientUnits="userSpaceOnUse">
<stop stop-color="#FEBBBA"/>
<stop offset="1" stop-color="#FF928E"/>
</linearGradient>
<linearGradient id="paint9_linear_84_1531" x1="88.5342" y1="47.3167" x2="99.5292" y2="30.1471" gradientUnits="userSpaceOnUse">
<stop stop-color="#FEBBBA"/>
<stop offset="1" stop-color="#FF928E"/>
</linearGradient>
<linearGradient id="paint10_linear_84_1531" x1="27.1931" y1="136.9" x2="12.797" y2="105.917" gradientUnits="userSpaceOnUse">
<stop stop-color="#FF928E"/>
<stop offset="1" stop-color="#FE7062"/>
</linearGradient>
<linearGradient id="paint11_linear_84_1531" x1="2.47452" y1="108.829" x2="1.61944" y2="106.988" gradientUnits="userSpaceOnUse">
<stop stop-color="#FF928E"/>
<stop offset="1" stop-color="#FE7062"/>
</linearGradient>
<linearGradient id="paint12_linear_84_1531" x1="11.7317" y1="92.6599" x2="11.1404" y2="91.3871" gradientUnits="userSpaceOnUse">
<stop stop-color="#FF928E"/>
<stop offset="1" stop-color="#FE7062"/>
</linearGradient>
<linearGradient id="paint13_linear_84_1531" x1="41.6471" y1="115.645" x2="26.8045" y2="83.7014" gradientUnits="userSpaceOnUse">
<stop stop-color="#FF928E"/>
<stop offset="1" stop-color="#FE7062"/>
</linearGradient>
<linearGradient id="paint14_linear_84_1531" x1="49.7499" y1="115.841" x2="48.9054" y2="114.023" gradientUnits="userSpaceOnUse">
<stop stop-color="#FF928E"/>
<stop offset="1" stop-color="#FE7062"/>
</linearGradient>
<linearGradient id="paint15_linear_84_1531" x1="30.1188" y1="95.3" x2="18.2953" y2="141.508" gradientUnits="userSpaceOnUse">
<stop stop-color="#FF928E"/>
<stop offset="1" stop-color="#FE7062"/>
</linearGradient>
<linearGradient id="paint16_linear_84_1531" x1="62.4819" y1="142.826" x2="62.0595" y2="141.917" gradientUnits="userSpaceOnUse">
<stop stop-color="#FF928E"/>
<stop offset="1" stop-color="#FE7062"/>
</linearGradient>
<linearGradient id="paint17_linear_84_1531" x1="52.6927" y1="147.889" x2="44.675" y2="130.633" gradientUnits="userSpaceOnUse">
<stop stop-color="#FF928E"/>
<stop offset="1" stop-color="#FE7062"/>
</linearGradient>
<linearGradient id="paint18_linear_84_1531" x1="65.7442" y1="132.03" x2="56.5103" y2="112.157" gradientUnits="userSpaceOnUse">
<stop stop-color="#FF928E"/>
<stop offset="1" stop-color="#FE7062"/>
</linearGradient>
<linearGradient id="paint19_linear_84_1531" x1="67.8689" y1="133.746" x2="67.2293" y2="132.37" gradientUnits="userSpaceOnUse">
<stop stop-color="#FF928E"/>
<stop offset="1" stop-color="#FE7062"/>
</linearGradient>
<linearGradient id="paint20_linear_84_1531" x1="57.3545" y1="112.47" x2="45.5136" y2="154.979" gradientUnits="userSpaceOnUse">
<stop stop-color="#FF928E"/>
<stop offset="1" stop-color="#FE7062"/>
</linearGradient>
</defs>
</svg>
