<svg width="166" height="161" viewBox="0 0 166 161" fill="none" xmlns="http://www.w3.org/2000/svg">
<path d="M29.1895 29.4285L1.18652 29.3881C1.18652 29.3881 2.58127 27.6926 4.11692 27.4825C4.11692 27.4825 7.11539 19.1644 12.1138 19.1122C16.7607 19.0636 18.6149 24.2396 18.6149 24.2396C18.6149 24.2396 20.7712 21.9222 22.8261 22.9862C24.881 24.0502 26.0407 27.0892 26.0407 27.0892C26.0407 27.0892 28.3521 28.26 29.1895 29.4285Z" fill="#EBEBEB"/>
<path d="M129.402 36.8393L164.814 36.89C164.814 36.89 164.817 34.7709 159.939 34.3491C159.939 34.3491 155.5 25.0827 148.698 26.3168C144.462 27.0855 142.288 32.5268 142.288 32.5268C142.288 32.5268 139.095 28.2377 136.534 29.0635C133.973 29.8892 132.446 34.4477 132.446 34.4477C132.446 34.4477 129.804 35.6418 129.402 36.8393Z" fill="#EBEBEB"/>
<path d="M123.569 68.5496L147.648 68.5841C147.648 68.5841 145.379 66.6002 144.369 66.5991C143.359 66.5976 140.422 59.9448 136.655 60.2223C132.888 60.4999 130.882 65.448 130.882 65.448C130.882 65.448 126.306 64.0975 123.569 68.5496Z" fill="#EBEBEB"/>
<path d="M119.98 11.2924L140.572 11.322C140.572 11.322 139.55 10.0723 138.421 9.91442C138.421 9.91442 136.237 3.79155 132.561 3.74262C129.144 3.69704 127.768 7.49915 127.768 7.49915C127.768 7.49915 126.189 5.79063 124.675 6.56854C123.162 7.34645 122.302 9.57902 122.302 9.57902C122.302 9.57902 120.599 10.4351 119.98 11.2924Z" fill="#EBEBEB"/>
<path d="M14.8494 57.9577L35.4409 57.9873C35.4409 57.9873 34.4194 56.7376 33.2906 56.5801C33.2906 56.5801 31.1055 50.4572 27.4302 50.4083C24.0134 50.3631 22.6376 54.1648 22.6376 54.1648C22.6376 54.1648 21.0577 52.4563 19.5438 53.2342C18.0303 54.0121 17.1703 56.2443 17.1703 56.2443C17.1703 56.2443 15.468 57.1004 14.8494 57.9577Z" fill="#EBEBEB"/>
<path d="M3.12036 60.1024V130.893H162.88V89.8225H149.021V105.585H145.453V96.6632H127.83V110.792H125.496V55.0239H110.18V86.7327H102.326V98.0586H99.9473V90.9362H86.0224V112.187H81.9513V94.9136H69.2157V81.7887H60.5575V74.3176H50.5406V107.463H47.1685V71.0184H30.6694V90.8187H28.3889V74.6589H11.6543V60.1024H3.12036Z" fill="#EBEBEB"/>
<path d="M158.836 94.8191H161.181V91.806H158.836V94.8191Z" fill="#FAFAFA"/>
<path d="M154.772 94.8191H157.117V91.806H154.772V94.8191Z" fill="#FAFAFA"/>
<path d="M150.707 94.8191H153.052V91.806H150.707V94.8191Z" fill="#FAFAFA"/>
<path d="M158.836 99.3529H161.181V96.3395H158.836V99.3529Z" fill="#FAFAFA"/>
<path d="M154.772 99.3529H157.117V96.3395H154.772V99.3529Z" fill="#FAFAFA"/>
<path d="M150.707 99.3529H153.052V96.3395H150.707V99.3529Z" fill="#FAFAFA"/>
<path d="M158.836 103.887H161.181V100.874H158.836V103.887Z" fill="#FAFAFA"/>
<path d="M154.772 103.887H157.117V100.874H154.772V103.887Z" fill="#FAFAFA"/>
<path d="M150.707 103.887H153.052V100.874H150.707V103.887Z" fill="#FAFAFA"/>
<path d="M158.836 108.421H161.181V105.408H158.836V108.421Z" fill="#FAFAFA"/>
<path d="M154.772 108.421H157.117V105.408H154.772V108.421Z" fill="#FAFAFA"/>
<path d="M150.707 108.421H153.052V105.408H150.707V108.421Z" fill="#FAFAFA"/>
<path d="M77.6496 99.5787H79.9946V97.0648H77.6496V99.5787Z" fill="#FAFAFA"/>
<path d="M73.5849 99.5787H75.9299V97.0648H73.5849V99.5787Z" fill="#FAFAFA"/>
<path d="M69.5207 99.5787H71.8657V97.0648H69.5207V99.5787Z" fill="#FAFAFA"/>
<path d="M77.6496 103.362H79.9946V100.848H77.6496V103.362Z" fill="#FAFAFA"/>
<path d="M73.5849 103.362H75.9299V100.848H73.5849V103.362Z" fill="#FAFAFA"/>
<path d="M69.5207 103.362H71.8657V100.848H69.5207V103.362Z" fill="#FAFAFA"/>
<path d="M77.6496 107.143H79.9946V104.63H77.6496V107.143Z" fill="#FAFAFA"/>
<path d="M73.5849 107.143H75.9299V104.63H73.5849V107.143Z" fill="#FAFAFA"/>
<path d="M69.5207 107.143H71.8657V104.63H69.5207V107.143Z" fill="#FAFAFA"/>
<path d="M77.6496 110.927H79.9946V108.412H77.6496V110.927Z" fill="#FAFAFA"/>
<path d="M73.5849 110.927H75.9299V108.412H73.5849V110.927Z" fill="#FAFAFA"/>
<path d="M69.5207 110.927H71.8657V108.412H69.5207V110.927Z" fill="#FAFAFA"/>
<path d="M77.6496 114.802H79.9946V112.288H77.6496V114.802Z" fill="#FAFAFA"/>
<path d="M73.5849 114.802H75.9299V112.288H73.5849V114.802Z" fill="#FAFAFA"/>
<path d="M69.5207 114.802H71.8657V112.288H69.5207V114.802Z" fill="#FAFAFA"/>
<path d="M77.6496 118.679H79.9946V116.165H77.6496V118.679Z" fill="#FAFAFA"/>
<path d="M73.5849 118.679H75.9299V116.165H73.5849V118.679Z" fill="#FAFAFA"/>
<path d="M69.5207 118.679H71.8657V116.165H69.5207V118.679Z" fill="#FAFAFA"/>
<path d="M77.6496 122.555H79.9946V120.041H77.6496V122.555Z" fill="#FAFAFA"/>
<path d="M73.5852 122.555H75.9302V120.041H73.5852V122.555Z" fill="#FAFAFA"/>
<path d="M69.5207 122.555H71.8657V120.041H69.5207V122.555Z" fill="#FAFAFA"/>
<path d="M77.6496 126.431H79.9946V123.917H77.6496V126.431Z" fill="#FAFAFA"/>
<path d="M73.5849 126.431H75.9299V123.917H73.5849V126.431Z" fill="#FAFAFA"/>
<path d="M69.5207 126.431H71.8657V123.917H69.5207V126.431Z" fill="#FAFAFA"/>
<path d="M129.952 100.48H143.452V98.595H129.952V100.48Z" fill="#FAFAFA"/>
<path d="M129.952 104.136H143.452V102.251H129.952V104.136Z" fill="#FAFAFA"/>
<path d="M129.952 107.793H143.452V105.909H129.952V107.793Z" fill="#FAFAFA"/>
<path d="M129.952 111.45H143.452V109.565H129.952V111.45Z" fill="#FAFAFA"/>
<path d="M129.952 115.106H143.452V113.221H129.952V115.106Z" fill="#FAFAFA"/>
<path d="M129.952 118.763H143.452V116.878H129.952V118.763Z" fill="#FAFAFA"/>
<path d="M129.952 122.419H143.452V120.535H129.952V122.419Z" fill="#FAFAFA"/>
<path d="M129.952 126.076H143.452V124.191H129.952V126.076Z" fill="#FAFAFA"/>
<path d="M32.7641 74.6628H45.1755V72.7782H32.7641V74.6628Z" fill="#FAFAFA"/>
<path d="M32.7641 78.3197H45.1755V76.4351H32.7641V78.3197Z" fill="#FAFAFA"/>
<path d="M32.7641 81.9753H45.1755V80.0907H32.7641V81.9753Z" fill="#FAFAFA"/>
<path d="M32.7641 85.6327H45.1755V83.7482H32.7641V85.6327Z" fill="#FAFAFA"/>
<path d="M45.1754 87.4049H32.7639V89.2895H45.1754V87.4049Z" fill="#FAFAFA"/>
<path d="M32.7641 92.9458H45.1755V91.0612H32.7641V92.9458Z" fill="#FAFAFA"/>
<path d="M32.7641 96.6027H45.1755V94.7181H32.7641V96.6027Z" fill="#FAFAFA"/>
<path d="M32.7641 100.26H45.1755V98.3751H32.7641V100.26Z" fill="#FAFAFA"/>
<path d="M32.7641 103.734H45.1755V101.849H32.7641V103.734Z" fill="#FAFAFA"/>
<path d="M32.7641 107.208H45.1755V105.324H32.7641V107.208Z" fill="#FAFAFA"/>
<path d="M32.7641 110.683H45.1755V108.799H32.7641V110.683Z" fill="#FAFAFA"/>
<path d="M32.7641 114.158H45.1755V112.273H32.7641V114.158Z" fill="#FAFAFA"/>
<path d="M12.6965 79.0797H25.8069V77.1951H12.6965V79.0797Z" fill="#FAFAFA"/>
<path d="M12.6965 82.7363H25.8069V80.8517H12.6965V82.7363Z" fill="#FAFAFA"/>
<path d="M12.6965 86.3924H25.8069V84.5079H12.6965V86.3924Z" fill="#FAFAFA"/>
<path d="M12.6965 90.0493H25.8069V88.1648H12.6965V90.0493Z" fill="#FAFAFA"/>
<path d="M12.6965 93.7057H25.8069V91.8212H12.6965V93.7057Z" fill="#FAFAFA"/>
<path d="M12.6965 97.3632H25.8069V95.4786H12.6965V97.3632Z" fill="#FAFAFA"/>
<path d="M12.6965 101.02H25.8069V99.135H12.6965V101.02Z" fill="#FAFAFA"/>
<path d="M12.6965 104.677H25.8069V102.792H12.6965V104.677Z" fill="#FAFAFA"/>
<path d="M12.6965 107.949H25.8069V106.065H12.6965V107.949Z" fill="#FAFAFA"/>
<path d="M12.6965 111.222H25.8069V109.338H12.6965V111.222Z" fill="#FAFAFA"/>
<path d="M12.6965 114.495H25.8069V112.61H12.6965V114.495Z" fill="#FAFAFA"/>
<path d="M91.7064 94.463H95.8748V92.643H91.7064V94.463Z" fill="#FAFAFA"/>
<path d="M91.7064 97.9945H95.8748V96.1744H91.7064V97.9945Z" fill="#FAFAFA"/>
<path d="M91.7064 101.525H95.8748V99.7054H91.7064V101.525Z" fill="#FAFAFA"/>
<path d="M91.7064 105.057H95.8748V103.237H91.7064V105.057Z" fill="#FAFAFA"/>
<path d="M91.7064 108.588H95.8748V106.768H91.7064V108.588Z" fill="#FAFAFA"/>
<path d="M91.7064 112.12H95.8748V110.3H91.7064V112.12Z" fill="#FAFAFA"/>
<path d="M91.7064 115.65H95.8748V113.83H91.7064V115.65Z" fill="#FAFAFA"/>
<path d="M91.7064 119.182H95.8748V117.362H91.7064V119.182Z" fill="#FAFAFA"/>
<path d="M86.0332 94.463H90.2017V92.643H86.0332V94.463Z" fill="#FAFAFA"/>
<path d="M86.0332 97.9945H90.2017V96.1744H86.0332V97.9945Z" fill="#FAFAFA"/>
<path d="M86.0332 101.525H90.2017V99.7054H86.0332V101.525Z" fill="#FAFAFA"/>
<path d="M86.0332 105.057H90.2017V103.237H86.0332V105.057Z" fill="#FAFAFA"/>
<path d="M86.0332 108.588H90.2017V106.768H86.0332V108.588Z" fill="#FAFAFA"/>
<path d="M86.0332 112.12H90.2017V110.3H86.0332V112.12Z" fill="#FAFAFA"/>
<path d="M86.0332 115.65H90.2017V113.83H86.0332V115.65Z" fill="#FAFAFA"/>
<path d="M86.0332 119.182H90.2017V117.362H86.0332V119.182Z" fill="#FAFAFA"/>
<path d="M118.83 59.8028H123.174V56.9328H118.83V59.8028Z" fill="#FAFAFA"/>
<path d="M112.355 59.8028H116.698V56.9328H112.355V59.8028Z" fill="#FAFAFA"/>
<path d="M118.83 64.0189H123.174V61.1488H118.83V64.0189Z" fill="#FAFAFA"/>
<path d="M112.355 64.0189H116.698V61.1488H112.355V64.0189Z" fill="#FAFAFA"/>
<path d="M118.83 68.2352H123.174V65.3652H118.83V68.2352Z" fill="#FAFAFA"/>
<path d="M112.355 68.2352H116.698V65.3652H112.355V68.2352Z" fill="#FAFAFA"/>
<path d="M118.83 72.4508H123.174V69.5808H118.83V72.4508Z" fill="#FAFAFA"/>
<path d="M112.355 72.4508H116.698V69.5808H112.355V72.4508Z" fill="#FAFAFA"/>
<path d="M118.83 76.6672H123.174V73.7972H118.83V76.6672Z" fill="#FAFAFA"/>
<path d="M112.355 76.6672H116.698V73.7972H112.355V76.6672Z" fill="#FAFAFA"/>
<path d="M118.83 80.8827H123.174V78.0127H118.83V80.8827Z" fill="#FAFAFA"/>
<path d="M112.355 80.8827H116.698V78.0127H112.355V80.8827Z" fill="#FAFAFA"/>
<path d="M118.83 85.0994H123.174V82.2294H118.83V85.0994Z" fill="#FAFAFA"/>
<path d="M112.355 85.0994H116.698V82.2294H112.355V85.0994Z" fill="#FAFAFA"/>
<path d="M118.83 89.3155H123.174V86.4454H118.83V89.3155Z" fill="#FAFAFA"/>
<path d="M112.355 89.3155H116.698V86.4454H112.355V89.3155Z" fill="#FAFAFA"/>
<path d="M104.33 90.845H108.673V87.9749H104.33V90.845Z" fill="#FAFAFA"/>
<path d="M104.33 95.0605H108.673V92.1905H104.33V95.0605Z" fill="#FAFAFA"/>
<path d="M104.33 99.2772H108.673V96.4071H104.33V99.2772Z" fill="#FAFAFA"/>
<path d="M104.33 103.494H108.673V100.624H104.33V103.494Z" fill="#FAFAFA"/>
<path d="M104.33 107.71H108.673V104.84H104.33V107.71Z" fill="#FAFAFA"/>
<path d="M104.33 111.926H108.673V109.055H104.33V111.926Z" fill="#FAFAFA"/>
<path d="M118.83 93.4811H123.174V90.6111H118.83V93.4811Z" fill="#FAFAFA"/>
<path d="M112.355 93.4811H116.698V90.6111H112.355V93.4811Z" fill="#FAFAFA"/>
<path d="M104.33 116.091H108.673V113.221H104.33V116.091Z" fill="#FAFAFA"/>
<path d="M118.83 97.6469H123.174V94.7765H118.83V97.6469Z" fill="#FAFAFA"/>
<path d="M112.355 97.6469H116.698V94.7765H112.355V97.6469Z" fill="#FAFAFA"/>
<path d="M104.33 120.257H108.673V117.387H104.33V120.257Z" fill="#FAFAFA"/>
<path d="M118.83 101.813H123.174V98.9433H118.83V101.813Z" fill="#FAFAFA"/>
<path d="M112.355 101.813H116.698V98.9433H112.355V101.813Z" fill="#FAFAFA"/>
<path d="M104.33 124.423H108.673V121.553H104.33V124.423Z" fill="#FAFAFA"/>
<path d="M118.83 105.979H123.174V103.109H118.83V105.979Z" fill="#FAFAFA"/>
<path d="M112.355 105.979H116.698V103.109H112.355V105.979Z" fill="#FAFAFA"/>
<path d="M118.83 110.145H123.174V107.275H118.83V110.145Z" fill="#FAFAFA"/>
<path d="M112.355 110.145H116.698V107.275H112.355V110.145Z" fill="#FAFAFA"/>
<path d="M65.1013 86.1524H67.4463V83.6385H65.1013V86.1524Z" fill="#FAFAFA"/>
<path d="M61.0371 86.1524H63.3821V83.6385H61.0371V86.1524Z" fill="#FAFAFA"/>
<path d="M65.1013 89.9353H67.4463V87.4214H65.1013V89.9353Z" fill="#FAFAFA"/>
<path d="M61.0371 89.9353H63.3821V87.4214H61.0371V89.9353Z" fill="#FAFAFA"/>
<path d="M65.1013 93.7177H67.4463V91.2038H65.1013V93.7177Z" fill="#FAFAFA"/>
<path d="M61.0371 93.7177H63.3821V91.2038H61.0371V93.7177Z" fill="#FAFAFA"/>
<path d="M65.1013 97.5002H67.4463V94.9864H65.1013V97.5002Z" fill="#FAFAFA"/>
<path d="M61.0371 97.5002H63.3821V94.9864H61.0371V97.5002Z" fill="#FAFAFA"/>
<path d="M65.1013 101.376H67.4463V98.8622H65.1013V101.376Z" fill="#FAFAFA"/>
<path d="M61.0371 101.376H63.3821V98.8622H61.0371V101.376Z" fill="#FAFAFA"/>
<path d="M65.1013 105.252H67.4463V102.738H65.1013V105.252Z" fill="#FAFAFA"/>
<path d="M61.0371 105.252H63.3821V102.738H61.0371V105.252Z" fill="#FAFAFA"/>
<path d="M65.1013 109.129H67.4463V106.614H65.1013V109.129Z" fill="#FAFAFA"/>
<path d="M61.0371 109.129H63.3821V106.614H61.0371V109.129Z" fill="#FAFAFA"/>
<path d="M65.1013 113.006H67.4463V110.492H65.1013V113.006Z" fill="#FAFAFA"/>
<path d="M61.0371 113.006H63.3821V110.492H61.0371V113.006Z" fill="#FAFAFA"/>
<path d="M65.1013 116.922H67.4463V114.408H65.1013V116.922Z" fill="#FAFAFA"/>
<path d="M61.0371 116.922H63.3821V114.408H61.0371V116.922Z" fill="#FAFAFA"/>
<path d="M65.1013 120.84H67.4463V118.326H65.1013V120.84Z" fill="#FAFAFA"/>
<path d="M61.0371 120.84H63.3821V118.326H61.0371V120.84Z" fill="#FAFAFA"/>
<path d="M65.1013 124.758H67.4463V122.244H65.1013V124.758Z" fill="#FAFAFA"/>
<path d="M61.0371 124.758H63.3821V122.244H61.0371V124.758Z" fill="#FAFAFA"/>
<path d="M7.83954 64.3986H10.1846V61.4367H7.83954V64.3986Z" fill="#FAFAFA"/>
<path d="M3.77509 64.3986H6.12012V61.4367H3.77509L3.77509 64.3986Z" fill="#FAFAFA"/>
<path d="M7.83954 68.8556H10.1846V65.894H7.83954V68.8556Z" fill="#FAFAFA"/>
<path d="M3.77509 68.8556H6.12012V65.894H3.77509L3.77509 68.8556Z" fill="#FAFAFA"/>
<path d="M7.83954 73.3112H10.1846V70.3497H7.83954V73.3112Z" fill="#FAFAFA"/>
<path d="M3.77509 73.3112H6.12012V70.3497H3.77509L3.77509 73.3112Z" fill="#FAFAFA"/>
<path d="M7.83954 77.7676H10.1846V74.8061H7.83954V77.7676Z" fill="#FAFAFA"/>
<path d="M3.77509 77.7676H6.12012V74.8061H3.77509L3.77509 77.7676Z" fill="#FAFAFA"/>
<path d="M7.83954 82.335H10.1846V79.373H7.83954V82.335Z" fill="#FAFAFA"/>
<path d="M3.77509 82.335H6.12012V79.373H3.77509L3.77509 82.335Z" fill="#FAFAFA"/>
<path d="M7.83954 86.9009H10.1846V83.9394H7.83954V86.9009Z" fill="#FAFAFA"/>
<path d="M3.77509 86.9009H6.12012V83.9394H3.77509L3.77509 86.9009Z" fill="#FAFAFA"/>
<path d="M7.83954 91.468H10.1846V88.5064H7.83954V91.468Z" fill="#FAFAFA"/>
<path d="M3.77509 91.468H6.12012V88.5064H3.77509L3.77509 91.468Z" fill="#FAFAFA"/>
<path d="M7.83954 96.0342H10.1846V93.0727H7.83954V96.0342Z" fill="#FAFAFA"/>
<path d="M3.77509 96.0342H6.12012V93.0727H3.77509L3.77509 96.0342Z" fill="#FAFAFA"/>
<path d="M7.83954 100.649H10.1846V97.6875H7.83954V100.649Z" fill="#FAFAFA"/>
<path d="M3.77509 100.649H6.12012V97.6875H3.77509L3.77509 100.649Z" fill="#FAFAFA"/>
<path d="M7.83954 105.265H10.1846V102.303H7.83954V105.265Z" fill="#FAFAFA"/>
<path d="M3.77509 105.265H6.12012V102.303H3.77509L3.77509 105.265Z" fill="#FAFAFA"/>
<path d="M7.83954 109.88H10.1846V106.918H7.83954V109.88Z" fill="#FAFAFA"/>
<path d="M3.77509 109.88H6.12012V106.918H3.77509L3.77509 109.88Z" fill="#FAFAFA"/>
<path d="M7.83954 114.495H10.1846V111.533H7.83954V114.495Z" fill="#FAFAFA"/>
<path d="M3.77509 114.495H6.12012V111.533H3.77509L3.77509 114.495Z" fill="#FAFAFA"/>
<path d="M56.41 86.1524H58.7546V83.6385H56.41V86.1524Z" fill="#FAFAFA"/>
<path d="M52.3452 86.1524H54.6902V83.6385H52.3452V86.1524Z" fill="#FAFAFA"/>
<path d="M56.41 82.274H58.7546V79.7601H56.41V82.274Z" fill="#FAFAFA"/>
<path d="M52.3452 82.274H54.6902V79.7601H52.3452V82.274Z" fill="#FAFAFA"/>
<path d="M56.41 78.3958H58.7546V75.8819H56.41V78.3958Z" fill="#FAFAFA"/>
<path d="M52.3452 78.3958H54.6902V75.8819H52.3452V78.3958Z" fill="#FAFAFA"/>
<path d="M56.41 89.9353H58.7546V87.4214H56.41V89.9353Z" fill="#FAFAFA"/>
<path d="M52.3452 89.9353H54.6902V87.4214H52.3452V89.9353Z" fill="#FAFAFA"/>
<path d="M56.41 93.7177H58.7546V91.2038H56.41V93.7177Z" fill="#FAFAFA"/>
<path d="M52.3452 93.7177H54.6902V91.2038H52.3452V93.7177Z" fill="#FAFAFA"/>
<path d="M56.41 97.5002H58.7546V94.9864H56.41V97.5002Z" fill="#FAFAFA"/>
<path d="M52.3452 97.5002H54.6902V94.9864H52.3452V97.5002Z" fill="#FAFAFA"/>
<path d="M56.41 101.376H58.7546V98.8622H56.41V101.376Z" fill="#FAFAFA"/>
<path d="M52.3452 101.376H54.6902V98.8622H52.3452V101.376Z" fill="#FAFAFA"/>
<path d="M56.41 105.252H58.7546V102.738H56.41V105.252Z" fill="#FAFAFA"/>
<path d="M52.3452 105.252H54.6902V102.738H52.3452V105.252Z" fill="#FAFAFA"/>
<path d="M56.41 109.129H58.7546V106.614H56.41V109.129Z" fill="#FAFAFA"/>
<path d="M52.3452 109.129H54.6902V106.614H52.3452V109.129Z" fill="#FAFAFA"/>
<path d="M56.41 113.006H58.7546V110.492H56.41V113.006Z" fill="#FAFAFA"/>
<path d="M52.3452 113.006H54.6902V110.492H52.3452V113.006Z" fill="#FAFAFA"/>
<path d="M56.41 116.922H58.7546V114.408H56.41V116.922Z" fill="#FAFAFA"/>
<path d="M52.3452 116.922H54.6902V114.408H52.3452V116.922Z" fill="#FAFAFA"/>
<path d="M56.41 120.84H58.7546V118.326H56.41V120.84Z" fill="#FAFAFA"/>
<path d="M52.3452 120.84H54.6902V118.326H52.3452V120.84Z" fill="#FAFAFA"/>
<path d="M56.41 124.758H58.7546V122.244H56.41V124.758Z" fill="#FAFAFA"/>
<path d="M52.3452 124.758H54.6902V122.244H52.3452V124.758Z" fill="#FAFAFA"/>
<path d="M83 160.186C128.534 160.186 165.446 156.529 165.446 152.018C165.446 147.507 128.534 143.85 83 143.85C37.4663 143.85 0.553955 147.507 0.553955 152.018C0.553955 156.529 37.4663 160.186 83 160.186Z" fill="#EBEBEB"/>
<path d="M165.576 128.199H0.424561V130.893H165.576V128.199Z" fill="#C7C7C7"/>
<path d="M12.0029 128.199C12.1577 128.648 12.1925 129.097 12.1993 129.546C12.1933 129.995 12.1589 130.444 12.0029 130.893C11.8474 130.444 11.8126 129.995 11.8066 129.546C11.8134 129.097 11.8482 128.648 12.0029 128.199Z" fill="#1D191F"/>
<path d="M24.9114 128.2C25.0662 128.649 25.101 129.098 25.1077 129.547C25.1018 129.995 25.0673 130.445 24.9114 130.893C24.7555 130.445 24.721 129.995 24.7151 129.547C24.7218 129.098 24.7566 128.649 24.9114 128.2Z" fill="#1D191F"/>
<path d="M37.8198 128.2C37.9746 128.649 38.0094 129.098 38.0162 129.547C38.0102 129.995 37.9754 130.445 37.8198 130.893C37.6639 130.445 37.6291 129.995 37.6235 129.547C37.6303 129.098 37.6651 128.649 37.8198 128.2Z" fill="#1D191F"/>
<path d="M50.7285 128.2C50.8833 128.649 50.9181 129.098 50.9248 129.547C50.9189 129.995 50.8845 130.445 50.7285 130.893C50.573 130.445 50.5382 129.995 50.5322 129.547C50.539 129.098 50.5738 128.649 50.7285 128.2Z" fill="#1D191F"/>
<path d="M63.637 128.2C63.7917 128.649 63.8266 129.098 63.8333 129.547C63.8278 129.995 63.7929 130.445 63.637 130.893C63.4814 130.445 63.4466 129.995 63.4407 129.547C63.4474 129.098 63.4822 128.649 63.637 128.2Z" fill="#1D191F"/>
<path d="M76.5454 128.2C76.7002 128.649 76.735 129.098 76.7417 129.547C76.7362 129.995 76.7014 130.445 76.5454 130.893C76.3899 130.445 76.3551 129.995 76.3491 129.547C76.3558 129.098 76.3907 128.649 76.5454 128.2Z" fill="#1D191F"/>
<path d="M89.4541 128.2C89.6089 128.649 89.6437 129.098 89.6504 129.547C89.6449 129.995 89.6097 130.445 89.4541 130.893C89.2986 130.445 89.2637 129.995 89.2578 129.547C89.2645 129.098 89.2994 128.649 89.4541 128.2Z" fill="#1D191F"/>
<path d="M102.363 128.2C102.517 128.649 102.552 129.098 102.559 129.547C102.553 129.995 102.518 130.445 102.363 130.893C102.207 130.445 102.172 129.995 102.166 129.547C102.173 129.098 102.208 128.649 102.363 128.2Z" fill="#1D191F"/>
<path d="M115.272 128.2C115.427 128.649 115.461 129.098 115.468 129.547C115.463 129.995 115.428 130.445 115.272 130.893C115.116 130.445 115.081 129.995 115.075 129.547C115.082 129.098 115.117 128.649 115.272 128.2Z" fill="#1D191F"/>
<path d="M128.18 128.2C128.335 128.649 128.37 129.098 128.376 129.547C128.371 129.995 128.336 130.445 128.18 130.893C128.025 130.445 127.99 129.995 127.984 129.547C127.99 129.098 128.025 128.649 128.18 128.2Z" fill="#1D191F"/>
<path d="M141.089 128.2C141.244 128.649 141.278 129.098 141.285 129.547C141.279 129.995 141.245 130.445 141.089 130.893C140.933 130.445 140.898 129.995 140.892 129.547C140.899 129.098 140.933 128.649 141.089 128.2Z" fill="#1D191F"/>
<path d="M153.997 128.2C154.152 128.649 154.187 129.098 154.194 129.547C154.188 129.995 154.153 130.445 153.997 130.893C153.841 130.445 153.807 129.995 153.801 129.547C153.808 129.098 153.842 128.649 153.997 128.2Z" fill="#1D191F"/>
<path d="M0.424561 130.894L21.0683 130.804L41.7125 130.771L83 130.709L124.288 130.771L144.932 130.803L165.576 130.894L144.932 130.985L124.288 131.017L83 131.079L41.7125 131.017L21.0683 130.984L0.424561 130.894Z" fill="#1D191F"/>
<path d="M150.554 103.949C152.727 99.7682 156.528 97.6213 160.812 98.8076C165.096 99.9939 165.759 105.588 162.561 107C159.363 108.412 156.166 104.288 154.476 103.441C152.787 102.593 150.554 103.949 150.554 103.949Z" fill="#5D80D9"/>
<path d="M148.452 115.079C148.463 114.574 148.484 114.071 148.503 113.567C148.541 112.561 148.577 111.554 148.617 110.548C148.69 108.708 148.902 106.901 149.716 105.204C150.446 103.683 151.629 102.35 153.161 101.486C153.732 101.164 154.342 100.917 154.973 100.754C155.502 100.198 156.331 99.8386 157.087 99.6666C158.077 99.4413 159.096 99.4906 160.1 99.5958C160.136 99.5996 160.135 99.6529 160.099 99.6488C159.147 99.5399 158.172 99.5936 157.248 99.839C156.852 99.9442 156.465 100.079 156.099 100.257C155.863 100.373 155.647 100.509 155.435 100.652C156.291 100.491 157.177 100.485 158.053 100.675C158.364 100.743 158.666 100.843 158.961 100.956C159.191 100.9 159.447 100.895 159.675 100.9C159.987 100.906 160.3 100.953 160.603 101.023C161.227 101.169 161.81 101.446 162.365 101.744C162.397 101.761 162.367 101.806 162.335 101.79C161.795 101.511 161.217 101.31 160.616 101.182C160.324 101.121 160.03 101.08 159.732 101.061C159.567 101.051 159.403 101.058 159.239 101.065C160.444 101.598 161.458 102.503 162.01 103.65C162.025 103.681 161.975 103.707 161.96 103.675C161.318 102.316 159.948 101.387 158.43 101.025C158.336 101.003 158.239 100.991 158.144 100.973C158.177 101.103 158.171 101.252 158.189 101.378C158.218 101.581 158.254 101.784 158.298 101.985C158.388 102.398 158.503 102.809 158.647 103.209C158.792 103.614 158.963 104.012 159.165 104.395C159.372 104.787 159.589 105.204 159.89 105.54C159.916 105.569 159.867 105.604 159.844 105.571C159.587 105.194 159.287 104.846 159.053 104.453C158.828 104.078 158.632 103.689 158.472 103.286C158.309 102.878 158.179 102.461 158.09 102.033C158.043 101.808 158.005 101.581 157.977 101.353C157.961 101.221 157.927 101.072 157.95 100.938C157.447 100.864 156.936 100.86 156.429 100.909C156.619 101.906 156.823 102.946 157.42 103.812C157.439 103.84 157.387 103.868 157.37 103.838C157.104 103.368 156.832 102.911 156.634 102.411C156.448 101.938 156.304 101.431 156.267 100.925C155.384 101.033 154.52 101.311 153.752 101.715C152.269 102.496 151.144 103.722 150.403 105.146C149.599 106.692 149.276 108.357 149.162 110.062C149.019 112.199 148.99 114.35 148.762 116.48C148.747 116.619 148.511 116.666 148.482 116.509C148.397 116.038 148.441 115.554 148.452 115.079Z" fill="#1D191F"/>
<path d="M153.472 101.15C153.592 100.984 153.801 100.851 153.965 100.724C154.143 100.586 154.325 100.453 154.517 100.331C154.897 100.09 155.307 99.9081 155.751 99.7954C155.786 99.7865 155.801 99.8399 155.765 99.8469C155.318 99.9374 154.912 100.156 154.547 100.408C154.365 100.532 154.191 100.666 154.021 100.805C153.864 100.933 153.707 101.107 153.523 101.201C153.49 101.217 153.45 101.18 153.472 101.15Z" fill="#1D191F"/>
<path d="M160.405 102.666C160.754 103.063 161.108 103.464 161.401 103.9C161.695 104.338 161.949 104.791 162.142 105.276C162.147 105.29 162.123 105.299 162.116 105.286C161.589 104.399 161.06 103.485 160.363 102.702C160.34 102.677 160.381 102.639 160.405 102.666Z" fill="#1D191F"/>
<path d="M155.731 102.252C155.778 102.513 155.859 102.768 155.977 103.008C156.091 103.242 156.239 103.465 156.39 103.679C156.4 103.693 156.377 103.707 156.365 103.696C155.979 103.311 155.764 102.781 155.676 102.265C155.671 102.231 155.725 102.218 155.731 102.252Z" fill="#1D191F"/>
<path d="M148.755 104.052C148.755 104.052 145.679 100.432 139.743 101.715C134.1 102.935 131.496 112.623 137.198 113.782C142.899 114.942 141.894 105.976 143.972 104.454C145.497 103.338 147.689 103.578 148.755 104.052Z" fill="#5D80D9"/>
<path d="M135.158 107.007C135.547 106.693 135.95 106.391 136.381 106.129C136.784 105.883 137.222 105.652 137.685 105.519C137.918 105.192 138.171 104.877 138.459 104.587C138.988 104.052 139.594 103.604 140.252 103.249C140.193 103.246 140.135 103.24 140.075 103.238C139.76 103.228 139.447 103.226 139.132 103.247C138.494 103.288 137.882 103.426 137.3 103.674C137.266 103.688 137.242 103.639 137.276 103.626C137.861 103.393 138.478 103.212 139.105 103.11C139.409 103.06 139.723 103.033 140.032 103.035C140.198 103.037 140.365 103.047 140.53 103.062C140.561 103.065 140.593 103.067 140.625 103.069C141.168 102.812 141.742 102.616 142.337 102.48C142.282 102.466 142.228 102.45 142.172 102.438C141.882 102.376 141.587 102.335 141.292 102.303C140.697 102.237 140.109 102.251 139.516 102.328C139.479 102.333 139.469 102.28 139.505 102.276C140.098 102.208 140.705 102.186 141.301 102.208C141.789 102.226 142.309 102.278 142.794 102.39C143.149 102.329 143.51 102.288 143.876 102.274C145.946 102.192 148.203 102.917 149.477 104.509C150.755 106.107 151.001 108.231 151.226 110.155C151.54 112.833 151.683 115.548 151.453 118.235C151.44 118.394 151.202 118.365 151.196 118.214C151.119 115.929 151.033 113.645 150.799 111.368C150.691 110.314 150.571 109.256 150.384 108.211C150.224 107.318 149.996 106.427 149.565 105.612C149.117 104.761 148.436 104.075 147.562 103.594C146.7 103.12 145.716 102.858 144.724 102.777C143.823 102.703 142.923 102.791 142.061 103.01C142.099 103.17 142.09 103.338 142.076 103.502C142.057 103.709 142.013 103.912 141.945 104.11C141.882 104.296 141.796 104.476 141.697 104.649C141.587 104.84 141.449 105.01 141.326 105.193C141.307 105.222 141.257 105.189 141.28 105.162C141.536 104.861 141.667 104.439 141.74 104.066C141.777 103.879 141.801 103.689 141.812 103.5C141.82 103.356 141.806 103.212 141.813 103.07C140.878 103.339 139.995 103.772 139.222 104.351C139.077 104.459 138.938 104.574 138.802 104.691C139.004 104.847 139.168 105.082 139.305 105.27C139.507 105.55 139.686 105.842 139.833 106.151C140.123 106.762 140.276 107.426 140.382 108.084C140.387 108.118 140.331 108.128 140.326 108.094C140.23 107.443 139.975 106.841 139.65 106.262C139.494 105.981 139.318 105.707 139.124 105.447C139.024 105.314 138.92 105.181 138.812 105.053C138.754 104.984 138.69 104.914 138.635 104.84C137.94 105.477 137.365 106.234 136.952 107.06C136.956 107.062 136.96 107.062 136.963 107.065C137.257 107.321 137.465 107.676 137.659 108.001C137.872 108.357 138.057 108.733 138.215 109.114C138.52 109.849 138.721 110.616 138.924 111.38C138.932 111.413 138.875 111.424 138.868 111.39C138.704 110.611 138.389 109.873 138.026 109.158C137.849 108.809 137.661 108.466 137.464 108.128C137.278 107.809 137.051 107.494 136.906 107.156C136.514 107.968 136.275 108.843 136.228 109.731C136.226 109.765 136.169 109.761 136.172 109.726C136.29 108.341 136.729 106.963 137.504 105.775C137.141 105.92 136.777 106.059 136.428 106.235C135.983 106.46 135.565 106.726 135.193 107.047C135.168 107.07 135.13 107.029 135.158 107.007Z" fill="#1D191F"/>
<path d="M139.511 107.212C139.689 107.761 139.913 108.294 140.074 108.848C140.228 109.381 140.335 109.929 140.336 110.483C140.336 110.498 140.311 110.499 140.308 110.484C140.134 109.385 139.877 108.27 139.458 107.228C139.443 107.193 139.499 107.175 139.511 107.212Z" fill="#1D191F"/>
<path d="M135.751 105.85C135.987 105.641 136.245 105.46 136.537 105.324C136.827 105.188 137.138 105.11 137.447 105.023C137.481 105.013 137.493 105.068 137.457 105.075C137.147 105.14 136.86 105.274 136.581 105.413C136.302 105.551 136.029 105.702 135.774 105.877C135.755 105.89 135.733 105.865 135.751 105.85Z" fill="#1D191F"/>
<path d="M145.831 99.218C145.831 99.218 145.264 92.7153 140.101 90.6072C135.79 88.8472 133.321 93.3835 136.369 96.1605C138.835 98.4068 142.789 97.3931 145.831 99.218Z" fill="#5D80D9"/>
<path d="M137.324 91.8664C138.106 92.1789 138.881 92.4883 139.62 92.8845C140.239 93.2162 140.832 93.5913 141.403 93.9926C141.317 93.8281 141.242 93.6561 141.156 93.4956C141.021 93.2447 140.877 92.9986 140.717 92.7607C140.389 92.2711 140.028 91.8127 139.58 91.4128C139.553 91.3891 139.595 91.3516 139.621 91.3761C140.047 91.7853 140.468 92.2122 140.818 92.681C140.995 92.9175 141.161 93.1628 141.309 93.4167C141.443 93.648 141.596 93.9048 141.655 94.1657C141.674 94.179 141.694 94.1909 141.712 94.2046C142.618 94.8728 143.436 95.6385 144.178 96.4639C144.164 96.3998 144.149 96.336 144.132 96.2775C144.035 95.9602 143.93 95.6456 143.819 95.3324C143.585 94.6742 143.296 94.0167 142.886 93.4356C142.867 93.4071 142.917 93.3807 142.936 93.41C143.327 94.013 143.718 94.6101 144.017 95.2598C144.16 95.5707 144.28 95.8939 144.373 96.2211C144.429 96.4157 144.519 96.6514 144.541 96.8745C144.766 97.141 144.987 97.4104 145.196 97.6884C147.412 100.643 148.525 104.217 148.792 107.792C148.871 108.859 148.887 109.927 148.849 110.996C148.811 112.065 148.769 113.159 148.547 114.211C148.533 114.278 148.42 114.258 148.422 114.192C148.448 113.253 148.552 112.317 148.571 111.377C148.59 110.435 148.555 109.492 148.474 108.553C148.313 106.683 147.934 104.814 147.348 103.02C146.75 101.185 145.865 99.4191 144.723 97.8177C144.506 97.7773 144.29 97.7221 144.076 97.6706C143.818 97.6083 143.56 97.5468 143.304 97.4793C142.811 97.35 142.322 97.2036 141.864 96.9849C141.832 96.9698 141.862 96.9223 141.894 96.9397C142.345 97.1866 142.845 97.3163 143.354 97.4112C143.758 97.4864 144.178 97.5357 144.583 97.6228C144.208 97.1121 143.809 96.6173 143.382 96.1455C142.402 96.2352 141.402 96.154 140.445 95.9402C139.935 95.8264 139.43 95.6782 138.942 95.5018C138.424 95.3153 137.935 95.0756 137.425 94.8758C137.386 94.861 137.413 94.808 137.447 94.828C138.323 95.3257 139.424 95.5811 140.425 95.7404C141.349 95.8876 142.276 95.9409 143.21 95.9558C142.843 95.5618 142.464 95.1778 142.06 94.8172C140.704 93.6079 139.093 92.4965 137.307 91.9172C137.273 91.9057 137.291 91.8531 137.324 91.8664Z" fill="#1D191F"/>
<path d="M141.526 91.8865C141.757 92.1607 141.973 92.4509 142.159 92.7533C142.356 93.0743 142.5 93.4078 142.614 93.7618C142.618 93.7733 142.599 93.7803 142.593 93.7696C142.421 93.4505 142.275 93.1199 142.101 92.8023C141.929 92.488 141.726 92.1956 141.485 91.9232C141.461 91.8965 141.503 91.8598 141.526 91.8865Z" fill="#1D191F"/>
<path d="M136.725 94.0516C137.06 94.2332 137.416 94.3544 137.783 94.4652C138.137 94.5723 138.496 94.6683 138.861 94.7361C138.878 94.7391 138.874 94.7665 138.856 94.7647C138.477 94.7228 138.102 94.6542 137.74 94.5356C137.381 94.4182 137.036 94.254 136.695 94.0965C136.663 94.082 136.693 94.0342 136.725 94.0516Z" fill="#1D191F"/>
<path d="M149.845 98.047C149.878 98.328 150.626 95.6862 154.992 93.3406C158.956 91.2107 163.688 85.6708 159.801 82.1708C156.663 79.346 148.397 85.5044 149.845 98.047Z" fill="#5D80D9"/>
<path d="M146.84 113.193C146.905 110.444 147.134 107.699 147.533 104.974C147.899 102.469 148.475 100.003 149.377 97.6175C149.702 96.7581 150.073 95.912 150.475 95.0792C150.433 94.7624 150.478 94.4129 150.493 94.1067C150.515 93.6905 150.555 93.2751 150.596 92.8604C150.637 92.4453 150.682 92.0302 150.735 91.6166C150.788 91.206 150.881 90.7898 150.9 90.3769C150.901 90.3387 150.965 90.3469 150.955 90.3851C150.849 90.809 150.834 91.2675 150.798 91.7011C150.765 92.1021 150.74 92.5031 150.727 92.9052C150.714 93.3077 150.716 93.7098 150.716 94.1123C150.716 94.2576 150.724 94.4114 150.73 94.5663C151.141 93.7539 151.581 92.9545 152.057 92.1755C151.761 90.4807 152.145 88.7091 152.515 87.0518C152.522 87.0184 152.577 87.034 152.569 87.0673C152.376 87.9305 152.302 88.8137 152.281 89.6942C152.264 90.3902 152.299 91.0863 152.302 91.7819C152.407 91.6151 152.511 91.448 152.618 91.2834C153.184 90.4177 153.789 89.5697 154.432 88.7462C154.362 88.3504 154.412 87.9309 154.474 87.5391C154.544 87.094 154.652 86.6497 154.791 86.219C154.93 85.7858 155.09 85.361 155.274 84.9426C155.463 84.5127 155.715 84.1061 155.897 83.6748C155.913 83.6388 155.97 83.6636 155.949 83.6963C155.701 84.0839 155.549 84.5501 155.402 84.9786C155.259 85.3948 155.137 85.8217 155.045 86.2501C154.953 86.6804 154.877 87.1118 154.813 87.5465C154.77 87.8341 154.743 88.1321 154.69 88.4227C155.629 87.2486 156.645 86.1278 157.747 85.0916C157.773 85.0671 157.81 85.1049 157.786 85.1301C156.129 86.8931 154.629 88.7621 153.347 90.7835C153.3 90.8587 153.254 90.9354 153.207 91.011C153.448 90.8698 153.724 90.7579 153.95 90.64C154.373 90.4199 154.797 90.2009 155.223 89.9855C155.637 89.7765 156.049 89.5653 156.46 89.3518C156.672 89.2417 156.88 89.1276 157.096 89.0242C157.34 88.9071 157.615 88.7948 157.835 88.6402C157.869 88.6169 157.904 88.6643 157.869 88.6828C157.449 88.8989 157.077 89.2206 156.671 89.463C156.262 89.7072 155.848 89.9414 155.425 90.1631C154.649 90.5685 153.806 90.8602 153.042 91.2793C152.512 92.1477 152.024 93.0394 151.573 93.947C152.037 93.6687 152.51 93.4048 152.991 93.152C153.3 92.9897 153.61 92.83 153.924 92.6754C154.227 92.5261 154.542 92.3878 154.803 92.1781C154.831 92.1558 154.869 92.1925 154.842 92.2166C154.348 92.6695 153.758 92.9849 153.165 93.3096C152.604 93.6164 152.037 93.9125 151.454 94.1805C150.987 95.1382 150.565 96.1143 150.191 97.1057C148.354 101.977 147.679 107.149 147.356 112.286C147.26 113.818 147.21 115.348 147.19 116.882C147.17 118.413 147.256 119.942 147.253 121.473C147.253 121.519 147.173 121.529 147.166 121.482C146.97 120.124 146.935 118.743 146.872 117.376C146.808 115.984 146.807 114.585 146.84 113.193Z" fill="#1D191F"/>
<path d="M154.771 91.138C155.573 90.8297 156.337 90.4138 157.091 90.0147C157.849 89.6129 158.585 89.1804 159.293 88.7053C159.305 88.6975 159.32 88.716 159.308 88.7246C158.638 89.2279 157.933 89.6982 157.193 90.1095C156.426 90.5365 155.615 90.8515 154.799 91.1847C154.765 91.198 154.738 91.1506 154.771 91.138Z" fill="#1D191F"/>
<path d="M153.507 85.6306C153.571 85.393 153.651 85.1596 153.737 84.9276C153.727 84.922 153.721 84.9131 153.726 84.9005C153.781 84.7686 153.839 84.6381 153.896 84.5073C153.903 84.4895 153.91 84.4728 153.917 84.4602C153.928 84.435 153.939 84.4102 153.949 84.385C153.953 84.3768 153.967 84.3805 153.964 84.3891C153.948 84.4339 153.936 84.4799 153.921 84.5247C153.913 84.5503 153.909 84.5736 153.897 84.5999C153.6 85.5072 153.403 86.4378 153.25 87.3754C153.245 87.4047 153.197 87.4058 153.199 87.3743C153.237 86.7843 153.351 86.2028 153.507 85.6306Z" fill="#1D191F"/>
<path d="M142.228 114.181L142.539 117.638L143.492 128.183H153.707L154.661 117.638L154.972 114.181H142.228Z" fill="#1E397D"/>
<path d="M142.228 114.181L142.539 117.638H154.661L154.972 114.181H142.228Z" fill="#1D191F"/>
<path d="M141.226 116.111H155.975V112.794H141.226V116.111Z" fill="#1E397D"/>
<path d="M127.487 144.213H38.5807C36.3493 144.213 34.5405 142.52 34.5405 140.43V12.1823C34.5405 10.0927 36.3493 8.39905 38.5807 8.39905H127.487C129.719 8.39905 131.527 10.0927 131.527 12.1823V140.431C131.527 142.52 129.719 144.213 127.487 144.213Z" fill="#1E397D"/>
<path d="M127.433 17.989H38.6853V134.889H127.433V17.989Z" fill="#FAFAFA"/>
<path d="M72.4417 14.2419V13.756C72.4417 13.4999 72.6633 13.2928 72.9364 13.2928H93.0672C93.3407 13.2928 93.562 13.5003 93.562 13.756V14.2419C93.562 14.498 93.3403 14.7052 93.0672 14.7052H72.9364C72.6633 14.7052 72.4417 14.498 72.4417 14.2419Z" fill="#1E397D"/>
<path d="M83.0021 142.566C81.4933 142.566 80.2708 141.421 80.2708 140.008C80.2708 138.596 81.4937 137.451 83.0021 137.451C84.5108 137.451 85.7338 138.596 85.7338 140.008C85.7338 141.421 84.5108 142.566 83.0021 142.566Z" fill="#1E397D"/>
<path opacity="0.6" d="M52.3286 121.992C52.3286 123.185 51.2956 124.152 50.022 124.152C48.7479 124.152 47.7153 123.185 47.7153 121.992C47.7153 120.799 48.7479 119.832 50.022 119.832C51.2956 119.832 52.3286 120.799 52.3286 121.992Z" fill="#5D80D9"/>
<path opacity="0.6" d="M55.1343 117.867C55.1343 118.448 54.6309 118.919 54.0103 118.919C53.3893 118.919 52.8862 118.448 52.8862 117.867C52.8862 117.285 53.3897 116.814 54.0103 116.814C54.6309 116.814 55.1343 117.285 55.1343 117.867Z" fill="#5D80D9"/>
<path opacity="0.6" d="M104.482 120.948C104.482 121.529 103.979 122 103.358 122C102.737 122 102.234 121.529 102.234 120.948C102.234 120.367 102.737 119.895 103.358 119.895C103.979 119.895 104.482 120.366 104.482 120.948Z" fill="#5D80D9"/>
<path opacity="0.6" d="M126.993 130.558C126.993 131.139 126.49 131.61 125.869 131.61C125.249 131.61 124.745 131.139 124.745 130.558C124.745 129.976 125.249 129.505 125.869 129.505C126.49 129.505 126.993 129.976 126.993 130.558Z" fill="#5D80D9"/>
<path opacity="0.6" d="M125.269 133.634C125.269 134.327 124.669 134.889 123.929 134.889H40.3521C39.6124 134.889 39.012 134.327 39.012 133.634C39.012 132.941 39.6124 132.379 40.3521 132.379C40.4621 132.379 40.5694 132.392 40.6711 132.414C40.6711 131.047 41.8529 129.94 43.3138 129.94C44.0535 129.94 44.7208 130.226 45.2032 130.685L45.2274 130.675C45.2112 130.522 45.2032 130.369 45.2032 130.213C45.2032 127.634 47.4359 125.54 50.1937 125.54C50.9817 125.54 51.727 125.711 52.3887 126.017C52.496 124.265 54.0451 122.878 55.9425 122.878C57.4568 122.878 58.7486 123.758 59.2631 125.003C60.1449 123.691 61.7075 122.82 63.4873 122.82C63.8143 122.82 64.1333 122.85 64.4416 122.905C64.3747 122.551 64.3399 122.187 64.3399 121.816C64.3399 118.322 67.3633 115.491 71.0939 115.491C72.7772 115.491 74.3184 116.069 75.5002 117.025C75.7227 116.621 76.1731 116.345 76.6903 116.345C76.8728 116.345 77.047 116.38 77.2049 116.44L78.4591 69.5076H85.8215L87.0758 116.44C87.2341 116.38 87.4082 116.345 87.5903 116.345C88.1076 116.345 88.558 116.621 88.7804 117.025C89.9626 116.069 91.5034 115.491 93.1867 115.491C96.9178 115.491 99.9408 118.322 99.9408 121.816C99.9408 122.187 99.9059 122.551 99.8391 122.905C100.147 122.85 100.466 122.82 100.793 122.82C102.573 122.82 104.136 123.691 105.018 125.003C105.532 123.758 106.824 122.878 108.338 122.878C110.236 122.878 111.785 124.265 111.892 126.017C112.554 125.711 113.299 125.54 114.087 125.54C116.845 125.54 119.077 127.634 119.077 130.213C119.077 130.369 119.069 130.522 119.053 130.675L119.077 130.685C119.56 130.226 120.227 129.94 120.967 129.94C122.428 129.94 123.61 131.047 123.61 132.414C123.711 132.392 123.819 132.379 123.929 132.379C124.669 132.379 125.269 132.941 125.269 133.634Z" fill="#5D80D9"/>
<path d="M68.8181 39.7401L54.7725 54.0842C54.7725 54.0842 68.8327 84.1924 68.8185 84.3984L66.8194 59.3158L71.1635 55.1171L68.8181 39.7401Z" fill="#5D80D9"/>
<path opacity="0.1" d="M68.8181 39.7401L54.7725 54.0842C54.7725 54.0842 68.8327 84.1924 68.8185 84.3984L66.8194 59.3158L71.1635 55.1171L68.8181 39.7401Z" fill="#1D191F"/>
<path opacity="0.1" d="M71.1628 55.1158L68.1964 57.9869L62.5818 46.1066L68.8178 39.7399L71.1628 55.1158Z" fill="#1D191F"/>
<path d="M95.5657 39.7401L109.612 54.0842C109.612 54.0842 95.5515 84.1924 95.5657 84.3984L97.5648 59.3158L93.2207 55.1171L95.5657 39.7401Z" fill="#5D80D9"/>
<path opacity="0.1" d="M95.5657 39.7401L109.612 54.0842C109.612 54.0842 95.5515 84.1924 95.5657 84.3984L97.5648 59.3158L93.2207 55.1171L95.5657 39.7401Z" fill="#1D191F"/>
<path opacity="0.1" d="M93.2209 55.1157L96.1878 57.9869L101.802 46.1065L95.5664 39.7398L93.2209 55.1157Z" fill="#1D191F"/>
<path d="M90.3164 64.9301L74.0279 64.919C74.0279 64.919 66.3544 52.0702 67.2627 36.7517C67.721 29.1064 69.8551 21.4069 72.4241 15.0372C75.9585 6.23888 80.3288 -0.00148218 82.2222 2.64069e-07C84.1244 0.0011121 88.4764 6.2474 92.0056 15.0505C94.5561 21.4236 96.6787 29.1256 97.1251 36.7717C98.0101 52.0917 90.3164 64.9301 90.3164 64.9301Z" fill="#EBEBEB"/>
<path opacity="0.2" d="M91.9443 34.7894C91.9408 39.647 87.732 43.5822 82.5444 43.5788C77.3569 43.5751 73.154 39.6344 73.158 34.7768C73.1619 29.9192 77.3703 25.984 82.5579 25.9874C87.7454 25.9907 91.9479 29.9314 91.9443 34.7894Z" fill="#1D191F"/>
<path d="M91.6111 33.8939C91.6075 38.7515 87.3987 42.6866 82.2112 42.6833C77.0236 42.6796 72.8211 38.7389 72.8247 33.8813C72.8283 29.0237 77.0371 25.0885 82.2246 25.0918C87.4122 25.0952 91.6146 29.0359 91.6111 33.8939Z" fill="#5D80D9"/>
<path opacity="0.1" d="M91.6111 33.8939C91.6075 38.7515 87.3987 42.6866 82.2112 42.6833C77.0236 42.6796 72.8211 38.7389 72.8247 33.8813C72.8283 29.0237 77.0371 25.0885 82.2246 25.0918C87.4122 25.0952 91.6146 29.0359 91.6111 33.8939Z" fill="#1D191F"/>
<path d="M88.7324 33.8874C88.7324 37.2567 85.8158 39.9877 82.2178 39.9877C78.6197 39.9877 75.7031 37.2567 75.7031 33.8874C75.7031 30.5182 78.6201 27.7872 82.2178 27.7872C85.8158 27.7872 88.7324 30.5182 88.7324 33.8874Z" fill="#1E397D"/>
<g opacity="0.4">
<path d="M88.7338 33.8866C88.7338 34.6652 88.5783 35.4124 88.2929 36.0969L84.5801 39.5736C83.8495 39.8408 83.0515 39.9865 82.2196 39.9865C81.6148 39.9865 81.0311 39.9079 80.4766 39.7622L88.494 32.2548C88.6499 32.7736 88.7338 33.3203 88.7338 33.8866Z" fill="#FAFAFA"/>
<path d="M83.1745 27.8537L75.7745 34.7831C75.7278 34.4918 75.7029 34.1916 75.7029 33.8884C75.7029 30.5169 78.6186 27.7867 82.2191 27.7867C82.5428 27.7867 82.8634 27.81 83.1745 27.8537Z" fill="#FAFAFA"/>
<path d="M87.9189 30.9331L79.0656 39.2233C78.8934 39.137 78.7295 39.0425 78.5657 38.9361L87.6121 30.465C87.7218 30.6148 87.8223 30.7719 87.9189 30.9331Z" fill="#FAFAFA"/>
</g>
<path d="M92.0056 15.0508L72.4241 15.0375C75.9584 6.23915 80.3287 -0.00120753 82.2221 0.000274922C84.1243 0.00175737 88.4763 6.24768 92.0056 15.0508Z" fill="#5D80D9"/>
<g opacity="0.1">
<path d="M75.7963 13.1461C75.7963 13.4297 75.5505 13.6594 75.2477 13.6591C74.9449 13.6587 74.6996 13.4289 74.7 13.145C74.7003 12.8615 74.9457 12.6317 75.2485 12.6321C75.5513 12.6325 75.7967 12.8626 75.7963 13.1461Z" fill="#1D191F"/>
<path d="M79.2797 13.1479C79.2797 13.4315 79.0339 13.6612 78.7311 13.6609C78.4283 13.6605 78.183 13.4307 78.1834 13.1472C78.1837 12.8637 78.4291 12.6339 78.7319 12.6343C79.0347 12.6346 79.2801 12.8644 79.2797 13.1479Z" fill="#1D191F"/>
<path d="M82.7633 13.1506C82.7629 13.4341 82.5175 13.6639 82.2148 13.6635C81.912 13.6635 81.6666 13.4334 81.667 13.1499C81.6674 12.8663 81.9128 12.6366 82.2156 12.6369C82.5183 12.6369 82.7633 12.8667 82.7633 13.1506Z" fill="#1D191F"/>
<path d="M86.2467 13.1528C86.2467 13.4363 86.0009 13.6661 85.6982 13.6657C85.3954 13.6654 85.15 13.4356 85.1504 13.1521C85.1508 12.8685 85.3962 12.6388 85.699 12.6388C86.0017 12.6391 86.2471 12.8693 86.2467 13.1528Z" fill="#1D191F"/>
<path d="M89.7299 13.1547C89.7299 13.4382 89.4841 13.668 89.1813 13.6676C88.8785 13.6672 88.6331 13.4374 88.6335 13.1536C88.6335 12.87 88.8793 12.6403 89.1821 12.6406C89.4849 12.641 89.7303 12.8711 89.7299 13.1547Z" fill="#1D191F"/>
</g>
<path d="M75.7736 62.5737C75.7736 62.8572 75.5278 63.087 75.225 63.087C74.9222 63.0866 74.6769 62.8568 74.6772 62.5729C74.6776 62.2894 74.923 62.0596 75.2258 62.06C75.5282 62.06 75.7736 62.2901 75.7736 62.5737Z" fill="#5D80D9"/>
<path d="M79.2567 62.5758C79.2563 62.8594 79.0109 63.0891 78.7082 63.0888C78.4054 63.0888 78.16 62.8586 78.1604 62.5751C78.1608 62.2916 78.4062 62.0618 78.709 62.0618C79.0117 62.0622 79.2571 62.2923 79.2567 62.5758Z" fill="#5D80D9"/>
<path d="M82.7401 62.5781C82.7397 62.8616 82.4943 63.0914 82.1916 63.0914C81.8888 63.091 81.6434 62.8613 81.6438 62.5774C81.6442 62.2939 81.8896 62.0641 82.1924 62.0645C82.4951 62.0648 82.7405 62.2946 82.7401 62.5781Z" fill="#5D80D9"/>
<path d="M86.2235 62.5808C86.2235 62.8643 85.9777 63.0941 85.675 63.0937C85.3722 63.0937 85.1268 62.8636 85.1272 62.58C85.1276 62.2965 85.373 62.0667 85.6758 62.0671C85.9785 62.0671 86.2239 62.2973 86.2235 62.5808Z" fill="#5D80D9"/>
<path d="M89.7072 62.5832C89.7068 62.8667 89.4614 63.0965 89.1586 63.0961C88.8558 63.0961 88.6104 62.8659 88.6108 62.5824C88.6112 62.2989 88.8566 62.0691 89.1594 62.0695C89.4622 62.0695 89.7072 62.2996 89.7072 62.5832Z" fill="#5D80D9"/>
<path d="M88.8136 69.5153L75.5671 69.5053L74.9485 64.9209L89.4394 64.9309L88.8136 69.5153Z" fill="#5D80D9"/>
<path opacity="0.1" d="M88.8136 69.5153L75.5671 69.5053L74.9485 64.9209L89.4394 64.9309L88.8136 69.5153Z" fill="#1D191F"/>
<path opacity="0.1" d="M89.4386 64.9309L89.1323 67.1634L75.1852 66.6739L74.9497 64.9216L89.4386 64.9309Z" fill="#1D191F"/>
<path d="M102.91 123.945L101.268 124.23L100.901 125.85L100.534 124.23L98.8931 123.945L100.528 123.571L100.901 122.04L101.275 123.571L102.91 123.945Z" fill="#FCFCFC"/>
<path d="M86.9428 110.951L85.301 111.235L84.9341 112.855L84.5673 111.235L82.9255 110.95L84.5601 110.576L84.9341 109.045L85.3082 110.576L86.9428 110.951Z" fill="#FCFCFC"/>
<path d="M81.4472 72.4118L79.8055 72.696L79.4386 74.3164L79.0717 72.696L77.4304 72.411L79.065 72.0371L79.4386 70.5065L79.8127 72.0371L81.4472 72.4118Z" fill="#FCFCFC"/>
<path d="M63.0857 127.032L62.1683 127.191L61.9633 128.096L61.7583 127.191L60.8408 127.031L61.7543 126.822L61.9633 125.966L62.1722 126.822L63.0857 127.032Z" fill="#FCFCFC"/>
<path d="M112.455 129.733L111.538 129.892L111.333 130.797L111.127 129.892L110.21 129.733L111.124 129.524L111.333 128.668L111.542 129.524L112.455 129.733Z" fill="#FCFCFC"/>
<path d="M50.458 132.907L49.5406 133.066L49.3356 133.972L49.1306 133.066L48.2131 132.907L49.1266 132.698L49.3356 131.843L49.5446 132.698L50.458 132.907Z" fill="#FCFCFC"/>
<path d="M90.3703 132.154L89.4529 132.313L89.2478 133.219L89.0428 132.313L88.125 132.154L89.0389 131.945L89.2478 131.089L89.4568 131.945L90.3703 132.154Z" fill="#FCFCFC"/>
<path d="M83.6526 108.487L82.7352 108.646L82.5302 109.552L82.3251 108.646L81.4077 108.486L82.3212 108.277L82.5302 107.422L82.7391 108.277L83.6526 108.487Z" fill="#FCFCFC"/>
<path d="M86.1178 85.035L85.2004 85.1939L84.9954 86.0997L84.79 85.1939L83.8726 85.0346L84.7864 84.8256L84.9954 83.9702L85.2044 84.8256L86.1178 85.035Z" fill="#FCFCFC"/>
<path d="M114.626 131.692C114.283 131.692 114.283 132.19 114.626 132.19C114.968 132.19 114.968 131.692 114.626 131.692Z" fill="#FCFCFC"/>
<path d="M80.1016 105.345C79.7593 105.345 79.7589 105.844 80.1016 105.844C80.444 105.844 80.4448 105.345 80.1016 105.345Z" fill="#FCFCFC"/>
<path d="M84.5316 74.0674C84.1892 74.0674 84.1888 74.5655 84.5316 74.5655C84.8739 74.5655 84.8743 74.0674 84.5316 74.0674Z" fill="#FCFCFC"/>
<path d="M57.41 132.907C57.0676 132.907 57.0672 133.405 57.41 133.405C57.7519 133.405 57.7527 132.907 57.41 132.907Z" fill="#FCFCFC"/>
<path d="M74.2664 129.483C73.9241 129.483 73.9237 129.981 74.2664 129.981C74.6088 129.981 74.6096 129.483 74.2664 129.483Z" fill="#FCFCFC"/>
<path d="M107.963 127.212C107.721 127.212 107.72 127.565 107.963 127.565C108.205 127.565 108.205 127.212 107.963 127.212Z" fill="#FCFCFC"/>
<path d="M84.7133 124.572C84.4711 124.572 84.4707 124.924 84.7133 124.924C84.9555 124.924 84.9559 124.572 84.7133 124.572Z" fill="#FCFCFC"/>
<path d="M81.4076 79.8772C81.1654 79.8772 81.165 80.2296 81.4076 80.2296C81.6495 80.2296 81.6499 79.8772 81.4076 79.8772Z" fill="#FCFCFC"/>
<path d="M67.694 121.128C67.4518 121.128 67.4514 121.481 67.694 121.481C67.9358 121.481 67.9362 121.128 67.694 121.128Z" fill="#FCFCFC"/>
<path d="M96.8117 121.847C96.1555 121.847 96.1543 122.802 96.8117 122.802C97.4679 122.802 97.4687 121.847 96.8117 121.847Z" fill="#FCFCFC"/>
<path d="M70.1037 119.508C69.4475 119.508 69.4463 120.463 70.1037 120.463C70.7599 120.463 70.7607 119.508 70.1037 119.508Z" fill="#FCFCFC"/>
<path d="M82.5302 90.6866C81.874 90.6866 81.8728 91.6417 82.5302 91.6417C83.1864 91.6417 83.1876 90.6866 82.5302 90.6866Z" fill="#FCFCFC"/>
<path d="M100.326 111.386H65.6797V121.389H100.326V111.386Z" fill="#1E397D"/>
<path d="M75.4867 115.213C75.4424 115.167 75.3783 115.118 75.294 115.066C75.2097 115.014 75.1115 114.966 74.9983 114.92C74.8855 114.874 74.7617 114.837 74.6267 114.808C74.4917 114.779 74.3532 114.765 74.2119 114.765C73.8977 114.765 73.6661 114.818 73.5181 114.926C73.3697 115.034 73.2957 115.183 73.2957 115.374C73.2957 115.482 73.319 115.57 73.3653 115.638C73.4116 115.706 73.4837 115.767 73.581 115.818C73.6784 115.87 73.8003 115.916 73.9463 115.955C74.0924 115.995 74.2626 116.037 74.4577 116.082C74.6968 116.136 74.9124 116.197 75.1052 116.263C75.2975 116.329 75.4602 116.41 75.5932 116.506C75.7258 116.601 75.8287 116.718 75.9019 116.857C75.9751 116.996 76.0115 117.165 76.0115 117.364C76.0115 117.588 75.966 117.78 75.8754 117.942C75.7848 118.103 75.6609 118.235 75.5038 118.336C75.3466 118.438 75.1642 118.513 74.956 118.56C74.7478 118.608 74.5242 118.632 74.2851 118.632C73.9266 118.632 73.5802 118.581 73.2462 118.479C72.9118 118.377 72.6098 118.23 72.3398 118.034L72.6782 117.438C72.7356 117.492 72.8187 117.552 72.9272 117.618C73.0356 117.685 73.1619 117.745 73.3056 117.802C73.4492 117.858 73.6052 117.905 73.7738 117.944C73.942 117.984 74.1169 118.003 74.2982 118.003C74.5903 118.003 74.8159 117.956 74.9754 117.861C75.1349 117.765 75.2144 117.625 75.2144 117.438C75.2144 117.326 75.1848 117.233 75.1246 117.158C75.0648 117.084 74.9797 117.018 74.8689 116.962C74.7581 116.906 74.6231 116.856 74.464 116.81C74.3045 116.764 74.1233 116.717 73.9194 116.667C73.6847 116.609 73.4801 116.548 73.3052 116.483C73.1302 116.419 72.9854 116.341 72.8702 116.25C72.755 116.159 72.668 116.052 72.6078 115.93C72.548 115.808 72.5183 115.66 72.5183 115.485C72.5183 115.27 72.5627 115.078 72.6509 114.911C72.7392 114.743 72.8599 114.602 73.0127 114.488C73.1655 114.374 73.3455 114.288 73.5537 114.23C73.7615 114.172 73.9875 114.143 74.2309 114.143C74.5495 114.143 74.844 114.19 75.1139 114.285C75.3838 114.381 75.6205 114.499 75.8243 114.64L75.4867 115.213Z" fill="#FAFAFA"/>
<path d="M80.4462 114.79H78.8793V118.589H78.1293V114.79H76.5557V114.175H80.4466V114.79H80.4462Z" fill="#FAFAFA"/>
<path d="M82.2657 114.174H82.9164L84.7754 118.588H83.9921L83.4942 117.388H81.6752L81.184 118.588H80.394L82.2657 114.174ZM83.3478 116.872L82.5907 114.976L81.8074 116.872H83.3478Z" fill="#FAFAFA"/>
<path d="M85.6248 118.589V114.175H87.6765C87.8887 114.175 88.085 114.216 88.2639 114.299C88.4431 114.382 88.5967 114.491 88.7253 114.625C88.8536 114.76 88.9545 114.913 89.0273 115.085C89.1002 115.257 89.137 115.432 89.137 115.61C89.137 115.76 89.1144 115.902 89.0705 116.039C89.0261 116.176 88.964 116.303 88.8845 116.418C88.8053 116.534 88.7075 116.635 88.5924 116.72C88.4772 116.805 88.3513 116.868 88.214 116.909L89.323 118.588H88.4796L87.4572 117.053H86.368V118.588H85.6248V118.589ZM86.3684 116.437H87.6698C87.7763 116.437 87.8724 116.415 87.9587 116.372C88.0446 116.329 88.1186 116.269 88.1807 116.191C88.2425 116.115 88.2912 116.027 88.3268 115.928C88.362 115.828 88.3798 115.722 88.3798 115.61C88.3798 115.498 88.3588 115.393 88.3169 115.293C88.2745 115.194 88.2195 115.107 88.1507 115.032C88.0822 114.958 88.0022 114.898 87.9116 114.855C87.821 114.812 87.7268 114.79 87.6298 114.79H86.368V116.437H86.3684Z" fill="#FAFAFA"/>
<path d="M93.665 114.79H92.0981V118.589H91.3477V114.79H89.7744V114.175H93.665V114.79Z" fill="#FAFAFA"/>
<path d="M98.8619 122.209H67.1433L65.6797 121.389H100.326L98.8619 122.209Z" fill="#1D191F"/>
<path d="M154.383 150.71C154.45 151.533 151.938 151.769 150.889 151.237C150.556 151.067 149.615 150.323 148.47 149.376C145.951 147.29 142.468 144.237 142.468 144.237L139.887 145.323L127.282 149.253L121.965 136.373C121.965 136.373 128.065 133.957 133.864 131.793C134.755 131.461 135.635 131.14 136.49 130.828C136.543 130.808 136.596 130.789 136.649 130.769C140.54 129.367 143.765 128.306 144.095 128.525C144.986 129.105 154.317 149.881 154.383 150.71Z" fill="#C8D4F2"/>
<path d="M154.384 150.708C154.451 151.535 151.938 151.768 150.889 151.238C150.557 151.068 149.615 150.323 148.471 149.374C145.95 147.291 142.467 144.237 142.467 144.237L139.886 145.323L139.467 145.453L133.677 131.863C133.74 131.837 133.799 131.815 133.863 131.792C134.757 131.462 135.636 131.14 136.491 130.829C136.542 130.807 136.597 130.788 136.649 130.769C140.539 129.369 143.765 128.305 144.098 128.524C144.988 129.105 154.317 149.882 154.384 150.708Z" fill="#EBEBEB"/>
<path d="M154.607 151.013C154.552 150.169 145.334 128.905 144.433 128.305C144.095 128.071 140.708 129.148 136.655 130.56C136.613 130.575 136.571 130.59 136.529 130.605L142.313 144.386L142.559 144.287C142.559 144.287 149.976 150.948 151.04 151.511C152.099 152.067 154.666 151.857 154.607 151.013Z" fill="#5D80D9"/>
<path d="M153.622 151.107C151.974 147.558 145.685 133.099 144.344 129.474C144.333 129.444 144.354 129.436 144.368 129.465C146.083 132.949 152.247 147.455 153.685 151.083C153.715 151.16 153.657 151.182 153.622 151.107Z" fill="#1D191F"/>
<path d="M143.016 145.897C142.124 144.593 141.607 142.78 142.213 141.294C142.236 141.237 142.323 141.269 142.328 141.32C142.462 142.89 142.725 144.303 143.204 145.819C143.238 145.926 143.081 145.99 143.016 145.897Z" fill="#1D191F"/>
<path d="M144.113 146.665C143.22 145.362 142.704 143.549 143.31 142.063C143.333 142.005 143.42 142.037 143.424 142.089C143.559 143.659 143.822 145.073 144.301 146.587C144.335 146.694 144.177 146.759 144.113 146.665Z" fill="#1D191F"/>
<path d="M145.21 147.435C144.317 146.131 143.8 144.318 144.406 142.833C144.43 142.775 144.517 142.807 144.521 142.859C144.656 144.428 144.919 145.842 145.397 147.357C145.431 147.464 145.274 147.528 145.21 147.435Z" fill="#1D191F"/>
<path d="M142.397 147.532C142.793 146.22 142.569 144.792 142.524 143.453C142.52 143.314 142.357 143.264 142.24 143.303C142.226 143.281 142.199 143.269 142.172 143.29C141.08 144.153 140.105 145.495 139.663 146.774C139.39 147.564 139.47 148.736 140.526 148.98C141.525 149.211 142.166 148.298 142.397 147.532ZM141.341 148.352C139.796 149.229 139.943 147.238 140.169 146.663C140.315 146.294 140.511 145.934 140.708 145.587C141.122 144.861 141.638 144.203 142.125 143.522C142.104 144.182 142.143 144.837 142.148 145.497C142.153 146.283 142.193 147.868 141.341 148.352Z" fill="#1D191F"/>
<path d="M137.835 139.453C137.043 140.152 137.587 141.209 138.239 141.772C139.295 142.683 140.848 143.404 142.252 143.654C142.286 143.659 142.304 143.637 142.305 143.611C142.427 143.592 142.543 143.473 142.474 143.35C141.81 142.163 141.258 140.816 140.224 139.854C139.621 139.293 138.584 138.793 137.835 139.453ZM141.074 141.742C141.416 142.319 141.725 142.908 142.09 143.473C141.308 143.104 140.514 142.768 139.772 142.325C139.419 142.114 139.06 141.891 138.739 141.636C138.241 141.239 137.069 139.572 138.874 139.626C139.869 139.655 140.667 141.055 141.074 141.742Z" fill="#1D191F"/>
<path opacity="0.1" d="M154.605 151.012C154.665 151.857 152.1 152.068 151.039 151.508C149.975 150.945 142.558 144.285 142.558 144.285L142.312 144.385L137.741 133.493L146.745 132.733C149.761 139.171 154.57 150.404 154.605 151.012Z" fill="#1D191F"/>
<path d="M137.594 147.706C137.594 147.706 110.192 153.598 100.112 151.897C95.2875 151.082 91.8054 145.27 94.1239 140.817C96.2877 136.663 109.514 132.446 113.251 130.002C114.429 129.237 114.303 126.2 114.303 126.2L124.12 126.076C124.12 126.076 127.619 131.282 126.136 133.816C126.114 133.86 126.086 133.898 126.052 133.942L130.481 132.365L137.594 147.706Z" fill="#1E397D"/>
<path d="M131.527 140.767C130.436 138.545 129.236 136.372 128.125 134.159C128.104 134.117 128.031 134.14 128.051 134.184C129.1 136.414 130.069 138.676 131.16 140.89C132.255 143.112 133.435 145.29 134.581 147.488C134.61 147.544 134.709 147.514 134.681 147.455C133.623 145.228 132.615 142.982 131.527 140.767Z" fill="#1D191F"/>
<path d="M126.117 134.049C125.441 134.417 124.795 134.846 124.138 135.243C123.489 135.635 122.837 136.022 122.174 136.392C120.835 137.138 119.463 137.836 118.076 138.499C115.278 139.837 112.391 141.012 109.426 141.987C107.774 142.53 106.104 143.061 104.404 143.456C104.366 143.465 104.384 143.518 104.421 143.51C105.659 143.232 106.896 142.96 108.121 142.636C107.471 143.019 106.834 143.418 106.188 143.807C106.156 143.826 106.187 143.873 106.22 143.854C106.926 143.456 107.641 143.072 108.341 142.663C108.381 142.64 108.381 142.599 108.361 142.571C108.57 142.514 108.78 142.46 108.988 142.399C110.502 141.96 111.998 141.468 113.468 140.911C116.377 139.809 119.179 138.493 121.846 136.945C122.597 136.508 123.341 136.06 124.074 135.597C124.795 135.141 125.536 134.672 126.188 134.131C126.238 134.09 126.171 134.02 126.117 134.049Z" fill="#1D191F"/>
<path d="M164.901 153.863C164.968 154.686 162.455 154.922 161.406 154.39C161.074 154.22 160.132 153.476 158.987 152.529C156.469 150.443 152.985 147.39 152.985 147.39L150.405 148.476L138.175 152.393L132.482 139.526C132.482 139.526 138.582 137.11 144.381 134.946C145.273 134.614 146.152 134.292 147.008 133.98C147.06 133.961 147.113 133.941 147.166 133.922C151.057 132.52 154.282 131.459 154.613 131.677C155.504 132.258 164.834 153.034 164.901 153.863Z" fill="#C8D4F2"/>
<path d="M164.9 153.863C164.967 154.685 162.454 154.923 161.405 154.389C161.073 154.218 160.131 153.474 158.987 152.528C156.47 150.442 152.983 147.388 152.983 147.388L150.406 148.478L150.062 148.589L144.05 135.069C144.161 135.028 144.272 134.987 144.383 134.947C145.273 134.613 146.152 134.291 147.007 133.979C147.062 133.961 147.113 133.942 147.165 133.92C151.059 132.519 154.281 131.459 154.614 131.678C155.504 132.256 164.833 153.032 164.9 153.863Z" fill="#EBEBEB"/>
<path d="M165.13 154.048C165.063 153.204 155.532 132.06 154.623 131.472C154.282 131.243 150.91 132.364 146.879 133.827C146.837 133.843 146.795 133.859 146.753 133.874L152.739 147.58L152.984 147.477C152.984 147.477 160.498 154.042 161.571 154.591C162.638 155.134 165.201 154.89 165.13 154.048Z" fill="#5D80D9"/>
<path d="M164.146 154.155C162.446 150.628 155.945 136.251 154.55 132.644C154.539 132.614 154.56 132.606 154.574 132.634C156.341 136.096 162.718 150.521 164.209 154.131C164.24 154.207 164.182 154.23 164.146 154.155Z" fill="#1D191F"/>
<path d="M153.465 149.082C152.553 147.79 152.01 145.984 152.594 144.49C152.616 144.432 152.704 144.463 152.709 144.515C152.867 146.082 153.15 147.493 153.651 149.002C153.687 149.108 153.53 149.175 153.465 149.082Z" fill="#1D191F"/>
<path d="M154.573 149.837C153.661 148.545 153.118 146.739 153.702 145.245C153.725 145.187 153.812 145.218 153.817 145.269C153.975 146.837 154.258 148.248 154.76 149.756C154.795 149.863 154.638 149.929 154.573 149.837Z" fill="#1D191F"/>
<path d="M155.681 150.592C154.769 149.3 154.226 147.494 154.81 146.001C154.832 145.943 154.92 145.974 154.925 146.025C155.083 147.593 155.366 149.003 155.867 150.512C155.903 150.618 155.746 150.685 155.681 150.592Z" fill="#1D191F"/>
<path d="M152.87 150.725C153.247 149.408 153.001 147.984 152.937 146.644C152.93 146.505 152.766 146.457 152.651 146.498C152.636 146.477 152.609 146.465 152.582 146.486C151.503 147.363 150.548 148.718 150.125 150.002C149.863 150.795 149.961 151.966 151.02 152.197C152.022 152.415 152.651 151.495 152.87 150.725ZM151.826 151.559C150.294 152.455 150.412 150.463 150.63 149.885C150.769 149.514 150.96 149.152 151.152 148.803C151.555 148.071 152.062 147.407 152.539 146.72C152.527 147.379 152.576 148.034 152.591 148.694C152.608 149.479 152.671 151.064 151.826 151.559Z" fill="#1D191F"/>
<path d="M148.189 142.706C147.408 143.415 147.968 144.465 148.628 145.019C149.697 145.917 151.26 146.618 152.667 146.849C152.702 146.855 152.719 146.832 152.72 146.806C152.842 146.785 152.956 146.665 152.885 146.543C152.204 145.364 151.632 144.025 150.584 143.077C149.973 142.523 148.928 142.037 148.189 142.706ZM151.462 144.953C151.812 145.526 152.13 146.11 152.503 146.67C151.716 146.311 150.917 145.986 150.169 145.553C149.812 145.346 149.449 145.128 149.126 144.877C148.622 144.487 147.425 142.835 149.231 142.865C150.227 142.882 151.044 144.272 151.462 144.953Z" fill="#1D191F"/>
<path d="M117.678 126.14L134.557 125.902C134.557 125.902 138.138 134.433 136.656 136.97C135.173 139.508 119.626 143.133 119.626 143.133L140.999 135.519L148.111 150.856C148.111 150.856 122.125 156.159 108.343 154.843C103.17 154.35 99.9231 148.023 102.953 143.161C106.141 138.047 117.707 131.05 117.707 131.05L117.678 126.14Z" fill="#1E397D"/>
<path d="M140.442 135.48C133.9 138.279 127.302 140.955 120.552 143.288C119.614 143.612 118.676 143.934 117.735 144.25C116.759 144.577 115.791 144.954 114.793 145.216C114.744 145.229 114.77 145.303 114.817 145.286C115.677 144.984 116.571 144.769 117.444 144.501C118.298 144.238 119.151 143.973 120 143.696C120.367 143.577 120.732 143.453 121.098 143.332C121.024 143.38 120.95 143.428 120.876 143.474C120.539 143.684 120.204 143.896 119.872 144.114C119.189 144.564 118.554 145.098 117.837 145.498C117.793 145.523 117.838 145.587 117.879 145.56C118.56 145.107 119.328 144.769 120.028 144.341C120.367 144.134 120.699 143.918 121.03 143.697C121.321 143.502 121.654 143.304 121.911 143.061C122.985 142.701 124.058 142.335 125.125 141.954C128.487 140.754 131.809 139.465 135.086 138.075C136.916 137.298 138.731 136.491 140.522 135.638C140.616 135.593 140.539 135.438 140.442 135.48Z" fill="#1D191F"/>
<path d="M142.422 143.785C141.331 141.563 140.131 139.39 139.02 137.177C138.999 137.135 138.926 137.158 138.946 137.202C139.995 139.432 140.964 141.694 142.055 143.908C143.149 146.13 144.33 148.308 145.476 150.506C145.505 150.562 145.604 150.532 145.576 150.473C144.518 148.246 143.51 146 142.422 143.785Z" fill="#1D191F"/>
<path d="M117.402 131.216C115.534 132.169 113.778 133.344 112.071 134.529C110.378 135.704 108.738 136.947 107.175 138.27C106.386 138.938 105.624 139.636 104.888 140.354C104.186 141.04 103.511 141.757 102.948 142.549C101.942 143.966 101.411 145.666 101.548 147.371C101.62 148.268 101.834 149.179 102.218 150.007C102.607 150.845 103.168 151.562 103.782 152.267C103.805 152.295 103.85 152.254 103.823 152.227C103.214 151.62 102.802 150.843 102.503 150.065C102.219 149.324 102.026 148.549 101.981 147.762C101.887 146.124 102.255 144.517 103.163 143.107C104.199 141.497 105.722 140.161 107.17 138.879C108.665 137.555 110.234 136.312 111.865 135.137C112.779 134.477 113.711 133.836 114.649 133.207C115.59 132.577 116.548 131.972 117.466 131.313C117.528 131.27 117.472 131.18 117.402 131.216Z" fill="#1D191F"/>
<path d="M122.309 131.852C120.936 131.404 119.437 131.229 117.996 131.079C116.557 130.929 115.117 130.858 113.67 130.838C113.631 130.838 113.634 130.891 113.672 130.894C115.138 131.015 116.602 131.188 118.057 131.392C119.465 131.59 120.875 131.875 122.294 131.981C122.378 131.988 122.378 131.875 122.309 131.852Z" fill="#1D191F"/>
<path d="M133.786 132.04C132.882 132.029 131.993 131.93 131.098 131.811C130.36 131.712 129.603 131.61 128.99 131.179C127.793 130.338 127.305 128.859 127.052 127.54C127.046 127.509 126.989 127.517 126.993 127.548C127.197 128.985 127.266 130.634 128.613 131.598C129.28 132.075 130.085 132.22 130.906 132.269C131.862 132.326 132.843 132.227 133.788 132.102C133.829 132.096 133.83 132.04 133.786 132.04Z" fill="#1D191F"/>
<path d="M135.643 134.316C135.569 133.488 135.375 132.658 135.17 131.851C134.958 131.017 134.706 130.193 134.424 129.378C134.103 128.453 133.732 127.543 133.343 126.642C133.329 126.609 133.273 126.623 133.286 126.658C133.843 128.184 134.351 129.729 134.776 131.292C134.986 132.067 135.173 132.846 135.34 133.63C135.502 134.395 135.584 135.165 135.355 135.926C135.125 136.693 134.65 137.38 134.003 137.896C133.997 137.901 134.006 137.912 134.012 137.907C135.171 137.046 135.767 135.69 135.643 134.316Z" fill="#1D191F"/>
<path d="M138.531 139.004C137.392 139.283 136.277 139.65 135.157 139.99C134.036 140.33 132.915 140.671 131.797 141.02C129.56 141.718 127.332 142.44 125.104 143.161C123.838 143.57 122.582 144.007 121.324 144.437C121.288 144.45 121.305 144.502 121.342 144.491C125.844 143.182 130.319 141.788 134.766 140.324C136.028 139.909 137.309 139.525 138.543 139.042C138.568 139.032 138.558 138.998 138.531 139.004Z" fill="#1D191F"/>
<path d="M105.878 114.205C106.106 114.249 107.171 114.463 108.728 114.778C109.465 113.942 110.443 112.405 110.641 110.017C110.671 109.621 111.197 112.019 110.175 115.07C113.184 115.676 117.278 116.498 120.861 117.184C121.197 115.883 121.571 114.691 121.571 114.691C121.502 115.659 121.545 116.552 121.639 117.336C122.128 117.433 122.609 117.52 123.07 117.607C123.378 115.549 124.47 112.063 124.47 112.063C124.294 114.592 124.737 116.715 125.109 117.986C127.388 118.399 128.896 118.632 128.82 118.514C126.121 114.196 129.08 112.512 128.761 109.075C128.376 104.957 124.903 103.696 125.606 100.779C126.171 98.4043 127.368 94.1267 124.333 92.6268C124.333 92.6268 122.257 89.4722 117.84 90.2201C112.376 91.1407 112.897 98.8665 112.246 100.303C111.318 102.356 110.077 102.917 108.769 105.213C107.439 107.536 108.307 109.39 108.104 111.09C107.893 112.786 105.307 114.098 105.878 114.205Z" fill="#1D191F"/>
<path d="M129.028 118.003C128.702 117.259 128.434 116.489 128.345 115.714C128.232 114.94 128.497 114.214 128.81 113.472C129.122 112.735 129.467 111.985 129.708 111.187C129.939 110.39 130.08 109.533 129.956 108.683C129.847 107.833 129.501 107.017 129.012 106.319C128.532 105.612 127.939 105.007 127.37 104.413C126.808 103.813 126.246 103.22 125.876 102.519C125.494 101.826 125.338 101.027 125.396 100.221C125.201 101.006 125.26 101.864 125.59 102.638C125.912 103.415 126.446 104.089 126.98 104.719C127.513 105.354 128.056 105.964 128.479 106.627C128.899 107.29 129.196 108.007 129.281 108.758C129.369 109.507 129.281 110.274 129.068 111.026C128.867 111.782 128.559 112.524 128.288 113.297C128.156 113.685 128.028 114.081 127.959 114.499C127.886 114.918 127.913 115.36 128.001 115.765C128.195 116.577 128.56 117.325 129.028 118.003Z" fill="#1D191F"/>
<path d="M114.404 92.4469C113.823 93.2819 113.477 94.2377 113.132 95.1742C112.806 96.1204 112.53 97.0788 112.266 98.0357L111.862 99.4622C111.725 99.9388 111.568 100.381 111.348 100.803C110.914 101.653 110.221 102.338 109.456 103.024C109.082 103.374 108.7 103.741 108.366 104.152C108.03 104.561 107.739 105.007 107.509 105.478C107.294 105.957 107.118 106.432 106.983 106.928C106.845 107.422 106.771 107.94 106.765 108.453C106.757 108.967 106.811 109.465 106.843 109.949C106.877 110.432 106.862 110.919 106.797 111.393C106.685 112.335 105.971 113.17 105.045 113.636C106.036 113.299 106.881 112.474 107.12 111.449C107.236 110.95 107.282 110.444 107.288 109.94C107.297 109.436 107.261 108.946 107.298 108.473C107.36 107.531 107.68 106.594 108.099 105.734C108.324 105.312 108.583 104.91 108.896 104.539C109.205 104.166 109.566 103.826 109.942 103.481C110.312 103.133 110.698 102.777 111.046 102.377C111.393 101.978 111.705 101.539 111.937 101.065C112.166 100.591 112.325 100.087 112.445 99.6053C112.574 99.1201 112.682 98.6354 112.788 98.151C113.008 97.1837 113.211 96.2168 113.457 95.2598C113.691 94.2992 113.963 93.3475 114.404 92.4469Z" fill="#1D191F"/>
<path d="M121.336 106.591C118.372 110.999 112.582 116.958 108.572 119.054C106.844 119.957 99.2815 120.29 94.6809 119.915C92.9624 119.774 94.7731 111.245 96.6547 111.205C97.9358 111.178 104.616 112.209 105.571 111.906C107.33 111.349 113.839 106.747 118.309 104.428C120.805 103.134 123.18 103.849 121.336 106.591Z" fill="#C8D4F2"/>
<path d="M99.5727 111.87C96.469 110.785 92.675 109.257 88.9938 109.864C88.2719 109.984 87.92 110.391 87.92 110.391C86.2649 110.636 85.8912 111.441 85.8912 111.441C84.4241 112.112 84.1632 112.985 84.1632 112.985C84.1632 112.985 82.2235 113.292 82.2271 114.421C82.2275 115.687 84.9516 115.007 86.6939 115.491C90.6858 116.601 96.6162 119.391 97.7335 119.818L99.5727 111.87Z" fill="#C8D4F2"/>
<path d="M91.7426 113.905C90.5607 113.601 89.4086 113.273 88.1888 113.12C86.8507 112.952 85.5331 113 84.1898 113.018C84.1478 113.019 84.1427 112.964 84.1839 112.958C86.6092 112.565 89.5 112.949 91.758 113.855C91.813 113.877 91.8019 113.921 91.7426 113.905Z" fill="#1D191F"/>
<path d="M92.8078 111.747C91.6402 111.511 89.5857 111.107 85.8879 111.484C85.876 111.485 85.8697 111.466 85.8827 111.463C88.2487 110.919 90.5095 111.033 92.8197 111.695C92.8913 111.716 92.8854 111.763 92.8078 111.747Z" fill="#1D191F"/>
<path d="M93.3568 110.577C91.3553 110.245 90.0488 110.273 87.9211 110.403C87.9092 110.404 87.9044 110.384 87.9175 110.382C90.3187 109.997 91.2365 110.112 93.3785 110.514C93.4522 110.528 93.4351 110.59 93.3568 110.577Z" fill="#1D191F"/>
<path d="M91.4137 117.114C91.8724 117.451 91.6864 117.679 90.6498 117.679C89.6006 117.682 85.5086 116.859 85.3233 118.223C85.1349 119.593 90.9482 120.405 92.6735 120.544C95.5702 120.778 97.7336 119.818 97.7336 119.818C96.6479 119.396 93.5319 117.968 91.4137 117.114Z" fill="#C8D4F2"/>
<path d="M110.657 108.181L115.513 115.068C115.513 115.068 120.336 110.139 121.757 106.7C123.179 103.261 121.265 103.122 118.606 104.188C115.947 105.255 110.657 108.181 110.657 108.181Z" fill="#5D80D9"/>
<path d="M112.256 107.948C112.225 107.902 112.182 107.908 112.211 107.954C113.675 110.279 115.531 112.858 116.312 113.718C116.324 113.731 116.345 113.715 116.337 113.701C115.793 112.679 112.596 108.451 112.256 107.948Z" fill="#1D191F"/>
<path opacity="0.1" d="M121.758 106.7C120.337 110.14 115.513 115.069 115.513 115.069L112.224 110.403L121.374 103.635C122.284 103.821 122.581 104.706 121.758 106.7Z" fill="#1D191F"/>
<path d="M114.122 120.264L113.585 128.813C113.585 128.813 131.274 127.844 136.166 127.521C136.166 127.521 131.15 110.683 125.889 105.335C123.258 102.66 120.168 102.859 118.199 104.73C117.701 105.203 112.822 112.39 112.196 115.2C111.65 117.68 114.122 120.264 114.122 120.264Z" fill="#5D80D9"/>
<path d="M120.803 118.924C119.857 118.855 118.901 118.816 117.953 118.879C117.481 118.911 117.014 118.962 116.546 119.023C116.312 119.054 116.079 119.077 115.845 119.099C115.604 119.121 115.348 119.137 115.108 119.103C115.086 119.1 115.081 119.13 115.102 119.135C115.333 119.18 115.555 119.223 115.791 119.24C116.016 119.255 116.243 119.249 116.468 119.236C116.947 119.208 117.424 119.16 117.903 119.127C118.868 119.062 119.833 118.998 120.801 118.998C120.846 118.998 120.848 118.927 120.803 118.924Z" fill="#1D191F"/>
<path d="M122.957 120.089C122.207 119.886 121.435 119.714 120.665 119.592C120.278 119.53 119.89 119.491 119.498 119.46C119.312 119.445 119.124 119.434 118.937 119.425C118.731 119.414 118.523 119.43 118.318 119.417C118.296 119.415 118.291 119.446 118.312 119.448C118.506 119.466 118.697 119.514 118.889 119.543C119.082 119.571 119.276 119.598 119.469 119.626C119.856 119.683 120.242 119.744 120.629 119.797C121.405 119.904 122.176 120.017 122.947 120.149C122.988 120.156 122.996 120.1 122.957 120.089Z" fill="#1D191F"/>
<path opacity="0.3" d="M124.083 103.965L118.748 104.272C118.811 104.228 118.874 104.183 118.938 104.139L123.865 103.857C123.937 103.891 124.012 103.924 124.083 103.965ZM125.049 104.591L117.976 104.999C117.948 105.04 117.913 105.08 117.881 105.129L125.195 104.706C125.148 104.665 125.1 104.625 125.049 104.591ZM125.9 105.344L117.37 105.833C117.347 105.873 117.315 105.918 117.283 105.962L126.007 105.458C125.975 105.418 125.935 105.381 125.9 105.344ZM126.58 106.107L116.801 106.67C116.773 106.711 116.745 106.756 116.713 106.796L126.679 106.226C126.652 106.185 126.616 106.148 126.58 106.107ZM127.182 106.87L116.25 107.5C116.227 107.545 116.199 107.586 116.171 107.63L127.265 106.989C127.237 106.948 127.21 106.911 127.182 106.87ZM127.72 107.645L115.716 108.334C115.692 108.379 115.665 108.42 115.637 108.464L127.799 107.764C127.776 107.723 127.748 107.682 127.72 107.645ZM128.219 108.416L115.202 109.165C115.174 109.205 115.15 109.25 115.126 109.294L128.294 108.534C128.27 108.494 128.247 108.457 128.219 108.416ZM128.69 109.19L114.695 109.998C114.671 110.043 114.647 110.084 114.62 110.124L128.757 109.309C128.737 109.268 128.714 109.231 128.69 109.19ZM129.129 109.965L114.216 110.825C114.188 110.866 114.165 110.91 114.145 110.951L129.197 110.084C129.173 110.043 129.153 110.006 129.129 109.965ZM129.553 110.747L113.749 111.655C113.725 111.696 113.702 111.74 113.682 111.781L129.616 110.866C129.592 110.825 129.573 110.788 129.553 110.747ZM129.952 111.522L113.31 112.481C113.29 112.522 113.266 112.567 113.246 112.608L130.012 111.64C129.992 111.599 129.972 111.562 129.952 111.522ZM130.344 112.304L112.906 113.308C112.886 113.352 112.866 113.393 112.851 113.434L130.4 112.422C130.38 112.381 130.36 112.344 130.344 112.304ZM130.712 113.082L112.55 114.127C112.53 114.171 112.514 114.212 112.498 114.253L130.768 113.2C130.752 113.16 130.732 113.119 130.712 113.082ZM131.073 113.864L112.261 114.95C112.249 114.991 112.237 115.031 112.229 115.072L131.128 113.982C131.112 113.942 131.092 113.901 131.073 113.864ZM131.425 114.646L112.122 115.758C112.122 115.798 112.118 115.839 112.118 115.88L131.48 114.764C131.46 114.724 131.445 114.687 131.425 114.646ZM131.769 115.428L112.17 116.558C112.174 116.599 112.182 116.64 112.19 116.681L131.821 115.546C131.801 115.506 131.785 115.469 131.769 115.428ZM132.098 116.21L112.356 117.348C112.372 117.385 112.384 117.425 112.399 117.466L132.149 116.328C132.133 116.288 132.117 116.247 132.098 116.21ZM132.422 116.992L112.673 118.133C112.692 118.174 112.712 118.211 112.732 118.252L132.474 117.114C132.458 117.073 132.438 117.033 132.422 116.992ZM132.739 117.774L113.1 118.908C113.128 118.949 113.151 118.989 113.175 119.027L132.786 117.9C132.774 117.859 132.755 117.818 132.739 117.774ZM133.051 118.56L113.634 119.679C113.662 119.72 113.694 119.76 113.721 119.797L133.095 118.682C133.083 118.641 133.067 118.6 133.051 118.56ZM133.356 119.342L114.109 120.453L114.101 120.576L133.4 119.468C133.384 119.427 133.368 119.386 133.356 119.342ZM133.649 120.131L114.058 121.258L114.05 121.384L133.693 120.25C133.681 120.212 133.665 120.172 133.649 120.131ZM133.938 120.913L114.01 122.062L114.002 122.188L133.986 121.035C133.97 120.994 133.954 120.954 133.938 120.913ZM134.227 121.699L113.959 122.866L113.951 122.992L134.271 121.821C134.255 121.78 134.239 121.739 134.227 121.699ZM134.504 122.484L113.907 123.67L113.899 123.796L134.552 122.607C134.536 122.566 134.52 122.525 134.504 122.484ZM134.777 123.27L113.856 124.478L113.852 124.601L134.821 123.392C134.809 123.352 134.793 123.311 134.777 123.27ZM135.046 124.056L113.808 125.279L113.8 125.405L135.09 124.182C135.078 124.141 135.062 124.096 135.046 124.056ZM135.311 124.845L113.757 126.087L113.749 126.209L135.351 124.964C135.339 124.923 135.327 124.886 135.311 124.845ZM135.569 125.631L113.705 126.887L113.698 127.017L135.608 125.753C135.596 125.712 135.585 125.672 135.569 125.631ZM135.826 126.417L113.658 127.695L113.65 127.817L135.862 126.539C135.85 126.502 135.838 126.457 135.826 126.417ZM136.071 127.202L113.607 128.499L113.599 128.625L136.107 127.328C136.095 127.291 136.083 127.25 136.071 127.202Z" fill="#1E397D"/>
<path d="M127.974 108.162C130.462 113.352 134.453 123.487 133.338 126.031C131.094 131.148 122.084 135.736 119.462 136.764C118.235 137.245 112.473 130.025 113.453 129.059C114.521 128.005 123.936 122.743 124.098 121.575C124.235 120.587 123.59 114.316 123.197 109.501C122.702 103.426 125.867 103.769 127.974 108.162Z" fill="#C8D4F2"/>
<path d="M116.184 127.369C116.184 127.369 112.122 128.017 109.487 128.558C108.017 128.86 105.546 129.588 104.574 130.272C103.121 131.296 97.7405 136.446 99.0462 137.695C100.228 138.825 104.25 133.851 104.25 133.851C104.25 133.851 99.7175 138.534 101.407 139.65C103.097 140.765 106.844 134.579 106.844 134.579C106.844 134.579 102.302 139.489 104.239 140.381C105.703 141.056 109.434 135.632 109.434 135.632C109.434 135.632 105.561 139.877 107.034 140.631C108.663 141.465 112.442 136.661 112.442 136.661C116.532 137.988 119.059 137.053 120.772 136.187C121.188 135.978 116.184 127.369 116.184 127.369Z" fill="#C8D4F2"/>
<path d="M105.5 132.364C101.88 135.575 101.156 138.189 101.19 138.123C102 136.569 103.76 134.48 104.262 133.904C104.762 133.328 105.024 132.957 105.524 132.382C105.537 132.367 105.514 132.352 105.5 132.364Z" fill="#1D191F"/>
<path d="M107.963 133.794C106.143 135.209 104.595 137.353 104.185 138.17C104.152 138.236 104.189 138.232 104.237 138.174C104.853 137.425 107.33 134.526 107.982 133.807C107.992 133.796 107.974 133.784 107.963 133.794Z" fill="#1D191F"/>
<path d="M110.171 134.89C108.646 136.271 108.112 137.033 107.353 138.359C107.317 138.422 107.375 138.416 107.422 138.357C108.335 137.187 109.043 136.264 110.21 134.926C110.228 134.905 110.195 134.869 110.171 134.89Z" fill="#1D191F"/>
<path d="M122.733 115.723L131.497 114.853C131.497 114.853 129.041 108.576 126.434 105.812C123.827 103.048 122.815 104.575 122.603 107.277C122.392 109.978 122.733 115.723 122.733 115.723Z" fill="#5D80D9"/>
<path d="M123.247 114.286C123.189 114.291 123.175 114.329 123.232 114.326C126.11 114.178 129.409 113.822 130.584 113.568C130.602 113.564 130.596 113.539 130.579 113.539C129.361 113.522 123.88 114.235 123.247 114.286Z" fill="#1D191F"/>
<path d="M122.489 109.385C122.502 111.509 122.586 113.743 122.668 115.818C122.669 115.856 123.036 115.759 123.188 115.73C123.246 115.719 123.216 115.667 123.16 115.672C123.018 115.685 122.982 115.68 122.835 115.674C122.753 113.576 122.665 111.478 122.515 109.384C122.514 109.368 122.489 109.369 122.489 109.385Z" fill="#1D191F"/>
<path d="M122.576 104.702C122.48 105.068 120.584 107.435 118.792 107.34C118.208 107.308 118.252 104.318 118.252 104.318L118.201 104.096L117.495 100.997L121.399 98.7003L121.963 98.3967C121.963 98.3967 122.097 99.2569 122.251 100.329C122.259 100.379 122.266 100.428 122.274 100.482C122.284 100.542 122.295 100.599 122.302 100.656C122.327 100.816 122.352 100.979 122.373 101.143C122.39 101.267 122.407 101.388 122.42 101.518C122.436 101.65 122.449 101.777 122.466 101.908C122.595 103.205 122.614 104.546 122.576 104.702Z" fill="#C8D4F2"/>
<path d="M122.251 100.33C121.28 102.783 119.169 103.768 118.201 104.097L117.495 100.997L121.399 98.7008L121.963 98.3972C121.963 98.3976 122.096 99.2574 122.251 100.33Z" fill="#1D191F"/>
<path d="M113.638 93.7861C110.461 98.4865 113.108 100.799 114.191 101.44C115.175 102.021 118.602 103.883 122.28 99.5157C125.959 95.1477 124.63 92.2788 122.456 90.8378C120.282 89.3965 116.815 89.0856 113.638 93.7861Z" fill="#C8D4F2"/>
<path d="M114.937 93.5554C115.067 93.6039 115.196 93.6284 115.33 93.664C115.482 93.704 115.598 93.7507 115.754 93.7029C115.838 93.6773 115.895 93.5687 115.876 93.4901C115.832 93.3071 115.659 93.2148 115.479 93.1596C115.284 93.0995 115.116 93.1003 114.925 93.1692C114.739 93.2366 114.765 93.4913 114.937 93.5554Z" fill="#1D191F"/>
<path d="M118.279 95.36C118.164 95.2847 118.072 95.1973 117.966 95.1117C117.847 95.0153 117.741 94.9501 117.698 94.8015C117.675 94.7222 117.74 94.6173 117.821 94.5891C118.008 94.5228 118.185 94.6069 118.334 94.7177C118.495 94.8378 118.586 94.969 118.63 95.1569C118.672 95.3392 118.431 95.4593 118.279 95.36Z" fill="#1D191F"/>
<path d="M116.871 96.2435C116.882 96.2324 116.889 96.2739 116.881 96.2872C116.67 96.6104 116.486 97.0136 116.737 97.2927C116.745 97.3012 116.734 97.3171 116.723 97.3097C116.366 97.051 116.616 96.5181 116.871 96.2435Z" fill="#1D191F"/>
<path d="M117.395 96.0674C117.984 96.3287 117.383 97.4139 116.837 97.1719C116.299 96.9339 116.9 95.8484 117.395 96.0674Z" fill="#1D191F"/>
<path d="M117.59 96.2354C117.658 96.3458 117.697 96.5026 117.812 96.573C117.946 96.6549 118.116 96.593 118.269 96.5285C118.284 96.5218 118.289 96.5363 118.282 96.5508C118.17 96.7602 117.966 96.9321 117.711 96.8476C117.478 96.7705 117.424 96.5104 117.485 96.2743C117.496 96.2306 117.563 96.1909 117.59 96.2354Z" fill="#1D191F"/>
<path d="M114.924 95.1231C114.928 95.109 114.887 95.1257 114.88 95.1398C114.708 95.4826 114.449 95.8484 114.062 95.805C114.05 95.8035 114.042 95.821 114.055 95.8254C114.481 95.9625 114.82 95.4737 114.924 95.1231Z" fill="#1D191F"/>
<path d="M114.794 94.6169C114.236 94.2993 113.599 95.3663 114.115 95.6605C114.624 95.9503 115.261 94.8833 114.794 94.6169Z" fill="#1D191F"/>
<path d="M114.514 94.5634C114.39 94.5727 114.24 94.629 114.128 94.5794C113.999 94.5216 113.976 94.3581 113.962 94.2054C113.96 94.1895 113.946 94.1939 113.937 94.2076C113.81 94.4085 113.755 94.6587 113.941 94.8073C114.11 94.9429 114.355 94.8414 114.528 94.6654C114.56 94.6331 114.564 94.5597 114.514 94.5634Z" fill="#1D191F"/>
<path d="M115.482 98.8625C115.354 98.9051 115.212 98.9777 115.073 98.9307C114.941 98.8854 114.818 98.7665 114.722 98.6731C114.712 98.6638 114.695 98.6701 114.697 98.6838C114.727 98.8569 114.887 99.0266 115.071 99.0722C115.25 99.1171 115.399 99.0181 115.51 98.8932C115.525 98.8762 115.5 98.8565 115.482 98.8625Z" fill="#1D191F"/>
<path d="M114.679 96.9091C114.679 96.9091 114.321 97.3713 114.187 97.6066C114.175 97.6289 114.229 97.6696 114.312 97.717C114.315 97.7204 114.317 97.723 114.322 97.7222C114.729 98.0091 115.257 98.0892 115.72 97.8846C115.751 97.8701 115.733 97.8301 115.701 97.8331C115.24 97.8953 114.84 97.7708 114.443 97.5803C114.463 97.5062 115.085 96.8079 115.047 96.7853C114.916 96.7057 114.595 96.6578 114.407 96.6212C115.123 95.6379 116.002 94.7707 116.7 93.7819C116.724 93.746 116.673 93.7067 116.643 93.7337C115.653 94.582 114.802 95.6961 114.034 96.6934C113.937 96.8168 114.556 96.8991 114.679 96.9091Z" fill="#1D191F"/>
<path d="M114.397 97.6466C114.397 97.6466 114.45 98.0843 114.714 98.3745C114.811 98.482 114.933 98.5695 115.092 98.6095C115.419 98.6933 115.577 98.4531 115.653 98.2163C115.717 98.0217 115.723 97.8282 115.723 97.8282C115.723 97.8282 115.085 97.9676 114.397 97.6466Z" fill="#1D191F"/>
<path d="M114.715 98.3742C114.812 98.4817 114.933 98.5692 115.093 98.6092C115.419 98.693 115.577 98.4528 115.653 98.216C115.332 98.0807 114.911 98.1115 114.715 98.3742Z" fill="#FF99BA"/>
<path d="M121.678 99.507C120.407 98.8325 122.104 94.924 122.318 94.4463C122.167 94.7405 121.359 96.2964 121.2 96.2967C121.16 96.2956 121.031 96.1967 120.833 96.0266L120.83 96.0247C120.926 95.8509 121.016 95.6556 121.088 95.4532C121.125 95.3632 120.951 95.6211 120.717 95.9283C120.655 95.8735 120.588 95.812 120.513 95.7493C120.707 95.4236 120.913 95.0044 121.039 94.523C121.081 94.3603 120.677 94.9914 120.212 95.4888C119.445 94.8273 118.32 93.9018 117.135 93.2762C116.819 93.1072 116.538 92.9753 116.285 92.866C116.536 92.4124 116.86 91.9572 116.767 92.0436C116.495 92.2871 116.27 92.5532 116.097 92.7863C115.959 92.7285 115.831 92.6766 115.714 92.6329C116.037 91.9769 116.93 91.1148 116.733 91.2175C115.978 91.6185 115.451 92.1678 115.198 92.4705C114.685 92.3275 114.509 92.3505 114.559 92.2308C114.65 92.0154 115.913 90.3562 118.131 89.7703C120.543 89.1336 123.969 90.3495 124.565 93.4345C124.565 93.4345 125.554 95.0811 124.969 96.6714C124.385 98.2588 122.412 99.8957 121.678 99.507Z" fill="#1D191F"/>
<path d="M120.967 99.1216C120.967 99.1216 122.971 98.1376 123.505 98.8844C124.04 99.6312 121.938 101.446 120.892 101.327C119.846 101.207 119.945 100.299 119.945 100.299L120.967 99.1216Z" fill="#C8D4F2"/>
<path d="M122.889 99.3907C122.904 99.3963 122.896 99.4163 122.882 99.4148C122.137 99.35 121.518 99.7269 120.985 100.171C121.286 100.046 121.6 100.05 121.792 100.402C121.802 100.421 121.774 100.437 121.758 100.425C121.534 100.252 121.33 100.205 121.055 100.311C120.861 100.387 120.685 100.516 120.513 100.629C120.456 100.666 120.372 100.59 120.426 100.541C120.43 100.538 120.434 100.534 120.438 100.531C120.829 99.7888 122.006 99.0564 122.889 99.3907Z" fill="#1D191F"/>
</svg>
