<svg width="126" height="141" viewBox="0 0 126 141" fill="none" xmlns="http://www.w3.org/2000/svg">
<g clip-path="url(#clip0_511_74)">
<path d="M75.0196 120.144V131.309H71.749L78.799 140.938L85.4129 131.506H82.0697V120.144H75.0196Z" fill="#C9CEDD"/>
<path d="M87.494 36.0432V39.9738H86.3429L88.8246 43.364L91.153 40.0431H89.9765V36.0432H87.494Z" fill="#C9CEDD"/>
<path d="M117.25 72.5006V80.5703H114.886L119.982 87.5302L124.763 80.7129H122.346V72.5006H117.25Z" fill="#C9CEDD"/>
<path d="M8.26076 105.114V113.184H5.89655L10.9923 120.144L15.773 113.326H13.3565V105.114H8.26076Z" fill="#C9CEDD"/>
<path d="M50.5813 118.306V124.328H48.8167L52.6199 129.524L56.188 124.434H54.3845V118.306H50.5813Z" fill="#C9CEDD"/>
<path d="M39.0891 19.7952C39.3294 17.7467 36.8636 16.0611 35.0108 15.8862C34.127 15.8027 33.2094 15.9612 32.3722 15.619C30.5586 14.8779 29.8341 12.1305 28.0644 11.2551C26.7414 10.6007 25.2181 11.1831 23.9356 11.9401C22.653 12.6971 21.3854 13.6496 19.9525 13.7572C18.7062 13.8507 17.3524 13.3087 16.2619 14.0226C15.4493 14.5545 15.0235 15.6527 14.2746 16.3003C13.5419 16.9342 12.5861 17.0684 11.6768 17.1263C10.7676 17.1844 9.82647 17.1952 8.99842 17.6396C8.17038 18.0841 7.48579 19.1105 7.65736 20.1592L39.0891 19.7952Z" fill="#D7DBE6"/>
<path d="M125.231 58.0193C125.441 56.2373 123.296 54.771 121.684 54.6186C120.915 54.546 120.117 54.684 119.388 54.3862C117.811 53.7413 117.18 51.3515 115.641 50.5902C114.49 50.0209 113.165 50.5276 112.049 51.186C110.933 51.8444 109.831 52.6731 108.584 52.7666C107.5 52.848 106.322 52.3763 105.374 52.9977C104.667 53.4607 104.297 54.4154 103.645 54.9793C103.008 55.5307 102.176 55.6472 101.385 55.6976C100.595 55.7481 99.7756 55.7575 99.0552 56.144C98.3356 56.5306 97.74 57.4235 97.8887 58.3356L125.231 58.0193Z" fill="#D7DBE6"/>
<path d="M54.9933 3.7538C55.0958 2.88243 54.0468 2.16515 53.2583 2.0908C52.8825 2.05514 52.492 2.12277 52.1359 1.97709C51.3644 1.66185 51.0562 0.493075 50.3033 0.120641C49.7404 -0.15759 49.0925 0.0900267 48.5468 0.411994C48.0011 0.733962 47.4619 1.13936 46.8522 1.18512C46.322 1.22482 45.7462 0.994358 45.2822 1.29816C44.9365 1.52458 44.7554 1.99155 44.4367 2.2671C44.1251 2.53657 43.7182 2.59377 43.3315 2.61833C42.9447 2.64289 42.5441 2.6476 42.1921 2.83668C41.84 3.02575 41.5485 3.46244 41.6217 3.90856L54.9933 3.7538Z" fill="#D7DBE6"/>
<path d="M123.852 132.832C124.04 131.229 122.111 129.911 120.662 129.775C119.971 129.709 119.253 129.833 118.599 129.565C117.179 128.986 116.613 126.837 115.229 126.153C114.194 125.64 113.003 126.096 111.999 126.688C110.996 127.281 110.005 128.025 108.884 128.11C107.909 128.182 106.85 127.758 105.997 128.317C105.362 128.733 105.029 129.591 104.443 130.098C103.87 130.594 103.123 130.699 102.411 130.744C101.7 130.789 100.964 130.798 100.317 131.145C99.6685 131.493 99.133 132.297 99.2671 133.116L123.852 132.832Z" fill="#D7DBE6"/>
<path d="M51.7982 35.4483L49.5851 30.8752C50.5641 29.0117 51.13 26.8181 51.13 24.4688C51.13 17.7128 46.4592 12.236 40.6978 12.236C34.9361 12.236 30.2653 17.7128 30.2653 24.4688C30.2653 31.2247 34.9361 36.7012 40.6978 36.7012C43.1036 36.7012 45.3175 35.7437 47.0824 34.1396L47.0789 34.145L51.7982 35.4483Z" fill="#FAFAFA"/>
<path d="M51.7982 35.4484C51.5397 35.3794 50.0661 34.9865 47.07 34.1878L47.0141 34.173L47.0491 34.1188L47.0525 34.1134L47.1047 34.1743C45.9249 35.2583 44.2266 36.3137 42.0951 36.6532C41.5649 36.733 41.0108 36.7841 40.4416 36.7518C40.1573 36.733 39.8674 36.7249 39.5754 36.6963C39.2853 36.6448 38.9909 36.593 38.6928 36.5402C37.5104 36.2667 36.301 35.7408 35.1731 34.9202C34.0458 34.1027 33.002 32.9925 32.165 31.6282C31.3295 30.2663 30.696 28.6514 30.3993 26.8966C30.1055 25.1441 30.1299 23.2658 30.5224 21.4477C30.9175 19.636 31.656 17.866 32.7612 16.4099C33.8797 14.9226 35.2623 13.7319 36.7862 13.0406C38.3037 12.3343 39.922 12.0656 41.4687 12.1971C43.0161 12.3279 44.4964 12.8488 45.7663 13.6872C47.0402 14.5188 48.1144 15.6294 48.943 16.8695C49.7745 18.1103 50.3602 19.4789 50.7228 20.8414C51.0829 22.2104 51.1801 23.5679 51.1756 24.8245C51.1142 27.3555 50.3903 29.434 49.6147 30.8968L49.6153 30.8541C51.0034 33.775 51.6748 35.1887 51.7982 35.4484C51.6714 35.1911 50.9807 33.7902 49.5539 30.8958L49.5433 30.8746L49.5545 30.853C50.3151 29.393 51.0215 27.3279 51.0729 24.8215C51.0723 23.577 50.9719 22.2343 50.6118 20.8822C50.2494 19.5364 49.667 18.186 48.8429 16.9627C48.0214 15.7401 46.9587 14.6464 45.7003 13.8282C44.4456 13.0032 42.9848 12.4925 41.4584 12.3656C39.9323 12.2378 38.337 12.5046 36.8415 13.2021C35.3395 13.8843 33.9772 15.0592 32.8743 16.5254C31.7842 17.9606 31.0567 19.7053 30.6659 21.4908C30.2779 23.2826 30.2524 25.1354 30.5404 26.864C30.8311 28.595 31.4543 30.189 32.2767 31.5347C33.1004 32.8827 34.129 33.9815 35.2408 34.7924C36.3532 35.6059 37.5465 36.1301 38.7151 36.4049C39.0098 36.4584 39.3005 36.5109 39.5874 36.5627C39.8763 36.592 40.1627 36.6011 40.4441 36.6209C41.0073 36.6555 41.5559 36.6071 42.081 36.5311C44.1922 36.2054 45.8807 35.1712 47.0591 34.1054L47.2881 33.8982L47.1116 34.1663L47.1082 34.1717L47.0872 34.1027C50.0726 34.9555 51.5408 35.3751 51.7982 35.4484Z" fill="#1D191F"/>
<path d="M43.749 31.2077H36.9877C36.6617 31.2077 36.3975 30.8978 36.3975 30.5156V18.7983C36.3975 18.4161 36.6617 18.1062 36.9877 18.1062H43.749C44.0749 18.1062 44.3392 18.4161 44.3392 18.7983V30.5156C44.3392 30.8978 44.0749 31.2077 43.749 31.2077Z" fill="#1D191F"/>
<path d="M43.9349 18.8939H36.767V28.6851H43.9349V18.8939Z" fill="#FAFAFA"/>
<path d="M40.3685 30.6421C40.7008 30.6421 40.9701 30.3263 40.9701 29.9367C40.9701 29.547 40.7008 29.2311 40.3685 29.2311C40.0361 29.2311 39.7668 29.547 39.7668 29.9367C39.7668 30.3263 40.0361 30.6421 40.3685 30.6421Z" fill="#1E397D"/>
<path d="M41.3735 21.8768L44.0175 25.5369L46.4959 21.8768H45.2108V16.8394L42.6403 16.8023L42.6709 21.8846L41.3735 21.8768Z" fill="#5D80D9"/>
<path d="M41.536 23.2535C41.5658 23.2869 41.062 23.9631 40.4107 24.7635C39.7591 25.5641 39.207 26.1859 39.1772 26.1526C39.1473 26.1193 39.6512 25.4434 40.3025 24.6426C40.9541 23.8423 41.5061 23.2202 41.536 23.2535Z" fill="#1D191F"/>
<path d="M41.0165 22.8131C41.0413 22.8518 40.7618 23.2285 40.392 23.6542C40.0221 24.0798 39.6985 24.397 39.6692 24.363C39.6399 24.329 39.9194 23.9526 40.2938 23.522C40.6683 23.0916 40.9919 22.7744 41.0165 22.8131Z" fill="#1D191F"/>
<path d="M106.259 21.6483V27.3377H104.592L108.185 32.2456L111.556 27.4383H109.852V21.6483H106.259Z" fill="#5D80D9"/>
<path opacity="0.3" d="M106.259 21.6483V27.3377H104.592L108.185 32.2456L111.556 27.4383H109.852V21.6483H106.259Z" fill="#1D191F"/>
<path d="M117.977 8.95451C116.902 4.07116 113.131 0.458191 108.631 0.458191C105.579 0.458191 102.862 2.12085 101.092 4.71105C100.786 4.66968 100.477 4.6431 100.162 4.6431C95.729 4.6431 92.1362 8.85658 92.1362 14.0542C92.1362 19.2517 95.729 23.4653 100.162 23.4653H117.638C121.06 23.4653 123.833 20.2126 123.833 16.2C123.834 12.3216 121.24 9.16208 117.977 8.95451Z" fill="#5D80D9"/>
<path d="M119.825 20.9293C119.808 20.9031 120.156 20.6483 120.617 20.1077C121.077 19.5728 121.633 18.7159 121.97 17.6218C122.307 16.5274 122.346 15.4514 122.285 14.6951C122.225 13.9341 122.098 13.4779 122.124 13.4695C122.133 13.4662 122.174 13.5761 122.229 13.7834C122.284 13.9904 122.346 14.2965 122.39 14.6817C122.48 15.4477 122.457 16.5556 122.111 17.681C121.764 18.8064 121.178 19.675 120.69 20.1965C120.446 20.4603 120.231 20.6487 120.076 20.7661C119.921 20.8842 119.829 20.9383 119.825 20.9293Z" fill="#1D191F"/>
<path d="M101.313 7.4634C101.307 7.4957 100.87 7.36482 100.152 7.34531C99.4374 7.32243 98.4303 7.45364 97.4279 7.96835C96.4247 8.48281 95.6589 9.26062 95.1889 9.89111C94.7135 10.5233 94.4985 10.9885 94.4746 10.971C94.4662 10.9657 94.5124 10.8449 94.6133 10.638C94.7143 10.4308 94.8768 10.1414 95.1088 9.81036C95.5657 9.14859 96.3385 8.3351 97.3678 7.80755C98.3964 7.27971 99.4312 7.16565 100.155 7.22116C100.52 7.24674 100.811 7.30292 101.01 7.35675C101.208 7.41024 101.315 7.45297 101.313 7.4634Z" fill="#1D191F"/>
<path d="M106.733 2.81537C106.735 2.84767 106.415 2.87122 105.92 3.02396C105.427 3.17401 104.765 3.48689 104.133 4.02182C103.503 4.56046 103.045 5.20271 102.771 5.70668C102.494 6.21066 102.375 6.56056 102.35 6.54845C102.34 6.54407 102.363 6.45391 102.413 6.29377C102.46 6.13227 102.55 5.90754 102.68 5.64209C102.808 5.37497 102.989 5.07655 103.214 4.7687C103.445 4.46659 103.723 4.15808 104.045 3.88018C104.37 3.607 104.706 3.39269 105.023 3.22952C105.342 3.07341 105.64 2.9634 105.896 2.90385C106.151 2.84161 106.361 2.81032 106.507 2.80763C106.653 2.8009 106.733 2.80326 106.733 2.81537Z" fill="#1D191F"/>
<path d="M114.25 23.3857C114.25 23.4341 111.89 23.4732 108.98 23.4732C106.068 23.4732 103.709 23.4338 103.709 23.3857C103.709 23.3376 106.068 23.2982 108.98 23.2982C111.89 23.2982 114.25 23.3373 114.25 23.3857Z" fill="#1D191F"/>
<path d="M114.841 40.3366C114.8 40.3366 114.766 38.07 114.766 35.2749C114.766 32.4788 114.8 30.2129 114.841 30.2129C114.883 30.2129 114.916 32.4788 114.916 35.2749C114.916 38.07 114.883 40.3366 114.841 40.3366Z" fill="#1D191F"/>
<path d="M116.528 44.7583C116.487 44.7583 116.454 41.8404 116.454 38.2422C116.454 34.6427 116.487 31.7255 116.528 31.7255C116.569 31.7255 116.602 34.6427 116.602 38.2422C116.602 41.8404 116.569 44.7583 116.528 44.7583Z" fill="#1D191F"/>
<path d="M60.6057 109.29V125.596H55.8287L66.1257 139.661L75.7858 125.884H70.9027V109.29H60.6057Z" fill="#5D80D9"/>
<path opacity="0.3" d="M60.6057 109.29V125.596H55.8287L66.1257 139.661L75.7858 125.884H70.9027V109.29H60.6057Z" fill="#1D191F"/>
<path d="M94.188 72.9109C91.1076 58.9153 80.3014 48.5615 67.403 48.5615C58.6576 48.5615 50.8717 53.3264 45.7961 60.7498C44.9208 60.6314 44.0347 60.5546 43.1324 60.5546C30.4289 60.5546 20.1304 72.6299 20.1304 87.5263C20.1304 102.422 30.4286 114.497 43.1324 114.497H93.2172C103.024 114.497 110.975 105.175 110.975 93.6756C110.975 82.5605 103.541 73.5057 94.188 72.9109Z" fill="#5D80D9"/>
<path d="M48.8033 77.8212C48.7982 77.8212 48.7913 77.7596 48.7829 77.6425C48.7752 77.5061 48.7654 77.3373 48.754 77.1324C48.7485 77.0194 48.7428 76.8966 48.7365 76.764C48.7267 76.6298 48.7072 76.4845 48.6917 76.3284C48.655 76.0165 48.6326 75.6585 48.5574 75.2717C48.525 75.0768 48.4911 74.8733 48.4559 74.6617C48.4191 74.4501 48.3612 74.235 48.3124 74.01C48.2217 73.5565 48.0737 73.0899 47.9305 72.595C47.6112 71.619 47.1911 70.5761 46.6468 69.5509C46.0914 68.5336 45.4684 67.6406 44.8538 66.883C44.5342 66.5183 44.2384 66.1613 43.928 65.8703C43.7753 65.7216 43.635 65.5679 43.4875 65.4383C43.3398 65.3101 43.1977 65.187 43.0614 65.0689C42.7957 64.823 42.5298 64.6457 42.3054 64.4728C42.1918 64.389 42.0882 64.3063 41.9892 64.2383C41.89 64.1747 41.7978 64.1158 41.7129 64.0616C41.56 63.9611 41.4343 63.8786 41.3324 63.8117C41.2461 63.7528 41.2016 63.7191 41.2039 63.7134C41.2062 63.708 41.2547 63.7309 41.3457 63.7797C41.4512 63.8389 41.5815 63.9122 41.7402 64.0011C41.8274 64.0515 41.9221 64.1061 42.0243 64.1652C42.1261 64.2295 42.2322 64.3086 42.3487 64.3886C42.5785 64.5545 42.8508 64.7264 43.1226 64.9676C43.2617 65.0838 43.4069 65.2052 43.5581 65.331C43.7085 65.4588 43.8522 65.6116 44.008 65.7589C44.3248 66.0479 44.6266 66.4042 44.9523 66.7696C45.5786 67.5283 46.2119 68.4285 46.7733 69.4567C47.3239 70.4926 47.7448 71.5493 48.0599 72.5384C48.2014 73.0401 48.346 73.5128 48.4326 73.9723C48.4794 74.2004 48.5351 74.4181 48.5689 74.6324C48.601 74.8463 48.632 75.0523 48.6619 75.2494C48.731 75.6407 48.7463 76.0027 48.7752 76.3176C48.7869 76.4754 48.8022 76.6217 48.8079 76.7573C48.8096 76.8909 48.8111 77.0147 48.8122 77.1285C48.8127 77.3343 48.8131 77.5045 48.8134 77.6417C48.8119 77.7596 48.8085 77.8212 48.8033 77.8212Z" fill="#1D191F"/>
<path d="M39.3933 72.6057C39.3743 72.6286 39.0724 72.2784 38.5264 71.8017C37.9821 71.3242 37.1748 70.7453 36.2043 70.3139C35.2326 69.8863 34.3001 69.6955 33.6223 69.6327C32.9438 69.5677 32.52 69.5973 32.5188 69.5653C32.5183 69.5532 32.6233 69.5374 32.8149 69.5189C33.0063 69.4971 33.2853 69.492 33.6293 69.5088C34.3164 69.5408 35.269 69.715 36.2569 70.15C37.2433 70.5888 38.0568 71.1954 38.5907 71.7037C38.8584 71.9571 39.0649 72.1771 39.1964 72.3419C39.3304 72.5037 39.4004 72.5973 39.3933 72.6057Z" fill="#1D191F"/>
<path d="M49.9303 95.6288C49.9301 95.6403 49.7682 95.6457 49.4756 95.645C49.183 95.645 48.7597 95.6342 48.2373 95.6126C47.192 95.5695 45.7488 95.4693 44.1598 95.2867C42.5705 95.1033 41.1383 94.8722 40.1056 94.6765C39.5894 94.5786 39.1725 94.4931 38.8856 94.4261C38.5984 94.3606 38.4406 94.3182 38.4423 94.3066C38.444 94.2943 38.605 94.3136 38.8948 94.359C39.2107 94.4091 39.6233 94.4746 40.1208 94.554C41.156 94.7188 42.5878 94.93 44.1741 95.1126C45.76 95.2952 47.1994 95.4138 48.2421 95.4886C48.7434 95.524 49.1592 95.5541 49.4773 95.5764C49.7694 95.5987 49.9306 95.6165 49.9303 95.6288Z" fill="#1D191F"/>
<path d="M93.4368 72.7442C93.4368 72.7502 93.3813 72.7586 93.2758 72.7691C93.1532 72.7788 93.0007 72.791 92.8142 72.8058C92.6139 72.8169 92.3689 72.8344 92.0853 72.8764C91.8026 72.9151 91.479 72.941 91.1253 73.016C90.9481 73.0486 90.7624 73.083 90.5698 73.1187C90.3772 73.1553 90.1792 73.2125 89.9727 73.261C89.5581 73.3514 89.1251 73.4961 88.6667 73.6371C87.7583 73.9503 86.7767 74.3614 85.7835 74.8984C84.795 75.4464 83.8958 76.0658 83.1076 76.6815C82.7216 77.0028 82.3486 77.2988 82.0235 77.614C81.8594 77.768 81.6945 77.9098 81.5466 78.0593C81.4002 78.2095 81.2584 78.3552 81.1228 78.4931C80.847 78.762 80.622 79.037 80.4155 79.2667C80.2067 79.4947 80.0379 79.7028 79.9016 79.8761C79.7721 80.0348 79.6666 80.1643 79.5818 80.2675C79.5071 80.3554 79.4662 80.4 79.4624 80.3962C79.4578 80.3923 79.4917 80.34 79.5587 80.2444C79.6381 80.135 79.7374 79.9979 79.8592 79.8299C79.9886 79.6488 80.152 79.4331 80.3562 79.1973C80.558 78.96 80.7792 78.678 81.0519 78.4006C81.186 78.2588 81.3262 78.1101 81.4718 77.956C81.619 77.802 81.7823 77.6571 81.9464 77.4991C82.2701 77.1779 82.643 76.8746 83.0305 76.5473C83.8195 75.9195 84.7241 75.291 85.7203 74.7385C86.7212 74.1976 87.7128 73.7875 88.6297 73.4806C89.092 73.3427 89.5289 73.2024 89.9472 73.1177C90.156 73.0719 90.3556 73.0177 90.5505 72.9844C90.7447 72.9525 90.9319 72.9218 91.1107 72.8925C91.4666 72.825 91.7933 72.8075 92.0784 72.7778C92.3635 72.7452 92.6093 72.7371 92.8112 72.7368C92.9992 72.7351 93.1525 72.7337 93.275 72.7327C93.3813 72.7347 93.4368 72.7385 93.4368 72.7442Z" fill="#1D191F"/>
<path d="M92.0175 114.681C92.0175 114.729 80.9286 114.768 67.2533 114.768C53.5729 114.768 42.4866 114.729 42.4866 114.681C42.4866 114.632 53.5729 114.593 67.2533 114.593C80.9286 114.593 92.0175 114.632 92.0175 114.681Z" fill="#1D191F"/>
<path d="M32.209 126.351C32.1677 126.351 32.1341 123.918 32.1341 120.918C32.1341 117.917 32.1677 115.485 32.209 115.485C32.2503 115.485 32.2836 117.917 32.2836 120.918C32.2839 123.918 32.2503 126.351 32.209 126.351Z" fill="#1D191F"/>
<path d="M34.0915 136.368C34.0501 136.368 34.0168 132.947 34.0168 128.728C34.0168 124.508 34.0504 121.087 34.0915 121.087C34.1325 121.087 34.1661 124.508 34.1661 128.728C34.1661 132.947 34.1325 136.368 34.0915 136.368Z" fill="#1D191F"/>
<path d="M8.65218 50.5422V54.0277H7.63101L9.83227 57.0343L11.8973 54.0895H10.8534V50.5422H8.65218Z" fill="#5D80D9"/>
<path opacity="0.3" d="M8.65218 50.5422V54.0277H7.63101L9.83227 57.0343L11.8973 54.0895H10.8534V50.5422H8.65218Z" fill="#1D191F"/>
<path d="M15.8312 42.7654C15.1727 39.7735 12.8627 37.5604 10.1054 37.5604C8.23579 37.5604 6.57136 38.5791 5.48651 40.1657C5.29944 40.1405 5.11007 40.1241 4.91697 40.1241C2.20126 40.1241 0 42.7055 0 45.8895C0 49.0739 2.20155 51.655 4.91697 51.655H15.6234C17.72 51.655 19.4194 49.6623 19.4194 47.2039C19.4194 44.8281 17.8304 42.8925 15.8312 42.7654Z" fill="#5D80D9"/>
<path d="M16.9631 50.1015C16.949 50.0772 17.1573 49.9144 17.4341 49.5807C17.7108 49.2503 18.0456 48.7278 18.2502 48.0634C18.4551 47.3989 18.4826 46.7458 18.4502 46.2846C18.4195 45.8207 18.348 45.5391 18.3718 45.531C18.387 45.5239 18.4958 45.7954 18.5552 46.2711C18.616 46.7425 18.6054 47.4272 18.3908 48.1228C18.1764 48.8183 17.8115 49.3529 17.5077 49.6698C17.2024 49.9911 16.9708 50.1183 16.9631 50.1015Z" fill="#1D191F"/>
<path d="M5.62193 41.8517C5.61677 41.8807 5.34764 41.809 4.90979 41.8033C4.47424 41.7956 3.8631 41.8793 3.25368 42.1922C2.64397 42.5048 2.17658 42.9744 1.88592 43.3546C1.59212 43.7354 1.45439 44.0156 1.43287 44.0005C1.41853 43.9925 1.52441 43.687 1.80558 43.2738C2.08304 42.8624 2.55847 42.3571 3.19371 42.0314C3.82867 41.7054 4.46793 41.6391 4.91381 41.6791C5.36342 41.7178 5.62681 41.8339 5.62193 41.8517Z" fill="#1D191F"/>
<path d="M8.94312 39.004C8.94481 39.033 8.74942 39.0562 8.44985 39.1551C8.15059 39.2523 7.75009 39.4458 7.36675 39.7704C6.98457 40.0975 6.70396 40.4843 6.53239 40.7878C6.35966 41.0909 6.28018 41.3015 6.25723 41.2908C6.24173 41.2847 6.28649 41.055 6.44229 40.7229C6.59608 40.3918 6.87842 39.971 7.27896 39.6285C7.68064 39.288 8.10898 39.1036 8.42519 39.0343C8.74256 38.9636 8.94281 38.9852 8.94312 39.004Z" fill="#1D191F"/>
<path d="M13.5479 51.6069C13.5479 51.6553 12.1021 51.6943 10.3188 51.6943C8.53506 51.6943 7.08953 51.6549 7.08953 51.6069C7.08953 51.5584 8.53506 51.5193 10.3188 51.5193C12.1021 51.519 13.5479 51.5584 13.5479 51.6069Z" fill="#1D191F"/>
<path d="M13.91 61.9914C13.8687 61.9914 13.8354 60.6029 13.8354 58.8904C13.8354 57.1773 13.869 55.7892 13.91 55.7892C13.951 55.7892 13.9846 57.1773 13.9846 58.8904C13.9849 60.6029 13.9513 61.9914 13.91 61.9914Z" fill="#1D191F"/>
<path d="M14.9437 64.7003C14.9024 64.7003 14.8691 62.9128 14.8691 60.7081C14.8691 58.5028 14.9027 56.7157 14.9437 56.7157C14.9851 56.7157 15.0184 58.5028 15.0184 60.7081C15.0184 62.9128 14.9848 64.7003 14.9437 64.7003Z" fill="#1D191F"/>
<g opacity="0.3">
<path d="M100.54 83.7178C99.9775 79.8769 95.6258 75.9815 91.8835 76.8566C88.6243 77.6186 85.1147 78.5069 81.8917 79.4608C80.5626 79.8545 79.1835 77.9599 78.0693 77.0221C77.4845 76.5292 77.1409 75.745 76.7756 75.0169C74.702 70.8832 71.2891 67.7802 67.4754 66.0479C63.6616 64.316 59.4673 63.9014 55.4017 64.4239C52.2493 64.829 48.7902 66.1037 47.3237 69.4011C46.7332 70.7291 46.4994 72.3261 45.5821 73.3684C44.3612 74.7558 42.4242 74.6452 40.8332 75.3476C37.6507 76.7529 36.0371 82.0928 36.4377 86.0524C36.8385 90.0142 39.8448 95.1157 46.1594 95.9293C46.1594 95.9293 69.0359 96.1643 80.3323 96.8061C84.2487 97.0288 85.4298 96.3962 89.3486 96.2768C96.2599 96.0657 101.572 90.7585 100.54 83.7178Z" fill="#1D191F"/>
</g>
<path d="M58.5155 103.01C58.8998 102.898 59.3281 102.433 59.6598 102.183C60.4744 101.567 61.2804 100.937 62.0771 100.29C59.2137 99.3126 56.7826 98.5428 53.9194 97.589C53.8362 98.9034 53.9148 100.329 54.2353 101.592C54.4993 102.632 55.0048 103.737 55.8994 104.013C56.7128 104.264 57.5392 103.738 58.255 103.22C58.3216 103.173 58.3882 103.124 58.4544 103.076" fill="#D7DBE6"/>
<path d="M59.0089 101.156C58.965 101.15 58.9831 100.714 58.8817 100.2C58.7854 99.6847 58.6092 99.3002 58.6471 99.2733C58.6775 99.2455 58.9237 99.6115 59.0275 100.162C59.1349 100.711 59.0465 101.166 59.0089 101.156Z" fill="#1D191F"/>
<path d="M59.6258 100.98C59.5834 100.97 59.6184 100.633 59.5799 100.226C59.5452 99.8188 59.4514 99.4982 59.4909 99.4774C59.5254 99.4559 59.6904 99.7672 59.7285 100.208C59.7693 100.649 59.6634 100.994 59.6258 100.98Z" fill="#1D191F"/>
<path d="M55.8421 98.2246C55.8677 98.2315 55.7853 98.5736 55.781 99.1361C55.7747 99.6916 55.8665 100.486 56.2289 101.224C56.5942 101.972 57.0142 102.584 57.4016 102.911C57.7854 103.244 58.0893 103.312 58.0801 103.345C58.0784 103.355 58.0018 103.348 57.869 103.305C57.7355 103.264 57.5487 103.171 57.341 103.012C56.9196 102.697 56.4699 102.07 56.0995 101.313C55.7182 100.535 55.6415 99.7032 55.6754 99.1322C55.6915 98.8441 55.7291 98.6137 55.7661 98.4588C55.8028 98.3032 55.8332 98.2215 55.8421 98.2246Z" fill="#1E397D"/>
<path d="M58.0804 99.0028C58.1134 98.9866 58.4175 99.8403 58.5469 100.965C58.6777 102.091 58.5785 103.009 58.5429 103.004C58.4964 103.002 58.5274 102.092 58.3989 100.989C58.2723 99.8865 58.0359 99.019 58.0804 99.0028Z" fill="#1E397D"/>
<path d="M57.4317 102.58C57.4187 102.596 57.2389 102.442 56.9775 102.151C56.719 101.861 56.3733 101.421 56.1233 100.833C55.8734 100.242 55.812 99.6269 55.864 99.2016C55.9124 98.7717 56.0393 98.5405 56.0522 98.5498C56.0765 98.5606 55.9882 98.8025 55.9692 99.2124C55.9466 99.6192 56.0203 100.194 56.2576 100.755C56.4955 101.317 56.8174 101.756 57.0535 102.066C57.292 102.374 57.4469 102.561 57.4317 102.58Z" fill="#5D80D9"/>
<path d="M61.444 100.756C61.4617 100.8 61.0096 101.131 60.4345 101.495C59.859 101.859 59.3752 102.12 59.354 102.079C59.3327 102.037 59.7846 101.706 60.3637 101.34C60.9424 100.974 61.4262 100.713 61.444 100.756Z" fill="#5D80D9"/>
<path d="M56.8769 102.629C56.9057 102.658 56.5654 103.073 56.0041 103.289C55.4447 103.512 54.96 103.418 54.9678 103.376C54.9692 103.323 55.4303 103.334 55.9568 103.123C56.4853 102.921 56.8489 102.588 56.8769 102.629Z" fill="#1E397D"/>
<path d="M55.9027 100.904C55.907 100.956 55.5165 101.019 55.0844 101.253C54.6497 101.481 54.3527 101.784 54.3223 101.747C54.2925 101.718 54.5596 101.337 55.0227 101.093C55.4837 100.845 55.9041 100.86 55.9027 100.904Z" fill="#1E397D"/>
<path d="M55.7147 99.3734C55.6918 99.4189 55.3047 99.1484 54.7696 99.066C54.2356 98.9743 53.8004 99.1114 53.7886 99.0598C53.7706 99.0205 54.2164 98.7955 54.79 98.8926C55.3644 98.9828 55.7411 99.3418 55.7147 99.3734Z" fill="#1E397D"/>
<path d="M77.681 94.5108C77.698 94.5417 66.9181 97.589 66.9181 97.589L65.3329 93.2311L66.0608 91.9151C66.0608 91.9151 70.6162 90.7085 74.3247 88.2491L77.681 94.5108Z" fill="#CDD8F3"/>
<path d="M52.3841 82.1144C52.3841 82.1144 51.8932 81.2715 49.7995 80.0703C48.064 79.0756 43.6084 78.2381 41.805 82.3263C40.0017 86.4137 41.3841 92.6871 44.3897 94.0262C47.3951 95.3653 52.3841 97.1975 54.4279 97.9727C56.4716 98.7485 63.2039 100.722 63.2039 100.722L65.969 98.8187L66.295 92.768C66.295 92.768 62.4826 88.1759 59.2367 86.9076C55.9907 85.6386 52.3841 82.1144 52.3841 82.1144Z" fill="#1D191F"/>
<path d="M46.1592 79.2636C46.1884 79.2135 49.2186 79.3129 51.4296 80.2914C52.2622 80.6597 53.0762 81.0519 53.0762 81.0519L54.2991 76.968L63.4602 73.3893H73.6038L76.9039 81.0519V81.4387C76.9039 81.4387 80.8647 81.5157 82.5805 80.5873C84.2964 79.6588 89.6429 76.9496 91.029 76.4079C92.4151 75.8662 98.6199 74.8239 100.006 79.2536C101.392 83.6831 100.408 88.3007 98.0913 89.988C96.9995 90.7824 78.5539 96.3762 78.5539 96.3762L74.1977 88.2491C74.1977 88.2491 67.5566 92.1069 65.3327 91.6878C63.1091 91.2678 46.1592 79.2636 46.1592 79.2636Z" fill="#1D191F"/>
<path d="M64.8661 75.3639C64.871 75.3626 64.8865 75.416 64.9115 75.52C64.939 75.6441 64.9729 75.7945 65.0133 75.9762C65.0959 76.3738 65.2036 76.9536 65.3118 77.6748C65.5353 79.1156 65.7579 81.122 65.9318 83.3456C66.1017 85.5708 66.1954 87.5903 66.2327 89.0527C66.2528 89.7831 66.2585 90.3756 66.258 90.7847C66.2557 90.9727 66.2537 91.1284 66.252 91.2563C66.2488 91.3642 66.2448 91.4204 66.2397 91.4212C66.2345 91.4212 66.2284 91.3649 66.2219 91.2571C66.2159 91.1292 66.2087 90.9743 66.1997 90.7871C66.1814 90.351 66.157 89.7669 66.1272 89.0581C66.0632 87.598 65.9524 85.5832 65.7831 83.3618C65.6095 81.1413 65.4041 79.1372 65.2076 77.6949C65.1132 76.9731 65.0217 76.392 64.9566 75.9907C64.927 75.8063 64.9023 75.6539 64.8822 75.5281C64.8667 75.4218 64.8609 75.3653 64.8661 75.3639Z" fill="#1E397D"/>
<path d="M76.8018 81.6282C76.8064 81.676 74.5062 82.015 71.6651 82.3848C68.8228 82.7554 66.516 83.0159 66.5114 82.9681C66.5068 82.9196 68.8065 82.5813 71.6487 82.2107C74.4898 81.8409 76.7972 81.5804 76.8018 81.6282Z" fill="#1E397D"/>
<path d="M75.2882 81.6459C75.2862 81.6575 75.1697 81.6459 74.9603 81.6143C74.7514 81.582 74.4485 81.5388 74.0743 81.4918C73.326 81.3963 72.2876 81.3115 71.14 81.3339C69.9919 81.3585 68.9568 81.4857 68.2116 81.6112C67.8389 81.6737 67.5376 81.7291 67.3299 81.7707C67.1219 81.81 67.0054 81.827 67.0031 81.8147C67.0008 81.8031 67.113 81.7638 67.3182 81.7037C67.523 81.6413 67.8225 81.5666 68.195 81.4887C68.9392 81.3316 69.9811 81.1836 71.1374 81.159C72.2933 81.1366 73.3387 81.2414 74.0872 81.3685C74.4616 81.431 74.7632 81.4934 74.9698 81.5473C75.177 81.5997 75.2902 81.6336 75.2882 81.6459Z" fill="#1E397D"/>
<path d="M76.6904 81.1813C76.6675 81.2314 75.8626 80.6112 74.7248 80.3253C73.5891 80.024 72.6365 80.1905 72.634 80.1335C72.6313 80.1134 72.864 80.0441 73.2508 80.0133C73.6368 79.9824 74.1773 80.0048 74.7569 80.1535C75.3358 80.3045 75.8348 80.5495 76.1734 80.7683C76.5134 80.9872 76.7002 81.1644 76.6904 81.1813Z" fill="#1E397D"/>
<path d="M68.2423 87.833C68.2658 87.8692 67.879 88.2367 67.3135 88.5002C66.7489 88.7668 66.2527 88.8138 66.2484 88.7684C66.241 88.7175 66.7118 88.5965 67.2578 88.3376C67.8056 88.0834 68.2179 87.7906 68.2423 87.833Z" fill="#1E397D"/>
<path d="M67.755 89.3401C67.7685 89.3832 67.4379 89.5581 66.9993 89.6298C66.5606 89.7045 66.2016 89.6459 66.2042 89.5997C66.2056 89.5496 66.5551 89.5288 66.978 89.4564C67.4013 89.3871 67.7415 89.2923 67.755 89.3401Z" fill="#1E397D"/>
<path d="M83.3449 80.8839C83.348 80.8893 83.301 80.9263 83.2108 80.9918C83.1053 81.0658 82.972 81.1582 82.8102 81.2723C82.4411 81.5211 81.938 81.8602 81.3239 82.2747C80.0456 83.1176 78.3113 84.261 76.394 85.5254C74.468 86.772 72.7255 87.9 71.4418 88.7314C70.8183 89.1251 70.3076 89.4487 69.9329 89.6853C69.7653 89.787 69.6285 89.8702 69.5192 89.9365C69.4236 89.9927 69.3726 90.0189 69.3699 90.0135C69.3674 90.0081 69.4138 89.9711 69.5048 89.9056C69.6107 89.8317 69.7429 89.7384 69.905 89.6252C70.274 89.3763 70.7773 89.0365 71.391 88.622C72.6689 87.7798 74.404 86.6357 76.3215 85.3721C78.2465 84.1254 79.9886 82.9974 81.2723 82.1668C81.8956 81.7723 82.4064 81.4495 82.7817 81.2122C82.9496 81.1105 83.086 81.0273 83.1954 80.961C83.2909 80.9055 83.3426 80.8786 83.3449 80.8839Z" fill="#1E397D"/>
<path d="M91.0814 79.1703C91.0829 79.1765 91.019 79.195 90.8965 79.2251C90.7586 79.259 90.5814 79.3013 90.3618 79.3545C89.8979 79.467 89.2291 79.6481 88.414 79.9177C86.7828 80.4478 84.5831 81.4117 82.2731 82.7732C79.9617 84.1339 77.9599 85.5662 76.5116 86.6002C75.8 87.111 75.2184 87.5286 74.7984 87.8307C74.6055 87.9663 74.45 88.0749 74.3295 88.1597C74.2213 88.2336 74.1634 88.2699 74.1606 88.2645C74.1577 88.2591 74.2105 88.2128 74.3132 88.1296C74.4297 88.0379 74.5803 87.9201 74.7671 87.7729C75.163 87.4662 75.7389 87.0278 76.4556 86.4946C77.8906 85.4329 79.8869 83.9813 82.2061 82.6168C84.5237 81.2507 86.7405 80.2999 88.3855 79.7983C89.2076 79.5425 89.8817 79.3792 90.3502 79.2875C90.5837 79.2366 90.767 79.212 90.8911 79.1904C91.0159 79.1719 91.0814 79.1642 91.0814 79.1703Z" fill="#1E397D"/>
<path d="M95.6258 77.6417C95.6234 77.6717 95.2906 77.6378 94.7566 77.6556C94.2227 77.6725 93.4853 77.7634 92.7002 78.0169C91.9151 78.2743 91.2424 78.641 90.7778 78.9484C90.3117 79.2559 90.042 79.4847 90.0266 79.4616C90.0204 79.4516 90.0821 79.3853 90.1992 79.2736C90.3155 79.1595 90.495 79.0108 90.7239 78.8421C91.1816 78.5023 91.8604 78.1101 92.6601 77.8489C93.4607 77.5901 94.215 77.5169 94.7566 77.5323C95.0271 77.5392 95.2459 77.5585 95.3954 77.5862C95.5448 77.6101 95.6265 77.6294 95.6258 77.6417Z" fill="#1E397D"/>
<path d="M94.0285 79.0632C94.0224 79.1156 93.2603 78.9977 92.3203 79.0386C91.3788 79.0733 90.626 79.252 90.6168 79.2004C90.606 79.1588 91.3565 78.8991 92.3149 78.8637C93.2727 78.8221 94.037 79.0201 94.0285 79.0632Z" fill="#1E397D"/>
<path d="M90.7015 77.6902C90.7216 77.7364 90.0613 78.1479 89.3262 78.7905C88.5881 79.4292 88.0611 80.0518 88.0287 80.0156C87.9994 79.9871 88.4856 79.3005 89.2368 78.6503C89.9858 77.9961 90.6869 77.6494 90.7015 77.6902Z" fill="#1E397D"/>
<path d="M100.409 81.5296C100.411 81.5311 100.402 81.555 100.38 81.6005C100.354 81.6544 100.322 81.7207 100.283 81.8008C100.197 81.9765 100.062 82.2307 99.8712 82.5443C99.4952 83.1746 98.8741 84.0414 97.9411 84.8889C97.008 85.7319 95.796 86.5725 94.3837 87.3337C92.9722 88.0988 91.3618 88.7691 89.6745 89.4641C86.302 90.8471 83.2501 92.0992 81.0257 93.0115C79.9262 93.4537 79.0324 93.8128 78.3991 94.0678C78.0978 94.1849 77.8582 94.2774 77.6825 94.3459C77.607 94.3729 77.5454 94.396 77.4945 94.4145C77.4522 94.4292 77.4298 94.4346 77.429 94.4315C77.4283 94.4292 77.4491 94.4176 77.4899 94.3968C77.5392 94.3745 77.5993 94.3467 77.6725 94.312C77.8459 94.2365 78.0816 94.1333 78.3798 94.0023C79.0085 93.7357 79.8977 93.3582 80.9903 92.8943C83.2108 91.969 86.2581 90.7008 89.6252 89.2985C91.3125 88.6035 92.919 87.9393 94.3267 87.1865C95.7336 86.4376 96.9448 85.6124 97.8771 84.7903C98.8094 83.9636 99.4358 83.1183 99.8242 82.5035C100.021 82.1984 100.163 81.9503 100.258 81.7815C100.302 81.7045 100.338 81.6421 100.367 81.5905C100.393 81.5481 100.407 81.5273 100.409 81.5296Z" fill="#1E397D"/>
<path d="M65.6641 99.0336C65.6621 99.0398 65.5898 99.0097 65.4544 98.9481C65.3063 98.878 65.1097 98.7848 64.8639 98.6692C64.3532 98.4211 63.6169 98.0551 62.7125 97.5882C60.9026 96.6582 58.4208 95.3229 55.7108 93.7719C53.0028 92.2132 50.5823 90.727 48.8706 89.5666C48.0127 88.9903 47.3316 88.4972 46.867 88.1458C46.6467 87.9732 46.4705 87.8353 46.3376 87.7313C46.2177 87.6342 46.156 87.5818 46.1589 87.5764C46.1618 87.5718 46.2289 87.6149 46.3543 87.7012C46.4906 87.7983 46.6716 87.927 46.898 88.088C47.3712 88.4209 48.0594 88.897 48.9225 89.4587C50.6449 90.5906 53.0706 92.0576 55.7762 93.6148C58.4842 95.1642 60.9575 96.5164 62.7553 97.4757C63.6445 97.9472 64.3689 98.3317 64.8865 98.6068C65.1278 98.7354 65.3204 98.8379 65.4655 98.9157C65.5981 98.9874 65.6661 99.0282 65.6641 99.0336Z" fill="#1E397D"/>
<path d="M46.8709 81.3848C46.8663 81.3755 46.9547 81.3039 47.1249 81.1952C47.2947 81.0858 47.5501 80.9456 47.8783 80.8115C48.5302 80.5395 49.5023 80.3253 50.5634 80.4856C51.6118 80.6335 52.5517 80.9479 53.1617 81.3501C53.4676 81.5466 53.6962 81.743 53.8408 81.8956C53.9861 82.0466 54.056 82.1429 54.05 82.1506C54.0311 82.1776 53.7269 81.8155 53.1135 81.4603C52.5052 81.0958 51.5839 80.8069 50.5447 80.6597C49.5109 80.5041 48.5612 80.6921 47.9113 80.9294C47.2569 81.1644 46.8833 81.414 46.8709 81.3848Z" fill="#1E397D"/>
<path d="M66.2947 92.768C66.2913 92.7726 66.2451 92.7302 66.1605 92.6462C66.064 92.5499 65.9426 92.4274 65.7932 92.2772C65.4753 91.9559 65.0056 91.5036 64.4194 90.9535C63.2479 89.8524 61.5947 88.3808 59.7727 86.7481C59.3188 86.339 58.8755 85.9391 58.4471 85.5531C58.015 85.1786 57.5755 84.8527 57.1514 84.5522C56.3012 83.9551 55.515 83.4458 54.893 82.945C54.2667 82.4519 53.801 81.9819 53.5064 81.6282C53.3543 81.4572 53.2507 81.3077 53.1787 81.2091C53.1072 81.1089 53.0716 81.055 53.0757 81.0511C53.0877 81.0388 53.2389 81.2468 53.5468 81.5797C53.8518 81.9156 54.3223 82.3656 54.9513 82.8417C55.5762 83.3256 56.3638 83.8218 57.222 84.4135C57.6501 84.7117 58.0951 85.0376 58.5341 85.4152C58.9711 85.7958 59.4057 86.2034 59.8636 86.6094C61.685 88.2421 63.3297 89.7299 64.4859 90.8579C65.0644 91.4212 65.5246 91.8889 65.8316 92.2263C65.9874 92.392 66.1022 92.5291 66.1808 92.6208C66.2592 92.7133 66.2984 92.7634 66.2947 92.768Z" fill="#1E397D"/>
<path d="M58.7306 84.3804C58.7398 84.3565 59.1251 84.5414 59.7517 84.8273C60.3784 85.1124 61.2492 85.4899 62.2259 85.8528C63.2034 86.215 64.1006 86.4954 64.7531 86.6842C65.4055 86.8745 65.8115 86.9831 65.8073 87.0086C65.8052 87.0201 65.7014 87.0078 65.5149 86.9747C65.3281 86.9423 65.0598 86.8853 64.7296 86.8052C64.069 86.6464 63.1629 86.3845 62.1809 86.02C61.1993 85.6548 60.3299 85.2572 59.7119 84.9413C59.4025 84.7834 59.155 84.6493 58.9866 84.5499C58.8175 84.4513 58.7263 84.3912 58.7306 84.3804Z" fill="#1E397D"/>
<path d="M61.9025 81.3978C61.9047 81.4232 61.5102 81.4941 60.8727 81.6059C60.2351 81.7183 59.3555 81.8763 58.388 82.0789C57.4201 82.2823 56.5482 82.4919 55.917 82.646C55.2857 82.8001 54.8947 82.8941 54.8895 82.8695C54.8869 82.8579 54.9816 82.8194 55.1549 82.7585C55.3279 82.6976 55.5804 82.6183 55.8935 82.5258C56.5198 82.3401 57.3909 82.1105 58.3618 81.9071C59.3322 81.7037 60.2173 81.5642 60.8595 81.4833C61.1805 81.4425 61.4408 81.4148 61.6213 81.4017C61.8012 81.3878 61.9013 81.3863 61.9025 81.3978Z" fill="#1E397D"/>
<path d="M60.543 79.4231C60.5444 79.4516 60.1479 79.4901 59.5146 79.6011C58.8815 79.712 58.0123 79.9131 57.0799 80.2514C56.1477 80.5919 55.334 81.0034 54.7586 81.3324C54.1828 81.6606 53.8377 81.8925 53.825 81.8679C53.8196 81.8578 53.9005 81.7893 54.0514 81.6737C54.2017 81.5566 54.4267 81.4017 54.7105 81.2222C55.2774 80.8624 56.0934 80.4286 57.0354 80.0842C57.9777 79.7421 58.8597 79.5579 59.5009 79.4786C59.8217 79.4377 60.082 79.4169 60.2624 79.4131C60.4429 79.4084 60.5424 79.4115 60.543 79.4231Z" fill="#1E397D"/>
<path d="M72.072 96.4093L70.3559 101.114C70.9891 101.781 73.3998 102.216 74.2503 102.166C75.101 102.116 76.3268 102.127 77.1725 102.014C78.2473 101.87 79.3329 101.964 80.4124 102.042C81.4918 102.119 82.5821 102.18 83.6485 101.972C84.7156 101.764 85.7696 101.265 86.5293 100.362C87.2883 99.4597 87.7089 98.1129 87.4408 96.8839C87.2089 95.8214 86.4923 94.9593 85.6433 94.4993C84.7942 94.0385 83.8272 93.9461 82.8964 94.0578C81.9665 94.1695 81.0619 94.4754 80.1643 94.7836C79.2104 95.1118 78.2311 95.4477 77.2395 95.3561C77.0377 95.3368 76.8372 95.3453 76.6381 95.3021C75.3418 95.0224 73.9892 95.007 72.8217 95.8684C72.5813 96.0464 72.3156 96.2005 72.072 96.4093Z" fill="#D7DBE6"/>
<path d="M72.3211 96.9494C72.3179 96.9448 72.369 96.8863 72.4722 96.7799C72.5784 96.6782 72.7385 96.5311 72.9654 96.3785C73.4122 96.0788 74.1576 95.7344 75.1036 95.8376C75.569 95.8915 76.0691 96.0025 76.6068 96.098C77.1432 96.1897 77.7226 96.2729 78.3236 96.1959C78.9269 96.125 79.544 95.9154 80.1828 95.6943C80.8207 95.4747 81.4972 95.2443 82.2138 95.1873C82.925 95.1203 83.6354 95.1734 84.2864 95.3969C84.6116 95.5071 84.9221 95.6558 85.2095 95.8361C85.4969 96.011 85.7642 96.2467 85.9723 96.5187C86.396 97.0611 86.6696 97.7014 86.7959 98.3371C86.8576 98.6538 86.876 98.9828 86.8213 99.2832C86.7705 99.5837 86.6703 99.8573 86.5463 100.093C86.2989 100.569 85.9638 100.903 85.6533 101.139C85.3405 101.376 85.0477 101.528 84.808 101.646C84.5669 101.762 84.3766 101.841 84.2471 101.893C84.1185 101.945 84.0491 101.968 84.0476 101.963C84.0453 101.957 84.1115 101.922 84.2371 101.86C84.3627 101.797 84.5492 101.709 84.7849 101.584C85.0192 101.458 85.305 101.297 85.607 101.057C85.9075 100.818 86.2242 100.49 86.4554 100.03C86.6904 99.576 86.8183 98.9797 86.6749 98.3702C86.5501 97.7638 86.2797 97.1451 85.8713 96.6289C85.4684 96.1073 84.872 95.7829 84.2464 95.5625C83.6146 95.3476 82.9234 95.2967 82.2254 95.3622C80.8254 95.4832 79.5841 96.2313 78.3374 96.3577C77.7157 96.4317 77.1262 96.34 76.5878 96.2413C76.0482 96.1396 75.55 96.0218 75.093 95.9617C74.1757 95.8453 73.4417 96.1612 72.9933 96.4386C72.5397 96.726 72.3311 96.9648 72.3211 96.9494Z" fill="#1E397D"/>
<path d="M84.0476 101.963C84.0391 101.97 83.9844 101.898 83.8919 101.758C83.8434 101.69 83.791 101.601 83.7355 101.494C83.6785 101.387 83.6123 101.267 83.5537 101.125C83.4219 100.848 83.3056 100.495 83.1939 100.098C83.0929 99.6962 83.0097 99.2447 82.965 98.7639C82.925 98.2832 82.9288 97.8209 82.9581 97.404C82.9982 96.988 83.0506 96.6143 83.1322 96.3122C83.1646 96.1589 83.2085 96.0248 83.2463 95.907C83.2817 95.7891 83.3179 95.6897 83.3534 95.6119C83.4204 95.4531 83.4612 95.3692 83.4713 95.3738C83.4967 95.3869 83.3549 95.7398 83.2347 96.3431C83.1677 96.6428 83.1276 97.0103 83.0953 97.4171C83.0744 97.8255 83.0752 98.2762 83.113 98.7462C83.1569 99.2162 83.2347 99.6569 83.3264 100.052C83.4281 100.442 83.5314 100.793 83.6485 101.07C83.8711 101.632 84.0699 101.944 84.0476 101.963Z" fill="#1D191F"/>
<path d="M73.1296 95.7529C73.1661 95.7768 73.1211 95.9509 73.0479 96.1535C72.9741 96.3554 72.8976 96.5141 72.8576 96.5003C72.8187 96.4864 72.833 96.2961 72.9104 96.085C72.9871 95.8731 73.094 95.729 73.1296 95.7529Z" fill="#1E397D"/>
<path d="M74.3551 95.1912C74.393 95.212 74.3626 95.3854 74.3063 95.5872C74.2495 95.7899 74.1863 95.9501 74.1457 95.9401C74.1057 95.9309 74.1046 95.7452 74.1643 95.5325C74.2234 95.3206 74.3178 95.1719 74.3551 95.1912Z" fill="#1E397D"/>
<path d="M75.9287 95.1573C75.968 95.1727 75.9477 95.3707 75.8837 95.6003C75.8197 95.8292 75.7359 96.0033 75.6966 95.9879C75.6573 95.9725 75.6776 95.7752 75.7417 95.5456C75.8059 95.316 75.8897 95.1427 75.9287 95.1573Z" fill="#1E397D"/>
<path d="M77.4067 95.3738C77.4468 95.3877 77.4329 95.5864 77.3751 95.8184C77.3181 96.0503 77.2395 96.2275 77.2002 96.2144C77.1609 96.2005 77.1748 96.0017 77.2318 95.7698C77.2888 95.5379 77.3674 95.3607 77.4067 95.3738Z" fill="#1E397D"/>
<path d="M78.6533 96.2884C78.6117 96.2884 78.5794 96.0541 78.5809 95.7652C78.5825 95.4763 78.6171 95.242 78.658 95.2428C78.6996 95.2428 78.7319 95.477 78.7304 95.766C78.7289 96.0549 78.6942 96.2891 78.6533 96.2884Z" fill="#1E397D"/>
<path d="M80.041 95.8761C80.0002 95.8831 79.9416 95.675 79.9108 95.4123C79.88 95.1488 79.8877 94.93 79.9285 94.9238C79.9693 94.9169 80.0279 95.1249 80.0587 95.3884C80.0895 95.6512 80.0818 95.87 80.041 95.8761Z" fill="#1E397D"/>
<path d="M81.3154 94.4038C81.3562 94.3945 81.4217 94.5925 81.4626 94.8452C81.5034 95.098 81.5034 95.3098 81.4633 95.3183C81.4225 95.3276 81.3562 95.1296 81.3162 94.8776C81.2753 94.6249 81.2753 94.413 81.3154 94.4038Z" fill="#1E397D"/>
<path d="M82.9681 94.0478C83.0089 94.0578 82.9928 94.3344 82.9327 94.6657C82.8726 94.9978 82.7917 95.2574 82.7516 95.2474C82.7108 95.2374 82.7269 94.9608 82.787 94.6295C82.8464 94.2982 82.928 94.0377 82.9681 94.0478Z" fill="#1E397D"/>
<path d="M84.3851 94.0948C84.422 94.114 84.3211 94.4207 84.1593 94.7782C83.9967 95.1357 83.8365 95.4046 83.801 95.3799C83.7663 95.3545 83.8673 95.0479 84.0268 94.6958C84.187 94.3436 84.3473 94.0747 84.3851 94.0948Z" fill="#1E397D"/>
<path d="M85.8289 94.5409C85.8636 94.5671 85.7311 94.8776 85.5323 95.2343C85.3335 95.591 85.1447 95.8584 85.1108 95.8322C85.0762 95.8052 85.2087 95.4955 85.4075 95.1388C85.6055 94.782 85.7943 94.5139 85.8289 94.5409Z" fill="#1E397D"/>
<path d="M86.7574 95.561C86.7913 95.5887 86.6649 95.87 86.4762 96.1889C86.2866 96.5079 86.1055 96.7445 86.0724 96.7167C86.0385 96.689 86.1641 96.4078 86.3529 96.0888C86.5424 95.7698 86.7235 95.5332 86.7574 95.561Z" fill="#1E397D"/>
<path d="M87.4077 96.8608C87.4408 96.8886 87.3129 97.1613 87.0949 97.4433C86.8768 97.7261 86.658 97.9018 86.631 97.8663C86.6033 97.8293 86.7728 97.6005 86.9839 97.3262C87.1966 97.0519 87.3738 96.8316 87.4077 96.8608Z" fill="#1E397D"/>
<path d="M87.3137 98.8418C87.3453 98.8703 87.2705 99.0336 87.1018 99.1207C86.9323 99.2085 86.7797 99.1631 86.7828 99.1161C86.7843 99.066 86.9076 99.0313 87.0417 98.9604C87.1765 98.8926 87.2813 98.8094 87.3137 98.8418Z" fill="#1E397D"/>
<path d="M86.3945 100.538C86.4083 100.584 86.3675 100.64 86.3051 100.628C86.2427 100.615 86.2203 100.545 86.2465 100.508C86.272 100.47 86.3074 100.451 86.3313 100.455C86.3536 100.461 86.3821 100.492 86.3945 100.538Z" fill="#1E397D"/>
<path d="M76.3889 101.209C76.3485 101.182 76.724 100.546 76.8581 99.6338C77.0033 98.7239 76.8397 97.9749 76.8861 97.9649C76.918 97.9433 77.1563 98.7077 77.0053 99.6646C76.863 100.623 76.4124 101.243 76.3889 101.209Z" fill="#1D191F"/>
<path d="M77.5724 101.05C77.5323 101.021 77.8867 100.439 78.0015 99.5961C78.1271 98.7547 77.9545 98.0682 78.0007 98.0566C78.0316 98.0327 78.2804 98.7339 78.1487 99.6246C78.0254 100.518 77.5947 101.085 77.5724 101.05Z" fill="#1D191F"/>
<path d="M79.0602 101.061C79.0209 101.031 79.4416 100.419 79.5795 99.4982C79.7313 98.5798 79.5248 97.8324 79.571 97.8209C79.588 97.8139 79.6627 97.9896 79.7197 98.2994C79.7767 98.6076 79.8014 99.0521 79.7274 99.5298C79.6511 100.008 79.4924 100.412 79.3453 100.676C79.1973 100.941 79.074 101.074 79.0602 101.061Z" fill="#1D191F"/>
<path d="M80.7414 100.944C80.699 100.919 81.0334 100.249 81.1282 99.3226C81.2337 98.3987 81.0534 97.6521 81.0997 97.6398C81.1313 97.6182 81.3855 98.3764 81.2761 99.3449C81.1752 100.315 80.7676 100.974 80.7414 100.944Z" fill="#1D191F"/>
<path d="M76.0881 99.4659C76.0899 99.4751 76.0049 99.5106 75.8445 99.5052C75.6856 99.499 75.4511 99.4374 75.2059 99.2602C74.9594 99.0853 74.7184 98.7948 74.4926 98.4511C74.3815 98.2809 74.2512 98.0967 74.183 97.8502C74.1502 97.7277 74.1362 97.5928 74.1572 97.4557C74.177 97.3185 74.2427 97.1837 74.3365 97.0928C74.525 96.9086 74.78 96.8747 74.9898 96.9487C75.2006 97.0211 75.3668 97.1729 75.502 97.3285C75.7713 97.6437 75.9412 97.9981 76.0411 98.3094C76.1409 98.6222 76.1728 98.8919 76.1814 99.076C76.1886 99.2609 76.1754 99.3619 76.1664 99.3619C76.138 99.3657 76.1558 98.9489 75.9429 98.3564C75.8354 98.0644 75.6638 97.7338 75.4061 97.4441C75.2781 97.3023 75.1258 97.1721 74.9499 97.1136C74.7789 97.0542 74.5738 97.0881 74.4331 97.2261C74.2897 97.3609 74.2682 97.5974 74.323 97.7993C74.3767 98.0035 74.4934 98.1815 74.6022 98.3533C74.8185 98.6962 75.0394 98.9782 75.2635 99.1554C75.7189 99.5214 76.0939 99.4358 76.0881 99.4659Z" fill="#1D191F"/>
<path d="M76.0076 99.4142C76.0171 99.4181 75.9979 99.5098 75.952 99.6708C75.9046 99.8311 75.835 100.064 75.7075 100.333C75.581 100.6 75.3842 100.914 75.0686 101.12C74.9128 101.223 74.7257 101.295 74.5248 101.294C74.3274 101.293 74.0957 101.216 73.9654 100.976C73.8391 100.725 73.9166 100.438 74.0273 100.249C74.1427 100.056 74.3002 99.9158 74.4594 99.8249C74.7805 99.6408 75.0918 99.5868 75.3429 99.5283C75.8493 99.4166 76.1646 99.3588 76.1689 99.3826C76.1732 99.4065 75.8659 99.5067 75.3653 99.6492C75.1165 99.7224 74.8132 99.791 74.5231 99.9682C74.3788 100.055 74.2454 100.181 74.1487 100.346C74.0566 100.505 74.0093 100.726 74.0939 100.885C74.1766 101.046 74.3616 101.122 74.526 101.122C74.697 101.125 74.8617 101.066 75.0035 100.978C75.2916 100.8 75.484 100.519 75.6172 100.27C75.8748 99.7602 75.9813 99.3996 76.0076 99.4142Z" fill="#1D191F"/>
<path d="M75.901 100.847C75.868 100.813 76.0332 100.555 76.0818 100.18C76.1374 99.8056 76.0507 99.499 76.0909 99.4797C76.1234 99.4528 76.2915 99.7741 76.2292 100.208C76.171 100.642 75.9245 100.884 75.901 100.847Z" fill="#1D191F"/>
<path d="M76.5403 98.4958C76.579 98.5097 76.5452 98.7655 76.4186 99.0421C76.2929 99.3187 76.1303 99.4936 76.0993 99.4636C76.0663 99.4327 76.1687 99.2201 76.2869 98.9596C76.4063 98.6992 76.5001 98.4812 76.5403 98.4958Z" fill="#1D191F"/>
<path d="M81.1367 95.9933C81.1436 96.0125 80.9063 96.1643 80.4971 96.3462C80.0888 96.5288 79.5055 96.7283 78.8444 96.8447C78.1826 96.9587 77.5754 96.9672 77.1393 96.9317C76.7031 96.8978 76.438 96.8339 76.4403 96.8123C76.4434 96.7553 77.5177 96.9048 78.8221 96.6705C80.1281 96.4494 81.1189 95.9401 81.1367 95.9933Z" fill="#5D80D9"/>
<path d="M80.4232 101.448C80.4263 101.496 79.7213 101.592 78.8491 101.662C77.9761 101.732 77.2672 101.75 77.2642 101.701C77.2611 101.653 77.9661 101.558 78.8383 101.488C79.7105 101.418 80.4201 101.4 80.4232 101.448Z" fill="#5D80D9"/>
<path d="M84.2309 101.579C84.2209 101.539 84.6778 101.582 85.2418 101.14C85.5154 100.921 85.8043 100.58 85.9915 100.115C86.1803 99.6539 86.2419 99.0683 86.1472 98.485C86.0493 97.9018 85.8128 97.3855 85.5115 97.0103C85.2118 96.6312 84.8666 96.3793 84.5623 96.2152C83.9451 95.8923 83.509 95.8908 83.5144 95.8546C83.5152 95.8453 83.6223 95.8361 83.8133 95.8607C84.0052 95.8854 84.2818 95.9493 84.6046 96.1011C84.9236 96.2568 85.2904 96.5064 85.6109 96.9001C85.9345 97.2892 86.1903 97.8347 86.2936 98.4527C86.3937 99.0698 86.3251 99.6947 86.1156 100.186C85.9091 100.678 85.5939 101.028 85.2996 101.244C85.0007 101.46 84.7225 101.55 84.5307 101.578C84.3373 101.606 84.2302 101.586 84.2309 101.579Z" fill="#5D80D9"/>
<path d="M66.0812 93.3081L73.552 97.1929C73.552 97.1929 73.7018 98.9897 73.0932 100.45C72.5467 101.761 70.8903 101.498 70.8903 101.498L64.3278 99.7086L65.7902 98.7016L66.0812 93.3081Z" fill="#CDD8F3"/>
<path d="M72.7475 101.138C72.4614 100.882 72.1721 100.624 71.9452 100.296C71.7182 99.9698 71.5561 99.5622 71.5673 99.1407C71.5774 98.7585 71.7266 98.4003 71.889 98.069C72.0689 97.6999 72.2915 97.3239 72.6303 97.1744C73.0432 96.9934 73.5018 97.2006 73.8954 97.4333L73.9749 99.3834L72.7475 101.138Z" fill="#D7DBE6"/>
<path d="M73.5523 97.1929C73.5357 97.2376 71.8495 96.4032 69.7868 95.3307C67.7232 94.2574 66.0645 93.352 66.0815 93.3081C66.0981 93.2634 67.7841 94.0979 69.8473 95.1704C71.91 96.2437 73.569 97.149 73.5523 97.1929Z" fill="#5D80D9"/>
<path d="M82.0358 61.9177C82.3332 61.9292 82.5867 61.6587 82.5975 61.3094C82.6815 58.5463 81.1266 52.2806 80.38 49.6809C79.9239 48.0906 78.3837 46.9323 77.3058 46.077C76.0032 45.0442 71.3959 43.7799 69.8807 43.2873L69.3699 43.288L62.332 42.6713L58.4571 44.8497C58.4571 44.8497 53.0831 47.2357 51.5251 50.5594C49.9674 53.8833 48.7825 63.6372 48.7825 63.6372C48.7825 63.6372 48.0686 66.4219 48.7825 67.6798C49.2269 68.4627 50.8813 69.1413 52.3713 69.4767C51.5653 72.6251 52.2008 74.962 52.1722 75.3636C52.1133 76.192 51.5719 78.1178 52.8418 77.9992C54.1117 77.8805 64.0527 74.8045 67.0034 74.6666C69.9541 74.5287 72.5487 75.6685 74.1612 76.7266C75.6501 77.7033 75.6369 77.7757 76.1668 76.0497C76.6968 74.3237 75.0031 72.3886 75.0031 72.3886C75.0031 72.3886 76.5257 65.9462 77.2318 61.7353L82.0358 61.9177Z" fill="#1E397D"/>
<path d="M58.375 58.1798C58.367 58.1872 58.2878 58.0868 58.1521 57.8995C57.9966 57.6828 57.8058 57.4167 57.5809 57.1032C57.0931 56.439 56.4225 55.5101 55.5635 54.6354C55.1334 54.1997 54.6998 53.8179 54.2795 53.5184C53.8563 53.2274 53.4615 52.9876 53.1108 52.8409C52.4154 52.5293 51.952 52.4533 51.958 52.4173C51.9597 52.4052 52.0748 52.421 52.2834 52.46C52.3881 52.4761 52.5149 52.5054 52.659 52.5536C52.8042 52.5972 52.9705 52.6447 53.1471 52.7248C53.5083 52.8587 53.9151 53.0915 54.3501 53.3801C54.7819 53.6772 55.2255 54.0618 55.661 54.5032C56.5318 55.39 57.1938 56.3384 57.6623 57.0247C57.8938 57.3716 58.0766 57.6562 58.1977 57.8574C58.3199 58.0579 58.3833 58.1724 58.375 58.1798Z" fill="#1D191F"/>
<path d="M57.0902 67.4804C57.0902 67.4925 56.9665 67.5033 56.743 67.5127C56.5192 67.5228 56.1956 67.5275 55.7953 67.5231C54.9954 67.5134 53.8867 67.4636 52.6748 67.2533C51.4625 67.0417 50.3897 66.6787 49.6449 66.3285C49.2721 66.1545 48.976 65.9974 48.7784 65.8726C48.5795 65.7508 48.4722 65.6788 48.4768 65.668C48.4888 65.6394 48.9324 65.8975 49.6819 66.2124C50.4302 66.5304 51.4944 66.8701 52.6969 67.0801C53.8991 67.2887 55.0008 67.3579 55.7982 67.3993C56.1729 67.4172 56.4891 67.4323 56.7433 67.4444C56.9665 67.4562 57.0902 67.4683 57.0902 67.4804Z" fill="#1D191F"/>
<path d="M71.9901 70.6379C71.9989 70.6442 71.9619 70.7324 71.8873 70.8875C71.8145 71.0436 71.6945 71.2599 71.5347 71.5173C71.2165 72.0327 70.7115 72.6961 70.0567 73.2974C69.4003 73.8966 68.7286 74.31 68.2254 74.5472C67.9737 74.6667 67.7657 74.7504 67.6188 74.7955C67.4724 74.8426 67.3904 74.8632 67.3875 74.8517C67.3798 74.8238 67.6966 74.6983 68.1831 74.4338C68.6698 74.1707 69.3199 73.7482 69.9649 73.1594C70.6082 72.5686 71.1155 71.9314 71.4512 71.4419C71.788 70.9521 71.9685 70.6224 71.9901 70.6379Z" fill="#1D191F"/>
<path d="M72.118 73.2223C72.129 73.2395 71.9591 73.4192 71.6504 73.6556C71.3422 73.8925 70.8894 74.1765 70.3578 74.3982C69.8255 74.6185 69.3212 74.7319 68.9545 74.775C68.5875 74.8187 68.3591 74.8046 68.3582 74.7834C68.3537 74.7275 69.2641 74.6727 70.3075 74.233C71.3546 73.8047 72.0919 73.1755 72.118 73.2223Z" fill="#1D191F"/>
<path d="M80.38 49.6812C80.39 49.6842 80.3777 49.7852 80.3469 49.9662C80.3168 50.1475 80.2598 50.4066 80.1774 50.7225C80.0133 51.3543 79.7228 52.2088 79.2898 53.0836C78.8552 53.9573 78.3652 54.6756 77.9776 55.1554C77.7842 55.3956 77.6201 55.5816 77.5007 55.7017C77.3813 55.8231 77.3127 55.8858 77.3058 55.8767C77.2888 55.8558 77.5354 55.5695 77.899 55.0726C78.2627 54.5767 78.7319 53.8571 79.1611 52.9954C79.588 52.1328 79.8892 51.2988 80.0772 50.6831C80.266 50.0678 80.3561 49.6745 80.38 49.6812Z" fill="#1D191F"/>
<path d="M82.1868 60.4401C82.1876 60.4636 81.9218 60.4895 81.4926 60.5036C81.0627 60.5178 80.4694 60.5178 79.8137 60.4885C79.1588 60.4586 78.5663 60.4047 78.1394 60.3519C77.7118 60.2991 77.4491 60.2496 77.4506 60.2261C77.4522 60.2015 77.7188 60.2072 78.1471 60.2284C78.6302 60.253 79.1958 60.2816 79.8199 60.3136C80.444 60.3384 81.0095 60.3606 81.4934 60.3798C81.921 60.397 82.1868 60.4152 82.1868 60.4401Z" fill="#1D191F"/>
<path d="M76.5807 50.7935C76.5907 50.7914 76.6254 50.9499 76.679 51.2379C76.7368 51.5598 76.8099 51.9697 76.8977 52.4598C77.0746 53.4927 77.3296 54.9215 77.4822 56.5264C77.6332 58.1324 77.5901 59.6057 77.4645 60.6533C77.4005 61.1769 77.335 61.5984 77.2711 61.8844C77.2118 62.1717 77.174 62.3288 77.164 62.3261C77.154 62.3235 77.1725 62.1613 77.2141 61.8709C77.2603 61.5819 77.3096 61.16 77.3597 60.6385C77.4576 59.5949 77.4838 58.1398 77.3335 56.5451C77.1825 54.9518 76.9447 53.522 76.7941 52.483C76.7178 51.9636 76.6575 51.5427 76.6223 51.2503C76.5858 50.958 76.5706 50.7955 76.5807 50.7935Z" fill="#1D191F"/>
<path d="M58.3752 59.3441C58.3855 59.3458 58.378 59.4837 58.3562 59.732C58.3344 59.9803 58.2974 60.3386 58.2478 60.7807C58.1471 61.6645 57.995 62.8841 57.7856 64.2234C57.5758 65.5631 57.3379 66.7672 57.1096 67.6214C56.9977 68.049 56.884 68.3872 56.7988 68.6166C56.7047 68.8424 56.6488 68.9638 56.6393 68.9584C56.6167 68.9456 56.8178 68.448 57.008 67.5864C57.2089 66.7298 57.4292 65.5278 57.6384 64.1914C57.8475 62.8555 58.016 61.6406 58.1431 60.7622C58.2044 60.3521 58.2564 60.0045 58.2986 59.7223C58.3385 59.4773 58.3652 59.3424 58.3752 59.3441Z" fill="#1D191F"/>
<path d="M57.409 53.9821C57.4265 53.973 57.5436 54.2216 57.6954 54.6434C57.8474 55.0654 58.0284 55.6635 58.1751 56.3418C58.3208 57.0207 58.4041 57.6481 58.441 58.104C58.4783 58.5602 58.4763 58.8439 58.4571 58.8456C58.4118 58.8503 58.3225 57.7269 58.0302 56.3848C57.7438 55.0415 57.3671 54.0029 57.409 53.9821Z" fill="#1D191F"/>
<path d="M65.53 65.9145C65.5263 65.9118 65.5538 65.8462 65.6104 65.7221C65.6741 65.5862 65.7582 65.4065 65.864 65.1811C66.0967 64.6983 66.4241 64.0201 66.8307 63.1766C67.6714 61.4614 68.8394 59.0785 70.1813 56.3413L70.2757 56.4604C69.4287 56.9431 68.5134 57.4209 67.5554 57.866C66.4008 58.4026 65.2644 58.8561 64.2028 59.2235L63.9786 59.3009L64.127 59.0899C65.7478 56.783 67.1474 54.791 68.1522 53.3611C68.6477 52.666 69.0454 52.1086 69.3286 51.7109C69.4615 51.5292 69.5673 51.3846 69.6477 51.2746C69.7214 51.1763 69.761 51.1269 69.7644 51.1299C69.7676 51.1329 69.7343 51.1888 69.6669 51.2927C69.5911 51.4071 69.4913 51.5575 69.3659 51.7462C69.0905 52.151 68.7037 52.7192 68.2217 53.4274C67.2275 54.867 65.8419 56.8728 64.2378 59.1956L64.162 59.062C65.2184 58.6913 66.3501 58.2374 67.5003 57.7025C68.4549 57.2587 69.3673 56.7847 70.2126 56.3066L70.427 56.1855L70.307 56.426C68.947 59.1512 67.7631 61.5234 66.9113 63.2308C66.489 64.0635 66.1495 64.7333 65.9076 65.21C65.7932 65.4297 65.7019 65.6043 65.633 65.7365C65.5688 65.8563 65.5338 65.9172 65.53 65.9145Z" fill="#FAFAFA"/>
<g opacity="0.3">
<path d="M70.6765 75.1224C71.0142 75.2257 71.6649 74.0229 72.0391 73.2878C70.8868 74.035 69.785 74.9299 68.4982 74.6036C69.9426 74.1878 71.1057 72.8545 71.5975 71.2086C70.6473 72.8444 69.4206 74.0047 67.8274 74.6568C67.8268 74.6564 70.1394 74.9579 70.6765 75.1224Z" fill="#1D191F"/>
</g>
<path d="M57.409 39.3897C57.4145 39.3736 57.6056 39.4856 57.9749 39.5812C58.3355 39.6676 58.9171 39.7464 59.5225 39.4028C59.8181 39.2302 60.1087 38.9453 60.3024 38.5513C60.4995 38.1631 60.5767 37.6497 60.4275 37.1716C60.2871 36.7019 59.9377 36.2578 59.4781 36.1764C59.029 36.096 58.5192 36.4315 58.3364 36.957C58.2431 37.218 58.2609 37.5144 58.3631 37.762C58.4672 38.009 58.6442 38.2105 58.8486 38.3397C59.0511 38.4726 59.2812 38.5422 59.5033 38.5375C59.7274 38.5338 59.9471 38.4662 60.1445 38.3609C60.5425 38.1486 60.859 37.8041 61.1029 37.4444C61.3477 37.0818 61.5284 36.7012 61.6535 36.3352C61.9089 35.6021 61.9542 34.9484 61.9533 34.5077C61.9482 34.0636 61.9063 33.8197 61.9203 33.817C61.9255 33.816 61.9387 33.8759 61.959 33.9916C61.9788 34.1074 62.0003 34.2807 62.0113 34.5057C62.0299 34.9524 62.0009 35.6216 61.7516 36.3806C61.6293 36.7595 61.4492 37.1551 61.2002 37.534C60.9514 37.9101 60.6257 38.2754 60.2014 38.5073C59.9905 38.622 59.7535 38.698 59.5056 38.7044C59.2562 38.7108 59.0026 38.6354 58.7774 38.4894C58.551 38.3468 58.3504 38.1237 58.2291 37.8374C58.1091 37.5525 58.0879 37.1965 58.1972 36.8914C58.4133 36.2838 58.9754 35.916 59.4999 36.0062C60.029 36.1051 60.4071 36.6034 60.5571 37.1178C60.7181 37.6446 60.6257 38.2135 60.4091 38.624C60.1959 39.0438 59.8837 39.3382 59.5687 39.5135C58.922 39.8607 58.3249 39.7544 57.9614 39.6467C57.7752 39.5889 57.636 39.5243 57.5442 39.4752C57.4527 39.4264 57.407 39.3948 57.409 39.3897Z" fill="#1D191F"/>
<path d="M79.9046 31.9846C80.0156 30.6193 79.638 29.1885 78.8229 28.2047C78.0077 27.2209 76.7539 26.7338 75.6154 27.0483C74.8023 27.2728 74.0089 27.6479 73.4328 28.383C73.1958 28.6949 73.151 28.7541 72.9883 29.1258C72.9694 29.1683 72.951 29.212 72.9332 29.2564C72.9106 29.3116 72.8894 29.3674 72.8684 29.4236C72.865 29.433 72.8613 29.4414 72.8578 29.4508L72.8598 29.4471C72.5118 30.3979 72.4076 31.4711 72.607 32.4784C72.9097 34.0082 73.9188 35.3321 75.1965 35.8034C76.4742 36.2751 77.9722 35.8495 78.8914 34.707C79.4809 33.9732 79.823 32.9885 79.9046 31.9846Z" fill="#1D191F"/>
<path d="M79.3899 34.2288C79.3637 34.2349 79.3121 33.8473 79.111 33.2713C78.9138 32.6981 78.537 31.939 77.9345 31.3092C77.332 30.6791 76.6454 30.3279 76.137 30.1637C75.6257 29.9955 75.2918 29.98 75.2938 29.949C75.2941 29.9379 75.3778 29.9302 75.5288 29.9372C75.6799 29.944 75.8983 29.9733 76.1631 30.0436C76.6902 30.1802 77.409 30.525 78.0339 31.1783C78.6587 31.831 79.0332 32.6287 79.2096 33.2269C79.2998 33.5273 79.3491 33.7784 79.373 33.9536C79.3961 34.1289 79.3992 34.2272 79.3899 34.2288Z" fill="#1E397D"/>
<path d="M78.2696 31.572C78.2858 31.5791 78.2072 31.8916 78.0069 32.3623C77.8074 32.8316 77.4691 33.4517 76.9872 34.0273C76.5037 34.6013 75.9801 35.0077 75.5832 35.2489C75.185 35.4911 74.9199 35.5876 74.9135 35.5695C74.8857 35.514 75.9356 35.0359 76.8807 33.9045C77.8305 32.7788 78.2219 31.54 78.2696 31.572Z" fill="#1E397D"/>
<path d="M75.1733 30.1267C75.1288 30.0971 75.4731 29.4484 75.7592 28.5919C76.0536 27.7313 76.0166 26.9676 76.0605 26.9662C76.078 26.9642 76.1156 27.1533 76.1104 27.4659C76.1066 27.7777 76.0435 28.2094 75.8992 28.6538C75.6023 29.5407 75.1988 30.1473 75.1733 30.1267Z" fill="#5D80D9"/>
<path d="M70.177 46.5825C70.177 46.5825 70.1745 46.6359 70.177 46.5825V46.5825Z" fill="#CDD8F3"/>
<path d="M75.2166 28.9542C75.3526 25.023 72.8635 21.4824 69.4655 21.0841C65.8603 20.6611 62.7266 23.7523 62.4942 27.8672L61.9157 44.4743C61.9046 44.7956 61.9875 45.1108 62.1464 45.373C62.9997 46.7783 64.5227 47.8589 65.8695 48.0483C67.1744 48.2316 68.4886 47.806 69.5831 47.0602C69.9539 46.8075 70.1762 46.3355 70.1759 45.8326L70.1745 42.1179C70.1745 42.1038 70.1834 42.0924 70.1957 42.0931C70.392 42.1055 70.8921 42.1035 71.0829 42.0446C71.9169 41.7869 74.0365 40.7776 74.6938 37.0879C74.9113 35.8639 75.0972 32.4003 75.2166 28.9542Z" fill="#CDD8F3"/>
<path d="M70.6513 34.4797C70.6502 34.443 71.0002 34.3945 71.5666 34.3451C71.7101 34.3367 71.8464 34.3121 71.8748 34.2011C71.9129 34.0843 71.8602 33.9033 71.7985 33.7079C71.6799 33.3017 71.5557 32.8762 71.4251 32.4301C70.9085 30.6113 70.5412 29.1196 70.6046 29.0967C70.668 29.0738 71.1385 30.5292 71.6553 32.348C71.7793 32.7961 71.898 33.2234 72.0108 33.6321C72.0576 33.8222 72.1422 34.0399 72.0596 34.2821C72.0165 34.4029 71.9081 34.4857 71.8154 34.5086C71.7227 34.5351 71.6423 34.5321 71.5715 34.5328C71.0037 34.5344 70.6522 34.5166 70.6513 34.4797Z" fill="#1D191F"/>
<path d="M73.8534 31.4314C73.8509 31.7483 73.6162 32.0049 73.329 32.0056C73.0426 32.0063 72.812 31.7506 72.8145 31.4337C72.8174 31.1171 73.0521 30.8597 73.3384 30.859C73.6254 30.8583 73.8561 31.1148 73.8534 31.4314Z" fill="#1D191F"/>
<path d="M74.3696 29.6031C74.3186 29.6686 73.9023 29.6374 73.3726 29.8476C72.8424 30.0529 72.4957 30.3833 72.4283 30.3637C72.3956 30.3563 72.4398 30.2568 72.5899 30.1097C72.7374 29.9644 73.003 29.7747 73.3336 29.6451C73.6641 29.5159 73.9607 29.4846 74.1395 29.5021C74.322 29.5193 74.3951 29.5728 74.3696 29.6031Z" fill="#1D191F"/>
<path d="M68.4708 31.0178C68.4681 31.3344 68.2331 31.5914 67.9462 31.5921C67.6599 31.5928 67.4292 31.3371 67.4318 31.0205C67.4344 30.7039 67.6694 30.4465 67.9557 30.4458C68.2429 30.4448 68.4733 30.7009 68.4708 31.0178Z" fill="#1D191F"/>
<path d="M68.6535 30.1417C68.5723 30.146 68.2676 29.7599 67.7225 29.4547C67.1799 29.1452 66.7013 29.089 66.6608 29.0156C66.6402 28.9817 66.7369 28.9457 66.9472 28.9676C67.1541 28.9877 67.4805 29.0782 67.82 29.2697C68.1589 29.4614 68.4096 29.6969 68.5379 29.8658C68.6687 30.0374 68.6925 30.141 68.6535 30.1417Z" fill="#1D191F"/>
<path d="M70.1742 42.0918C70.1742 42.0918 68.008 42.1672 65.3812 40.1358C65.3812 40.1358 66.1048 43.4752 70.1759 43.2798L70.1742 42.0918Z" fill="#5D80D9"/>
<path d="M70.3548 36.0184C70.1657 35.7001 69.82 35.5107 69.4685 35.5332C69.2248 35.5487 68.9744 35.6692 68.818 35.8878C68.6616 36.1069 68.6183 36.4282 68.7437 36.6532C68.8851 36.9066 69.1979 36.9819 69.4682 36.9106C69.7385 36.8393 69.9758 36.6505 70.2015 36.4614C70.2641 36.4093 70.3278 36.3548 70.3686 36.2805C70.409 36.2061 70.421 36.1069 70.3771 36.0406" fill="#5D80D9"/>
<path d="M68.9889 34.8274C69.0802 34.8267 69.0541 35.5261 69.5542 36.0533C70.0531 36.5822 70.703 36.5422 70.7039 36.6404C70.7108 36.6848 70.5547 36.7675 70.2813 36.7598C70.013 36.7545 69.6259 36.6319 69.3198 36.3093C69.0147 35.986 68.8942 35.5719 68.8848 35.2836C68.8733 34.9899 68.9476 34.8206 68.9889 34.8274Z" fill="#1D191F"/>
<path d="M69.0311 27.5401C68.9519 27.7019 68.4131 27.5079 67.7531 27.4661C67.0938 27.4089 66.5406 27.521 66.4772 27.3484C66.4497 27.2663 66.5639 27.1223 66.7989 26.9978C67.0318 26.8733 67.3885 26.7824 67.7841 26.8117C68.1795 26.842 68.5249 26.9853 68.7448 27.1441C68.9663 27.3023 69.0661 27.4628 69.0311 27.5401Z" fill="#1D191F"/>
<path d="M74.359 27.6406C74.2549 27.7812 73.8758 27.6063 73.4131 27.5716C72.9514 27.5181 72.554 27.6187 72.4697 27.4606C72.4332 27.3839 72.5007 27.2409 72.6771 27.1127C72.8512 26.9849 73.1382 26.8886 73.4558 26.9189C73.7734 26.9495 74.044 27.0986 74.1992 27.258C74.3573 27.4179 74.4052 27.5716 74.359 27.6406Z" fill="#1D191F"/>
<path d="M69.9497 20.243C69.6481 19.6667 69.1 19.4123 68.4915 19.3178C66.0067 18.9322 63.2681 20.7426 61.919 23.2194C60.5699 25.6962 60.5538 29.3476 61.6134 32.0111L62.5456 32.1814C64.4795 32.0031 67.635 25.6071 70.2937 22.054C70.6236 21.6129 70.2116 20.7436 69.9497 20.243Z" fill="#1D191F"/>
<path d="M74.7239 22.0451C73.6651 20.6855 71.9542 19.036 69.8178 20.044C69.5122 20.7575 70.1652 21.6601 70.707 22.1843C71.5 22.9517 72.1906 23.4668 72.7116 24.0172C73.7652 25.1298 75.0782 26.9798 75.2127 29.0607C75.2214 29.1912 75.3066 29.2084 75.4182 29.1855C75.5629 29.1563 75.8828 28.2983 76.0354 27.1635C76.361 24.7436 75.7826 23.4046 74.7239 22.0451Z" fill="#1D191F"/>
<path d="M62.6968 28.38C62.5868 27.8282 62.3588 27.3064 62.0443 26.8707C61.8374 26.5837 61.5938 26.3331 61.3198 26.1386C60.3193 25.4285 58.9983 25.4389 57.9646 26.0808C56.9308 26.7223 56.1951 27.947 55.9426 29.2863C55.757 30.2711 55.8233 31.3315 56.192 32.2426C56.7661 33.6613 58.0799 34.6074 59.4193 34.6198C60.7586 34.6326 62.0661 33.7374 62.7562 32.3913C63.2427 31.4415 63.1154 29.7654 62.6968 28.38Z" fill="#1D191F"/>
<path d="M63.14 30.8433C63.082 30.8076 60.7757 29.7963 60.6753 32.6226C60.5749 35.449 63.0158 34.9841 63.0226 34.9034C63.0298 34.8226 63.14 30.8433 63.14 30.8433Z" fill="#CDD8F3"/>
<path d="M62.3245 33.7969C62.3142 33.7871 62.2811 33.8291 62.2088 33.8638C62.1382 33.8974 62.0186 33.9173 61.8946 33.856C61.6439 33.7339 61.4462 33.2495 61.4528 32.7394C61.4557 32.4821 61.5105 32.2392 61.5954 32.0403C61.6763 31.8371 61.7957 31.6982 61.9247 31.6776C62.0536 31.6494 62.1411 31.7436 62.1678 31.8246C62.1973 31.9054 62.1802 31.9609 62.1927 31.9663C62.199 31.9737 62.2461 31.9216 62.2309 31.8038C62.2228 31.7473 62.197 31.6793 62.1426 31.6221C62.0866 31.5639 62.0026 31.532 61.913 31.539C61.7265 31.5451 61.5521 31.7372 61.4588 31.9558C61.3552 32.1749 61.2887 32.4474 61.2852 32.7364C61.2804 33.3067 61.5101 33.8517 61.8545 33.9869C62.0223 34.0471 62.1658 33.994 62.2413 33.9311C62.3175 33.8648 62.3328 33.8023 62.3245 33.7969Z" fill="#5D80D9"/>
<path d="M75.2197 22.6109C75.2214 22.6324 74.9545 22.6886 74.5173 22.7192C74.0806 22.7502 73.4729 22.7455 72.8081 22.6519C72.1435 22.557 71.5522 22.3922 71.1342 22.2401C70.7158 22.0884 70.468 21.9592 70.474 21.9387C70.4811 21.9134 70.7406 22.0005 71.162 22.1207C71.5835 22.2411 72.17 22.3844 72.8259 22.4779C73.4817 22.5702 74.0806 22.5944 74.5141 22.5954C74.9482 22.5968 75.2177 22.5846 75.2197 22.6109Z" fill="#1E397D"/>
<path d="M76.0319 24.6379C76.0359 24.6577 75.8394 24.7368 75.5071 24.7836C75.176 24.831 74.7075 24.829 74.2065 24.7018C73.7059 24.5727 73.2792 24.3452 72.9949 24.1403C72.7094 23.9354 72.5593 23.7676 72.5699 23.7514C72.5946 23.7026 73.2608 24.2884 74.2384 24.5309C75.2127 24.7883 76.0268 24.5814 76.0319 24.6379Z" fill="#1E397D"/>
<path d="M61.6125 24.1839C61.6165 24.1482 62.1349 24.2569 62.9762 24.2297C63.3972 24.2273 63.8952 24.1536 64.4438 24.0534C64.9902 23.9326 65.584 23.7603 66.1929 23.5221C66.8006 23.2783 67.3615 22.9906 67.8613 22.7039C68.3551 22.4041 68.7935 22.1168 69.1427 21.84C69.848 21.2993 70.2417 20.8926 70.26 20.9175C70.2669 20.9266 70.1725 21.0332 69.9957 21.2189C69.9088 21.3141 69.7972 21.4231 69.663 21.5426C69.53 21.6647 69.3794 21.8046 69.2021 21.9422C68.8576 22.2346 68.42 22.536 67.9242 22.8472C67.4224 23.145 66.8563 23.4407 66.2414 23.6873C65.625 23.9285 65.022 24.0981 64.4676 24.2119C63.9105 24.305 63.4046 24.3663 62.9785 24.3528C62.7656 24.3596 62.5734 24.342 62.4049 24.3266C62.2363 24.3158 62.0916 24.2966 61.9746 24.2703C61.739 24.226 61.6108 24.1957 61.6125 24.1839Z" fill="#1E397D"/>
<path d="M70.0994 21.908C70.108 21.9144 70.0394 22.0537 69.9071 22.301C69.842 22.4255 69.76 22.5762 69.6526 22.7411C69.5461 22.9066 69.434 23.1037 69.2865 23.2998C69.0062 23.7059 68.642 24.1618 68.2028 24.6238C67.7592 25.0793 67.2411 25.5419 66.6557 25.9523C66.0672 26.3567 65.4719 26.6679 64.9167 26.9024C64.3583 27.1275 63.841 27.2782 63.4009 27.3619C63.1826 27.4158 62.9805 27.4309 62.8053 27.4565C62.6299 27.4837 62.4776 27.4908 62.3531 27.4938C62.1043 27.5032 61.9671 27.5026 61.9669 27.4904C61.9648 27.4545 62.516 27.4404 63.3817 27.2402C63.8146 27.142 64.3222 26.9808 64.8702 26.7506C65.4154 26.5112 65.9996 26.2003 66.5794 25.8019C67.1561 25.3975 67.6691 24.9457 68.1119 24.5026C68.5503 24.0531 68.9178 23.6117 69.2056 23.2202C69.7831 22.4366 70.0744 21.8885 70.0994 21.908Z" fill="#1E397D"/>
<path d="M68.4912 19.3179C68.4903 19.2994 68.6794 19.2691 68.975 19.3565C69.2668 19.4454 69.6552 19.6782 69.9654 20.0883C70.0414 20.1919 70.1111 20.2979 70.1669 20.4123C70.2253 20.5277 70.2569 20.6559 70.2856 20.7584C70.347 20.9745 70.3989 21.1767 70.4219 21.3527C70.4707 21.7085 70.4019 21.9269 70.3864 21.9202C70.3619 21.9165 70.3901 21.7028 70.3183 21.3772C70.2839 21.2144 70.2245 21.0256 70.1557 20.8116C70.1198 20.6993 70.0925 20.5963 70.0403 20.4984C69.9895 20.3979 69.9241 20.2999 69.8538 20.2041C69.5646 19.8218 69.2117 19.588 68.9437 19.4743C68.6729 19.3626 68.4898 19.3474 68.4912 19.3179Z" fill="#1E397D"/>
<path d="M62.1295 30.5975C62.1051 30.5885 62.1783 30.3055 62.2288 29.8392C62.2798 29.3746 62.2916 28.7172 62.1395 28.0262C61.9858 27.3351 61.6828 26.7811 61.4107 26.4409C61.1384 26.0991 60.9244 25.9396 60.9402 25.912C60.9457 25.9019 61.0021 25.9346 61.1012 26.0039C61.2022 26.0691 61.335 26.1893 61.4862 26.3541C61.788 26.6834 62.1237 27.2595 62.2842 27.9818C62.4428 28.7034 62.4124 29.3871 62.3332 29.8584C62.254 30.3328 62.1442 30.6043 62.1295 30.5975Z" fill="#5D80D9"/>
<path d="M62.3094 29.9747C62.2954 29.9996 61.9993 29.7755 61.4925 29.4818C60.9867 29.1875 60.259 28.844 59.4186 28.6225C58.5774 28.4043 57.7944 28.3524 57.2298 28.3669C56.6645 28.38 56.3153 28.4355 56.3116 28.4059C56.3099 28.3942 56.3956 28.3696 56.5529 28.3352C56.7098 28.2986 56.9397 28.2657 57.2251 28.2434C57.7955 28.197 58.5946 28.2293 59.4511 28.452C60.3064 28.6774 61.0415 29.0458 61.541 29.3725C61.7912 29.535 61.9878 29.6794 62.1163 29.7907C62.2463 29.8997 62.3152 29.9646 62.3094 29.9747Z" fill="#1E397D"/>
<path d="M60.115 28.8522C60.1317 28.8572 60.0844 29.1809 59.9349 29.6812C59.7863 30.1808 59.5211 30.8509 59.1272 31.5177C58.7315 32.1836 58.2885 32.7091 57.9411 33.0465C57.5933 33.3853 57.3511 33.5501 57.3414 33.5336C57.3083 33.4893 58.2329 32.7353 59.0047 31.4178C59.7879 30.1104 60.068 28.8313 60.115 28.8522Z" fill="#1E397D"/>
<path d="M61.7024 34.341C61.7199 34.2868 61.8065 34.2558 61.9499 34.2996C62.0909 34.343 62.2908 34.4678 62.4549 34.7407C62.6208 35.0068 62.7144 35.4653 62.5764 35.9118C62.51 36.1342 62.3835 36.3603 62.1916 36.5255C62.0019 36.6887 61.7692 36.7774 61.5313 36.7842C61.295 36.7933 61.0528 36.7118 60.8646 36.5658C60.6758 36.4221 60.5372 36.2294 60.4456 36.0259C60.3544 35.8162 60.3082 35.6164 60.3085 35.3863C60.3128 35.1733 60.3576 35.0067 60.4127 34.8594C60.5242 34.5681 60.7016 34.3746 60.8545 34.3111C61.0074 34.2451 61.0992 34.2902 61.1104 34.3444C61.1279 34.4655 60.9469 34.628 60.9176 35.0421C60.909 35.1404 60.9085 35.2551 60.9271 35.3452C60.9423 35.4173 60.9842 35.5333 61.0393 35.6174C61.1558 35.8004 61.3201 35.9182 61.5133 35.9091C61.7153 35.8987 61.8544 35.794 61.9394 35.6073C62.0243 35.4176 62.034 35.2113 61.9879 35.0303C61.8937 34.6542 61.6602 34.455 61.7024 34.341Z" fill="#1E397D"/>
<path d="M64.1446 29.8697C64.1415 29.828 64.7239 29.8919 65.5961 29.5709C66.4629 29.2638 67.5894 28.4866 68.4616 27.2132C69.3333 25.9368 69.7969 24.5285 70.0701 23.5108C70.207 22.9987 70.3005 22.5775 70.3633 22.2858C70.4264 21.9942 70.4623 21.8327 70.473 21.835C70.4824 21.837 70.4657 22.0032 70.4201 22.3003C70.3745 22.5974 70.2962 23.0253 70.1711 23.5461C69.9221 24.5803 69.4682 26.0186 68.5778 27.3229C67.6855 28.6262 66.52 29.4067 65.6266 29.6894C65.1792 29.8368 64.8037 29.8882 64.5451 29.8926C64.4161 29.9023 64.3153 29.8882 64.2476 29.8862C64.1796 29.8815 64.1443 29.8757 64.1446 29.8697Z" fill="#1D191F"/>
<path d="M70.0953 44.5847C70.0971 44.5807 70.1493 44.6056 70.2397 44.6716C70.3298 44.7381 70.4548 44.856 70.5814 45.044C70.708 45.231 70.8288 45.4962 70.8979 45.8278C70.9688 46.1575 70.9768 46.5623 70.8718 46.9765C70.673 47.8115 70.0144 48.6304 69.1133 49.0365C68.6659 49.2471 68.1704 49.3753 67.6557 49.4533C67.1407 49.531 66.6009 49.5654 66.0495 49.5293C64.9474 49.4597 63.9034 49.0795 63.108 48.4413C62.3057 47.8149 61.7635 46.9667 61.496 46.1754C61.3609 45.7798 61.2932 45.3922 61.3021 45.05C61.3081 44.7072 61.3939 44.4189 61.4975 44.2134C61.6007 44.0051 61.721 43.8766 61.8074 43.8032C61.8948 43.7306 61.9479 43.7073 61.9497 43.7114C61.9637 43.7275 61.7373 43.8358 61.5483 44.2463C61.4564 44.4488 61.3835 44.7244 61.3856 45.051C61.3847 45.3774 61.4564 45.7475 61.5939 46.1283C61.8659 46.8907 62.4001 47.7045 63.1843 48.3068C63.9616 48.9194 64.9767 49.285 66.0578 49.3541C66.5984 49.3894 67.1292 49.3567 67.6368 49.2827C68.144 49.2084 68.6281 49.0859 69.0622 48.8861C69.9355 48.5011 70.5682 47.7284 70.7702 46.9401C70.9839 46.1461 70.7582 45.4474 70.5344 45.0843C70.3014 44.7082 70.083 44.6029 70.0953 44.5847Z" fill="#1D191F"/>
<path d="M63.7819 48.947C63.7429 48.947 63.7351 48.5567 63.9219 48.1425C64.1061 47.7263 64.3842 47.5117 64.4062 47.5494C64.4349 47.588 64.2217 47.8424 64.0542 48.2239C63.8826 48.6024 63.8255 48.9527 63.7819 48.947Z" fill="#1D191F"/>
<path d="M66.475 49.5445C66.4336 49.5425 66.4106 49.2269 66.4239 48.8389C66.4368 48.4511 66.4807 48.1385 66.522 48.1405C66.5633 48.1426 66.586 48.4581 66.5731 48.846C66.5602 49.2336 66.516 49.5462 66.475 49.5445Z" fill="#1D191F"/>
<path d="M69.1772 49.0758C69.1367 49.0855 69.0426 48.7437 68.9671 48.3124C68.8917 47.8811 68.863 47.5235 68.9035 47.5137C68.9439 47.5039 69.0378 47.8458 69.1135 48.2771C69.1893 48.7083 69.2176 49.066 69.1772 49.0758Z" fill="#1D191F"/>
<path d="M70.7557 47.0589C70.7178 47.0824 70.6048 46.9062 70.4192 46.7648C70.2358 46.6188 70.0539 46.565 70.0577 46.5149C70.0562 46.4681 70.2814 46.4459 70.5018 46.6188C70.7233 46.79 70.793 47.0421 70.7557 47.0589Z" fill="#1D191F"/>
<path d="M62.3554 45.8023C62.3617 45.8517 62.2033 45.9167 62.0506 46.062C61.8951 46.2037 61.8056 46.3699 61.7657 46.3514C61.727 46.3392 61.7674 46.1008 61.9576 45.9248C62.1467 45.7478 62.3542 45.7552 62.3554 45.8023Z" fill="#1D191F"/>
<path d="M67.0747 68.314C66.6501 68.2982 66.3701 67.7834 66.5425 67.3283C67.3163 65.2834 69.4301 61.3464 69.5701 61.0934C69.769 60.7345 69.8757 60.2957 70.5178 60.2049C70.7657 60.1699 74.64 60.066 75.5481 60.0421C75.6968 60.038 75.8445 60.0952 75.9519 60.216C76.1326 60.4192 76.3197 60.8024 76.0345 61.4033C75.7122 62.0819 73.3716 66.3391 72.4204 67.9823C72.2322 68.3076 71.9146 68.4963 71.5794 68.4835L67.0747 68.314Z" fill="#1D191F"/>
<path d="M73.0513 61.5114C72.994 61.3866 72.8069 61.3734 72.7421 61.4121C72.6327 61.4461 72.553 61.5269 72.4698 61.6166C72.3866 61.7065 72.3467 61.8667 72.4133 61.974C72.4698 62.0651 72.5788 62.0863 72.6747 62.0762C72.7952 62.0638 72.9168 62.011 72.9974 61.9053C73.0783 61.7997 73.1088 61.6358 73.0513 61.5114Z" fill="#FAFAFA"/>
<path d="M75.044 62.4376C75.0348 62.4318 75.089 62.2922 75.1946 62.0449C75.2526 61.912 75.3174 61.763 75.3903 61.5964C75.4296 61.508 75.4709 61.4151 75.5142 61.3176C75.5578 61.2143 75.6147 61.1214 75.6118 61.0181C75.6144 60.9142 75.5716 60.8028 75.4939 60.7356C75.4138 60.6608 75.3206 60.6625 75.1891 60.6736C74.9395 60.6854 74.6755 60.6982 74.3987 60.7117C73.8383 60.7349 73.2278 60.7604 72.587 60.7866C71.9461 60.8085 71.3352 60.829 70.7746 60.8482C70.7066 60.8506 70.6395 60.8526 70.5731 60.855C70.5187 60.861 70.4661 60.8856 70.4243 60.9246C70.3479 60.9963 70.2865 61.1577 70.2174 61.2708C70.0854 61.513 69.9611 61.7404 69.8458 61.9517C69.6277 62.3423 69.4447 62.6703 69.299 62.9311C69.167 63.1602 69.0898 63.284 69.0812 63.2776C69.0726 63.2712 69.1329 63.1353 69.2496 62.8951C69.3844 62.6263 69.5543 62.2885 69.756 61.8861C69.8664 61.6712 69.9856 61.44 70.1121 61.1941C70.1442 61.1318 70.1769 61.0686 70.2102 61.0047C70.2409 60.9458 70.2785 60.8617 70.3422 60.8045C70.4027 60.7463 70.4794 60.7083 70.5596 60.6979C70.6291 60.6941 70.6994 60.6908 70.7705 60.6867C71.3309 60.6635 71.9418 60.6379 72.5827 60.6113C73.2238 60.5895 73.8343 60.569 74.3947 60.5498C74.6715 60.5421 74.9358 60.535 75.1857 60.5279C75.2976 60.5185 75.4629 60.5192 75.5653 60.6285C75.6712 60.7265 75.7249 60.8799 75.7179 61.0222C75.7145 61.0931 75.699 61.1621 75.6709 61.2203C75.6462 61.2718 75.6219 61.3219 75.598 61.3711C75.5513 61.4663 75.5065 61.5567 75.4641 61.6432C75.3831 61.8047 75.3108 61.9487 75.2462 62.0775C75.1243 62.3148 75.0528 62.4433 75.044 62.4376Z" fill="#1E397D"/>
<path d="M81.5288 61.9256C81.5288 61.9256 81.1359 65.1301 80.7329 67.1884C80.3739 69.0224 79.8053 75.2178 78.3513 75.999C76.8979 76.7802 75.09 76.2927 74.4201 74.7831C73.7501 73.2735 73.0345 69.2498 73.0345 69.2498L69.9946 67.749C69.9946 67.749 69.2948 64.7601 69.6925 64.4233C70.0901 64.0865 74.0149 64.5915 74.0149 64.5915L75.068 64.3109C75.068 64.3109 73.3938 64.0303 73.0342 63.9179C72.6747 63.8056 72.4383 63.4692 72.5229 63.0762C72.6075 62.6832 72.6747 62.2903 73.584 62.2903C74.4932 62.2903 75.9127 62.1308 76.1685 62.2341C76.4884 62.3633 76.8509 62.581 76.9223 63.525C76.992 64.4485 76.613 66.2225 76.613 66.2225L76.6956 66.3713L77.2318 61.7352L81.5288 61.9256Z" fill="#CDD8F3"/>
<path d="M76.4212 67.4577C76.4241 67.4691 76.3366 67.5099 76.1748 67.5731C76.0138 67.6387 75.7756 67.715 75.4779 67.7931C74.8833 67.9486 74.0375 68.0767 73.1038 68.0064C72.1699 67.9334 71.3453 67.6713 70.7772 67.4116C70.4926 67.2821 70.2673 67.163 70.1175 67.0671C69.9667 66.9739 69.886 66.9173 69.8903 66.9066C69.9015 66.8791 70.2412 67.0687 70.8128 67.2952C71.3835 67.5219 72.196 67.7598 73.1136 67.8318C74.0309 67.9008 74.8635 67.7945 75.4574 67.6717C76.0523 67.5485 76.4144 67.4291 76.4212 67.4577Z" fill="#5D80D9"/>
<path d="M75.8451 66.1721C75.8471 66.1835 75.7595 66.2171 75.5983 66.2645C75.437 66.312 75.2018 66.3709 74.9082 66.4274C74.3226 66.5394 73.4951 66.6367 72.5856 66.5276C71.6755 66.4196 70.8793 66.0994 70.3525 65.7696C70.0876 65.6065 69.8851 65.4507 69.7525 65.332C69.6194 65.2139 69.5525 65.1392 69.5583 65.1304C69.5735 65.1052 69.867 65.3666 70.3993 65.6583C70.9283 65.9537 71.7094 66.2474 72.6011 66.3534C73.4928 66.4604 74.3088 66.3846 74.8936 66.3046C75.4795 66.2228 75.8404 66.1455 75.8451 66.1721Z" fill="#5D80D9"/>
<path d="M76.7927 62.8655C76.8105 62.8598 76.8653 63.022 76.8526 63.2968C76.8437 63.4324 76.826 63.5999 76.7393 63.7702C76.7 63.8554 76.6156 63.9347 76.5442 63.9785C76.4699 64.0289 76.3884 64.0699 76.3037 64.1033C75.9667 64.2294 75.651 64.2631 75.4281 64.2786C75.2063 64.293 75.0766 64.3331 75.0679 64.3112C75.0582 64.289 75.1888 64.2025 75.414 64.1558C75.6355 64.1093 75.9397 64.0555 76.2558 63.9374C76.4079 63.8721 76.5597 63.8008 76.6237 63.6821C76.6965 63.5562 76.7273 63.4048 76.7473 63.2823C76.7855 63.0321 76.7703 62.8699 76.7927 62.8655Z" fill="#5D80D9"/>
<path d="M75.3486 68.2546C75.3613 68.2442 75.4508 68.476 75.3516 68.8376C75.3013 69.0132 75.2035 69.2121 75.044 69.377C74.885 69.5432 74.6672 69.6616 74.4291 69.7094C74.1907 69.7568 73.9585 69.7353 73.7577 69.674C73.5569 69.6108 73.3921 69.5156 73.2579 69.4352C72.9916 69.2676 72.8284 69.172 72.8338 69.1505C72.8401 69.1256 73.0254 69.1845 73.3017 69.3228C73.575 69.4597 73.966 69.6303 74.4036 69.5371C74.6179 69.494 74.8115 69.3928 74.9548 69.2542C75.0991 69.1159 75.1955 68.9463 75.2526 68.7936C75.367 68.4821 75.3228 68.257 75.3486 68.2546Z" fill="#5D80D9"/>
<path d="M76.6134 62.5426C76.6159 62.5386 76.6343 62.551 76.669 62.58C76.7023 62.6099 76.7459 62.6644 76.7892 62.7455C76.8747 62.909 76.939 63.1808 76.9603 63.5223C77.0021 64.2079 76.904 65.1651 76.6828 66.2437L76.6808 66.1939C76.817 66.6249 77.0033 67.0751 77.2249 67.5222C77.5361 68.1496 77.8798 68.7158 78.2119 69.2114C78.5409 69.7033 78.8907 70.1245 79.0625 70.5804C79.242 71.0326 79.2258 71.4625 79.1457 71.7198C79.1064 71.8504 79.0571 71.9419 79.0186 71.9978C78.9793 72.0529 78.9546 72.0772 78.9508 72.0738C78.9384 72.0637 79.0317 71.9527 79.0902 71.7C79.1488 71.4524 79.1472 71.0504 78.9669 70.6338C78.7936 70.2103 78.4469 69.8082 78.104 69.312C77.7627 68.8171 77.4121 68.2475 77.0954 67.61C76.8704 67.1558 76.682 66.6955 76.5459 66.2511L76.5385 66.2269L76.5439 66.2013C76.7706 65.1415 76.8865 64.1948 76.8699 63.528C76.8616 63.195 76.8133 62.9335 76.7465 62.7724C76.6793 62.6115 76.6056 62.5537 76.6134 62.5426Z" fill="#5D80D9"/>
<path d="M49.7632 68.5285C49.7632 68.5285 49.3193 75.68 52.1552 76.879C56.0669 78.5331 60.5265 73.9629 60.5433 73.8895C60.5603 73.8162 65.2888 69.3507 65.2888 69.3507L63.8157 64.5976C63.8157 64.5976 63.2267 64.5976 62.2689 65.3973C61.9229 65.6863 56.4419 69.0748 56.4419 69.0748C56.4419 69.0748 54.05 69.0512 49.7632 68.5285Z" fill="#CDD8F3"/>
<path d="M56.6406 68.9683C56.6599 69.0222 55.6272 69.5134 54.3802 70.1688C53.7577 70.4998 53.2085 70.8322 52.8157 71.0849C52.4235 71.3378 52.1845 71.5044 52.1719 71.4825C52.1615 71.4643 52.3804 71.2608 52.762 70.9782C53.1436 70.6962 53.6913 70.3427 54.318 70.0096C54.9441 69.6749 55.5242 69.4124 55.946 69.2298C56.3683 69.0477 56.6329 68.9461 56.6406 68.9683Z" fill="#5D80D9"/>
<path d="M69.0593 62.0075C69.0593 62.0075 68.3193 60.7775 68.0255 60.7815C67.7314 60.7856 65.9694 61.124 65.9694 61.124L63.476 64.2952C63.476 64.2952 63.3045 65.3295 63.8436 65.7028C63.8436 65.7028 63.6623 67.3279 64.3288 67.7938C64.3288 67.7938 64.8234 69.3222 65.2891 69.3508C65.7545 69.3794 65.881 69.3508 65.881 69.3508C65.881 69.3508 65.7789 70.27 66.4893 70.3275C67.0069 70.3692 68.0525 70.1845 68.5818 70.0809C68.7881 70.0406 68.9709 69.9059 69.0919 69.7058L69.7022 68.6985C69.8968 68.3775 69.8956 67.9469 69.6996 67.6273C69.6996 67.6273 69.9923 67.2172 70.0658 66.8764C70.1392 66.5359 70.0658 65.9162 70.0658 65.9162C70.0658 65.9162 71.119 64.8709 71.1438 64.5973C71.1681 64.3238 71.1193 64.0628 70.6536 64.0927C70.6536 64.0927 70.5558 63.2469 69.9676 63.2685C69.3797 63.29 66.5952 63.2685 66.5952 63.2685L67.1242 62.6629C67.1242 62.6629 68.5107 63.2816 68.6567 62.8704L69.0593 62.0075Z" fill="#CDD8F3"/>
<path d="M65.0603 65.6666C65.0603 65.6538 65.2207 65.6475 65.5119 65.6293C65.8032 65.6115 66.2255 65.5815 66.7471 65.5092C67.2687 65.4376 67.8899 65.3191 68.5734 65.1291C68.9148 65.0328 69.2717 64.9184 69.6384 64.7825C69.993 64.6668 70.3021 64.3441 70.6022 64.0303L70.6205 64.0111L70.6406 64.0074C70.7617 63.9855 70.9029 63.9633 71.0464 64.0531C71.1172 64.0995 71.1686 64.187 71.1901 64.2714C71.213 64.3566 71.2165 64.4397 71.2176 64.5161C71.2159 64.5561 71.2222 64.5688 71.2142 64.6271C71.2059 64.6907 71.1867 64.7125 71.1717 64.7515C71.1381 64.8131 71.102 64.8676 71.0652 64.9198C70.9913 65.0234 70.9132 65.1173 70.8352 65.2097C70.6782 65.3938 70.5187 65.5657 70.3575 65.7319L70.3555 65.7339L70.3528 65.7363C69.75 66.2632 69.1937 66.789 68.6353 67.1688C68.079 67.557 67.5157 67.7525 67.0438 67.8333C66.569 67.913 66.1807 67.8689 65.9251 67.801C65.7965 67.7687 65.6995 67.733 65.6356 67.7037C65.5716 67.6752 65.5389 67.6577 65.5406 67.6527C65.5421 67.6139 66.0963 67.907 67.0292 67.7226C67.4885 67.6288 68.0322 67.4269 68.5702 67.0393C69.1134 66.6585 69.6603 66.1323 70.2656 65.598L70.261 65.6021C70.4183 65.4386 70.5767 65.2666 70.7295 65.0866C70.8056 64.9962 70.8816 64.9039 70.9505 64.8074C70.9847 64.7589 71.0165 64.7098 71.0438 64.6607C71.0521 64.6402 71.0682 64.6079 71.0659 64.6045C71.0716 64.5988 71.067 64.5443 71.0679 64.5188C71.0682 64.3755 71.0454 64.2513 70.97 64.2035C70.8928 64.1517 70.7741 64.1561 70.6661 64.1786L70.7046 64.1557C70.5497 64.3246 70.3918 64.4784 70.2252 64.6187C70.0628 64.7559 69.8734 64.8861 69.6809 64.942C69.3096 65.0762 68.9486 65.1879 68.6032 65.2801C67.9117 65.4625 67.2842 65.5687 66.7574 65.6253C66.2306 65.6828 65.8054 65.6949 65.5128 65.6929C65.3665 65.6932 65.2531 65.6875 65.1765 65.6824C65.1002 65.6774 65.0603 65.672 65.0603 65.6666Z" fill="#5D80D9"/>
<path d="M70.0654 65.916C70.0794 65.9146 70.111 66.1007 70.1253 66.4277C70.1288 66.5095 70.1305 66.6003 70.1282 66.6992C70.1271 66.7487 70.1251 66.8005 70.1205 66.8543C70.1185 66.9099 70.0967 66.9815 70.0774 67.0289C70.037 67.1363 69.9876 67.2409 69.9337 67.3506C69.9059 67.4051 69.8775 67.4606 69.8487 67.5168L69.8029 67.6019C69.7922 67.6201 69.7928 67.6224 69.7716 67.6547C69.7656 67.6624 69.7586 67.6692 69.7512 67.6749C69.7383 67.6735 69.7555 67.6991 69.6826 67.6682C69.6419 67.6298 69.6554 67.5807 69.6579 67.5743C69.6623 67.5612 69.6651 67.5568 69.6651 67.5568L69.668 67.5511L69.6801 67.5279L69.7966 67.6093C69.6284 67.9689 69.3831 68.3421 69.0654 68.6607C68.4822 69.2558 67.7795 69.4883 67.2865 69.5232C67.0378 69.5441 66.8361 69.5259 66.6993 69.5038C66.5623 69.4766 66.4881 69.4557 66.4898 69.4439C66.4926 69.4102 66.7962 69.4715 67.2762 69.4001C67.7514 69.3346 68.413 69.0947 68.9687 68.5278C69.2718 68.224 69.5096 67.8717 69.6789 67.5312L69.7954 67.6127C70.1394 66.7298 70.0215 65.9036 70.0654 65.916Z" fill="#5D80D9"/>
<path d="M67.1902 62.6914C67.1796 62.7291 66.8978 62.6063 66.7647 62.2157C66.7033 62.0246 66.7137 61.8355 66.7412 61.7134C66.7693 61.5896 66.8084 61.5236 66.8267 61.5304C66.8731 61.5425 66.8046 61.8412 66.9047 62.1545C67.0054 62.4673 67.2192 62.6473 67.1902 62.6914Z" fill="#5D80D9"/>
<path d="M65.9422 69.3824C65.9442 69.3918 65.8687 69.4302 65.722 69.4436C65.5772 69.4571 65.3563 69.4413 65.1133 69.3091C64.8713 69.1809 64.6165 68.9124 64.4797 68.5242C64.4086 68.3368 64.379 68.0985 64.3758 67.893C64.3675 67.79 64.3483 67.7255 64.2829 67.6662C64.2183 67.6081 64.121 67.5303 64.0556 67.4355C63.8717 67.1821 63.7977 66.8662 63.7785 66.5792C63.759 66.2899 63.7853 66.0231 63.806 65.7835L63.8379 65.8559C63.4425 65.5629 63.3444 65.0771 63.3555 64.7887C63.3673 64.4849 63.4614 64.3385 63.4677 64.3453C63.4855 64.3523 63.4201 64.5071 63.4313 64.7877C63.4408 65.0558 63.5561 65.4871 63.903 65.7247L63.938 65.7485L63.9351 65.797C63.9205 66.0373 63.9007 66.2969 63.9225 66.564C63.9432 66.8282 64.014 67.1078 64.1696 67.321C64.2284 67.4045 64.2929 67.4546 64.3784 67.532C64.4702 67.6071 64.5221 67.7668 64.5221 67.8782C64.5253 68.1036 64.5471 68.2836 64.608 68.4636C64.7247 68.8158 64.9448 69.0664 65.1611 69.198C65.607 69.4642 65.9456 69.3461 65.9422 69.3824Z" fill="#5D80D9"/>
<g opacity="0.3">
<path d="M58.3226 59.7662C57.9869 63.335 57.5132 66.0599 56.7982 68.5246C57.7921 67.5342 58.4744 66.1309 58.6643 64.6176C58.8543 63.1046 58.5527 61.2714 58.3226 59.7662Z" fill="#1D191F"/>
</g>
<g opacity="0.3">
<path d="M77.8667 57.8061C77.7788 56.5391 77.4637 55.3067 77.0646 54.1248C77.5138 56.641 77.5654 59.2538 77.2148 61.7914L77.3204 61.5176C77.8066 60.3811 77.9545 59.0731 77.8667 57.8061Z" fill="#1D191F"/>
</g>
</g>
<defs>
<clipPath id="clip0_511_74">
<rect width="125.59" height="141" fill="white"/>
</clipPath>
</defs>
</svg>
