<svg width="83" height="30" viewBox="0 0 83 30" fill="none" xmlns="http://www.w3.org/2000/svg">
<path fill-rule="evenodd" clip-rule="evenodd" d="M20.7532 1.7508C22.8097 1.7508 24.477 3.41757 24.477 5.47428C24.477 7.53125 22.8097 9.19802 20.7532 9.19802H3.72388C1.66717 9.19802 0 7.53125 0 5.47428C0 3.41757 1.66717 1.7508 3.72375 1.7508H20.7532ZM19.0415 11.5082C21.0984 11.5082 22.7655 13.1752 22.7655 15.2319C22.7655 17.2886 21.0984 18.9557 19.0415 18.9557H9.34906C8.52238 18.9586 7.84575 19.6126 7.8141 20.4309V25.2843C7.8141 27.3407 6.14693 29.0078 4.09076 29.0078C2.03405 29.0078 0.366877 27.3407 0.366877 25.2843V17.0247C0.366877 13.9781 2.83659 11.508 5.88331 11.508L19.0415 11.5082ZM26.168 4.68957C26.168 2.63313 27.8352 0.96582 29.8918 0.96582C31.9486 0.96582 33.6155 2.63313 33.6155 4.68957V25.3103C33.6155 27.367 31.9487 29.034 29.8918 29.034C27.8353 29.034 26.168 27.3669 26.168 25.3103V4.68957ZM71.9991 21.6482L73.4955 21.6445C73.8013 21.6442 74.0491 21.3963 74.0493 21.0905C74.0516 21.0178 74.0383 20.9454 74.0102 20.8783L68.4459 11.528L59.7532 26.5798C59.0817 27.7437 57.8759 28.4074 56.6245 28.4408C56.5872 28.4461 56.5496 28.4487 56.5119 28.4487H42.3652C39.3183 28.4487 36.8485 25.9788 36.8485 22.9322V4.68984C36.8485 2.63326 38.5158 0.965954 40.5722 0.965954C42.6285 0.965954 44.296 2.63326 44.296 4.6897V19.4659C44.2986 20.293 44.9525 20.97 45.7714 21.0008H53.685C53.8885 20.9382 54.511 20.7266 54.7006 20.432L64.6405 3.22528C65.3947 1.93021 66.7977 1.05834 68.4036 1.05834C70.0103 1.05834 71.4136 1.93155 72.1645 3.2293L81.8503 19.491C82.5975 20.4625 83.0018 21.6541 83 22.8797C83 25.9554 80.5067 28.4485 77.4315 28.4485H66.1414C64.2627 28.4485 62.7412 26.926 62.7412 25.0479C62.7412 23.1705 64.2629 21.6482 66.1414 21.6482H71.9991Z" fill="#1D191F"/>
</svg>
