<svg width="101" height="208" viewBox="0 0 101 208" fill="none" xmlns="http://www.w3.org/2000/svg">
<path fill-rule="evenodd" clip-rule="evenodd" d="M0 102.127V75.5322C0 55.3182 9.7876 35.7973 32.2074 22.8972V100.027C32.2074 102.538 34.2699 104.575 36.8111 104.575C39.3523 104.575 41.4148 102.538 41.4148 100.027V17.6354L72 0C72 4.28121 72 130.252 72 135.529C70.5237 135.529 35.0974 135.529 33.8101 135.529C15.1412 135.529 0 120.573 0 102.127Z" fill="#1D191F"/>
<path d="M14.88 196.929C10.8533 196.929 7.85333 195.929 5.88 193.929C3.93333 191.903 2.96 188.916 2.96 184.969V168.329H8.12V184.929C8.12 187.436 8.65333 189.329 9.72 190.609C10.8133 191.889 12.5333 192.529 14.88 192.529C17.12 192.529 18.8 191.889 19.92 190.609C21.0667 189.329 21.64 187.436 21.64 184.929V168.329H26.72V184.969C26.72 188.916 25.72 191.903 23.72 193.929C21.7467 195.929 18.8 196.929 14.88 196.929ZM32.3294 205.169V181.369C32.3294 180.543 32.3027 179.703 32.2494 178.849C32.196 177.996 32.116 177.156 32.0094 176.329H36.8494L37.2894 180.569H36.8494C37.2494 179.156 38.0894 178.036 39.3694 177.209C40.676 176.356 42.1827 175.929 43.8894 175.929C45.676 175.929 47.236 176.356 48.5694 177.209C49.9027 178.036 50.9427 179.236 51.6894 180.809C52.436 182.356 52.8094 184.223 52.8094 186.409C52.8094 188.596 52.436 190.476 51.6894 192.049C50.9427 193.623 49.9027 194.836 48.5694 195.689C47.236 196.516 45.676 196.929 43.8894 196.929C42.2094 196.929 40.7294 196.516 39.4494 195.689C38.1694 194.863 37.316 193.756 36.8894 192.369H37.3294V205.169H32.3294ZM42.4894 193.089C44.0894 193.089 45.3694 192.543 46.3294 191.449C47.2894 190.329 47.7694 188.649 47.7694 186.409C47.7694 184.169 47.2894 182.503 46.3294 181.409C45.3694 180.316 44.0894 179.769 42.4894 179.769C40.916 179.769 39.6494 180.316 38.6894 181.409C37.7294 182.503 37.2494 184.169 37.2494 186.409C37.2494 188.649 37.7294 190.329 38.6894 191.449C39.6494 192.543 40.916 193.089 42.4894 193.089ZM64.9341 196.929C63.1741 196.929 61.6274 196.516 60.2941 195.689C58.9607 194.836 57.9207 193.623 57.1741 192.049C56.4274 190.476 56.0541 188.596 56.0541 186.409C56.0541 184.223 56.4274 182.356 57.1741 180.809C57.9207 179.236 58.9607 178.036 60.2941 177.209C61.6274 176.356 63.1741 175.929 64.9341 175.929C66.6407 175.929 68.1341 176.356 69.4141 177.209C70.7207 178.036 71.5874 179.156 72.0141 180.569H71.5741L72.0141 176.329H76.8141C76.7341 177.156 76.6541 177.996 76.5741 178.849C76.5207 179.703 76.4941 180.543 76.4941 181.369V196.529H71.5341L71.4941 192.369H71.9741C71.5474 193.756 70.6807 194.863 69.3741 195.689C68.0674 196.516 66.5874 196.929 64.9341 196.929ZM66.3341 193.089C67.9074 193.089 69.1741 192.543 70.1341 191.449C71.0941 190.329 71.5741 188.649 71.5741 186.409C71.5741 184.169 71.0941 182.503 70.1341 181.409C69.1741 180.316 67.9074 179.769 66.3341 179.769C64.7607 179.769 63.4941 180.316 62.5341 181.409C61.5741 182.503 61.0941 184.169 61.0941 186.409C61.0941 188.649 61.5607 190.329 62.4941 191.449C63.4541 192.543 64.7341 193.089 66.3341 193.089ZM81.3434 205.609L80.1834 201.649C81.4368 201.383 82.4901 201.076 83.3434 200.729C84.1968 200.383 84.9034 199.929 85.4634 199.369C86.0234 198.809 86.4901 198.089 86.8634 197.209L87.8634 194.849L87.7434 196.809L78.9434 176.329H84.2634L90.5834 192.089H89.4234L95.7834 176.329H100.823L91.6234 197.649C91.0101 199.089 90.3434 200.276 89.6234 201.209C88.9034 202.169 88.1301 202.929 87.3034 203.489C86.4768 204.076 85.5701 204.529 84.5834 204.849C83.5968 205.169 82.5168 205.423 81.3434 205.609Z" fill="black"/>
</svg>
