<svg width="51" height="46" viewBox="0 0 51 46" fill="none" xmlns="http://www.w3.org/2000/svg">
<path fill-rule="evenodd" clip-rule="evenodd" d="M15.6868 38.2734H14.6195L13.9625 43.8574H13.7161L12.8949 38.2734H11.2524L10.5132 43.8574H10.349L9.52803 38.2734H8.46069L9.4462 45.4996H11.2527L12.0736 39.8332H12.1557L12.8949 45.4996H14.7835L15.6868 38.2734ZM17.3291 45.5H18.4789V42.7902H20.7784V45.5H21.9278V38.3557H20.7781V41.0655H18.4786V38.3557H17.3288V45.5H17.3291V45.5ZM28.0042 41.6407C28.0042 39.5054 27.019 38.1914 25.2123 38.1914C23.2412 38.1914 22.4203 39.5054 22.4203 41.6407C22.4203 43.6114 23.0773 45.5003 25.2123 45.5003C27.2651 45.5003 28.0042 43.6114 28.0042 41.6407ZM28.497 45.5H31.7817V43.8575H29.6464V38.2736H28.497V45.5ZM39.6646 38.3557H37.5299L35.9695 45.5H37.2011L37.4475 44.186H39.7467L39.9931 45.5H41.1431L39.6646 38.3557V38.3557ZM38.2688 39.916H38.9261L39.5009 43.0362H37.6121L38.2688 39.916V39.916ZM5.01178 45.4996H7.968V43.8571H5.58665V42.4612H7.968V41.4757H5.58665V39.9159H7.968V38.2734H4.4369V44.021L2.46618 38.2734H0.659424V45.4996H1.80918L1.72706 39.8332L3.77989 45.4996H5.01178V45.4996ZM32.2745 45.5H35.5586V43.8575H33.4239V38.2736H32.2745V45.5ZM45.5771 44.021L43.5245 38.2734H41.7178V45.4996H42.8678L42.7854 39.8332L44.8385 45.4996H47.466C49.8476 45.4996 50.3404 44.2674 50.3404 41.5576C50.2579 39.3411 49.6012 38.2734 47.466 38.2734H45.4952V41.5576L45.5771 44.021V44.021ZM46.7271 41.8047V39.834H47.5483C48.7799 39.834 49.3545 40.2449 49.3545 41.8871V41.8047C49.3545 43.4472 48.7796 43.94 47.5483 43.8578H46.7271V41.8047V41.8047ZM26.9366 41.6407C26.9366 42.7084 26.8547 43.94 25.2122 43.94C23.57 43.94 23.4058 42.7084 23.4058 41.6407C23.4058 40.6552 23.8985 39.834 25.2122 39.834C26.5262 39.834 26.9366 40.6552 26.9366 41.6407ZM9.93871 15.0347C9.93871 14.542 10.2672 14.2135 10.5136 14.4598C13.4698 17.4161 24.3913 25.4638 24.3092 32.5254C24.2271 32.9357 23.8986 33.1821 23.4879 33.1821C15.3584 32.6075 8.70683 29.4052 9.93871 15.0347V15.0347ZM35.2304 2.47101C32.9312 1.23913 30.5498 0.664549 27.6757 0.5C27.1009 0.5 26.8545 0.910627 26.7726 1.40338C26.5263 5.09873 26.6081 7.15157 26.5263 10.7645C26.4438 11.3394 26.8548 12.0785 27.5118 11.2572C30.5495 8.30103 32.2745 6.65882 35.3122 3.7026C35.8053 3.29227 35.6413 2.63526 35.2304 2.47101ZM15.5226 2.47101C17.904 1.23913 20.2853 0.664549 23.1594 0.5C23.7343 0.5 23.9807 0.910627 24.0628 1.40338C24.3092 5.09873 24.2271 7.15157 24.3092 10.7645C24.3913 11.3394 23.9807 12.0785 23.2415 11.2572C20.2035 8.30103 18.4789 6.65882 15.5229 3.7026C14.9478 3.29227 15.1941 2.63526 15.5226 2.47101V2.47101ZM37.1193 4.77052C31.3708 10.272 26.2799 13.9671 26.5263 23.8216C26.5263 24.2319 26.8548 24.6428 27.4294 24.1501C32.192 19.4692 34.9019 16.9236 39.7467 12.2431C40.4858 11.5039 40.6504 10.8469 40.404 9.69716C39.9112 7.64432 39.5009 6.74094 38.2687 5.09873C37.9405 4.77052 37.612 4.60598 37.1193 4.77052V4.77052ZM13.7162 4.77052C19.4641 10.272 24.5556 13.9674 24.3092 23.8216C24.3092 24.2319 23.9807 24.6428 23.4058 24.1501C18.6428 19.4689 15.9333 16.9236 11.0885 12.2431C10.3493 11.5039 10.1851 10.8469 10.4315 9.69716C10.9242 7.64432 11.3348 6.74094 12.5664 5.09873C12.8949 4.77052 13.2234 4.60598 13.7162 4.77052ZM40.9786 15.0347C40.9786 14.542 40.7322 14.2135 40.4037 14.4598C37.5299 17.4161 26.526 25.4638 26.6081 32.5254C26.6899 32.9357 27.1009 33.1821 27.5118 33.1821C35.5589 32.6075 42.2102 29.4052 40.9786 15.0347V15.0347Z" fill="#1D191F"/>
</svg>
