<svg width="83" height="42" viewBox="0 0 83 42" fill="none" xmlns="http://www.w3.org/2000/svg">
<path fill-rule="evenodd" clip-rule="evenodd" d="M44.7331 0.509401C45.0056 0.465568 45.4598 1.46923 45.7308 1.38057C46.0177 1.28195 46.4187 0.437675 46.8097 0.487982C46.977 0.509899 47.6415 1.84032 47.6415 1.84032C52.9941 2.10431 59.6018 8.59153 60.4531 9.24802C60.8625 9.56481 62.5959 11.358 65.7638 12.7472C67.0663 13.319 68.3748 13.5645 69.5877 13.4744C71.2065 13.3578 73.0171 11.9362 74.1303 10.0001C75.527 7.5784 76.1197 3.35951 80.1498 0.968148C80.7142 0.633427 81.9923 -0.114715 82.7315 0.828183C83.3262 1.59177 82.8341 2.85195 82.2159 3.45515C81.8239 3.83619 81.1146 4.22172 79.7643 4.85779C79.307 5.07546 78.5609 5.63382 78.27 5.86145C76.823 6.96275 75.775 9.46519 74.6095 12.2052C74.6095 12.2052 74.1119 13.5516 71.9217 14.9995C71.5517 15.2386 71.8844 15.4429 72.2878 15.9584C72.8034 16.6413 73.8384 19.4221 73.7039 23.654C73.6825 24.4051 73.9864 24.7314 74.3286 25.3465C74.9203 26.4075 76.0923 26.1704 76.0624 27.5626C76.0226 29.4314 77.4038 29.8294 76.9605 30.6921C76.6367 31.3207 76.7493 31.9309 76.7503 32.5445C76.7503 32.8538 76.9177 33.3061 76.2771 33.2732C73.6506 33.1148 73.826 29.5923 73.8753 28.3799C73.9171 28.2195 73.7966 27.9326 73.7762 27.9187C73.6457 27.8246 72.0104 26.5524 71.9013 26.4443C69.9149 24.4245 68.6054 22.608 67.8737 20.7421C67.3886 19.4979 66.8895 18.271 66.0367 17.4826C65.0814 16.6114 63.9118 16.1213 62.8843 16.1148C55.5782 16.0774 54.0744 12.8722 52.087 11.2748C52.0267 11.2309 51.8454 11.1283 51.7403 11.1194C51.6288 11.1278 51.5426 11.2593 51.4699 11.3206C50.7033 12.125 49.9293 12.3875 48.8902 12.3875C46.4217 12.3875 43.7658 10.2238 43.2981 10.7059C42.941 11.082 43.2513 11.8561 42.5948 11.9856C41.6449 12.1758 40.6627 11.2384 40.7404 10.4444C40.8843 9.02238 42.3383 8.60597 43.6144 8.46053C44.6708 8.34895 45.5326 8.63785 45.7303 8.66026C46.3186 8.74295 46.4217 8.03067 46.3255 7.57043C46.2155 7.07233 45.7507 6.96823 45.2651 6.82378C44.6743 6.64695 44.0168 7.13808 43.576 6.98815C43.0575 6.80236 43.0167 6.53837 42.5903 6.15683C42.0434 5.68164 41.4128 5.55363 41.4148 4.88369C41.4148 4.26306 42.1684 4.21275 42.3831 3.64393C42.4927 3.35901 42.4618 3.06215 42.5589 2.88931C42.8139 2.42508 43.2916 2.447 43.6766 2.07193C44.2001 1.54993 44.4617 0.550245 44.7331 0.509401ZM21.1661 39.2215C21.6722 39.2091 22.1011 38.7956 22.1006 38.2846L22.1051 21.5859H27.604V39.9926C27.604 40.8946 26.8818 41.6308 25.9793 41.6308H16.36C15.4624 41.6308 14.7317 40.8951 14.7317 39.9926V21.5859H20.2352L20.2342 38.2846C20.2342 38.7956 20.6621 39.2091 21.1661 39.2215ZM31.2631 21.5859H47.9229C48.3987 21.5867 48.8546 21.7765 49.1904 22.1136C49.5261 22.4506 49.7141 22.9073 49.7131 23.383V41.6308H44.2036V24.8928C44.1996 24.3797 43.7793 23.9733 43.2707 23.9733C42.7572 23.9733 42.3457 24.3697 42.3378 24.8783V41.6313H36.8527V24.8788C36.8408 24.3702 36.4283 23.9738 35.9143 23.9738C35.6689 23.972 35.4328 24.068 35.2582 24.2405C35.0835 24.413 34.9847 24.6478 34.9834 24.8932V41.6308H29.4744V23.383C29.4729 22.9074 29.6607 22.4507 29.9962 22.1136C30.3317 21.7765 30.7875 21.5867 31.2631 21.5859ZM11.0607 36.5941H5.50099V41.6308H0V21.5859H11.0956C12.0888 21.5859 12.8644 22.3933 12.8644 23.391V34.7865C12.8658 35.2656 12.6764 35.7256 12.3379 36.0648C11.9995 36.404 11.5399 36.5944 11.0607 36.5941ZM7.36736 24.9276C7.37081 24.6775 7.27459 24.4363 7.09993 24.2573C6.92527 24.0782 6.68653 23.976 6.43641 23.9733H5.50099V34.112H6.43641C6.92106 34.112 7.37184 33.7265 7.36736 33.1701V24.9276ZM58.9483 41.6308V36.598H57.077V41.6308H51.58V23.383C51.58 22.3868 52.3819 21.5859 53.3691 21.5859H62.6566C63.1326 21.5863 63.5888 21.776 63.9247 22.1131C64.2606 22.4502 64.4486 22.9071 64.4473 23.383L64.4473 41.6308H58.9483ZM58.9483 34.116V24.8858C58.9349 24.3757 58.5229 23.9832 58.0099 23.9832C57.5005 23.9823 57.0849 24.3909 57.077 24.9002V34.116H58.9483Z" fill="#1D191F"/>
</svg>
