<svg width="62" height="46" viewBox="0 0 62 46" fill="none" xmlns="http://www.w3.org/2000/svg">
<path fill-rule="evenodd" clip-rule="evenodd" d="M60.9704 18.5856C60.4115 15.3773 56.2717 15.0666 53.5805 15.5632C50.889 16.0597 47.5777 17.4878 44.2038 19.0613C42.9092 19.665 41.4106 20.4606 39.9661 21.2542C38.8351 21.0547 37.7348 20.9035 36.792 20.9035C34.5361 20.9035 32.632 21.7111 31.6174 22.1248C30.6034 22.5389 30.2923 22.8904 30.3755 23.0981C30.4583 23.3051 31.0376 23.2011 31.9897 22.8698C32.9421 22.5389 33.7497 22.1864 35.9019 21.9592C36.6353 21.8815 37.5049 21.9459 38.4658 22.0865C36.7462 23.0475 35.2514 23.8989 34.4954 24.2568C32.9226 25.0019 30.73 26.3269 26.7551 26.4717C22.7803 26.6164 21.601 24.8985 20.2971 23.2425C18.993 21.5862 17.7305 18.3584 16.4677 16.019C15.205 13.6799 12.4111 12.2313 12.4111 12.2313C15.5369 11.5069 18.3099 9.49906 18.6412 6.415C18.9724 3.33059 16.9859 0.992218 13.2807 0.577793C9.57547 0.16371 6.38806 1.46824 4.27658 2.93772C2.16509 4.40721 0.881779 7.057 1.29586 8.73352C1.7096 10.4104 2.93064 10.7002 3.86249 10.4309C4.79435 10.1616 5.18722 9.12673 5.06299 8.73352C4.93877 8.34031 4.46274 7.802 4.02813 7.96764C3.59317 8.13327 3.38647 8.02992 3.38647 8.02992C2.31019 6.89136 3.13802 4.55231 5.45654 3.22758C7.54475 2.03427 9.3828 1.86966 11.4207 2.16534C10.6396 2.54007 9.89024 2.97785 9.18021 3.47432C7.54475 4.61288 6.48936 6.84824 6.22003 9.66367C5.9507 12.4791 6.05405 13.7829 5.86789 17.5504C5.68206 21.3179 5.49556 23.6768 4.81249 24.4844C4.12942 25.2917 2.78417 25.9327 2.12163 26.3471C1.4591 26.7615 1.56279 27.4025 2.53572 27.2167C3.5083 27.0309 4.64754 26.3478 5.72347 25.83C6.79975 25.3126 7.8969 25.0227 9.69799 25.0019C11.4991 24.9806 11.4365 25.0429 11.5401 24.7117C11.6438 24.3804 11.4159 24.3181 10.8157 23.8212C10.2154 23.3243 10.0087 23.0344 10.0501 21.7925C10.0792 20.913 10.0669 16.1894 10.0573 12.8764C11.3868 13.2207 11.8728 14.9814 12.2639 16.4105C12.6777 17.9217 13.2783 20.3645 14.2512 22.1443C16.0057 25.3557 17.8109 27.6506 21.3919 28.7683C24.9729 29.8863 28.0778 28.7683 31.1205 27.6096C33.9075 26.548 37.5429 24.2202 40.3935 22.4359C41.799 22.7312 43.339 23.1101 44.9693 23.4691C48.6328 24.2757 51.8209 24.4629 54.0768 24.2346C56.3323 24.0081 61.5292 21.7939 60.9704 18.5856ZM10.0526 11.355C10.0509 10.7 10.0498 10.1781 10.0498 9.87151C10.0498 8.09129 10.029 4.84125 11.2503 3.68216C12.0785 2.89575 12.4714 2.63634 12.9402 2.50391C14.5038 3.07986 14.7735 4.2588 14.9162 5.67079C15.0818 7.30624 14.3159 8.77607 12.9084 10.0594C11.9255 10.9553 10.7024 11.2551 10.0526 11.355ZM51.9666 22.746C49.3586 22.9742 46.9148 22.4972 44.5556 22.1248C43.7041 21.99 42.749 21.7936 41.7716 21.5975C44.776 19.8902 49.477 18.1893 52.0289 17.8608C54.7612 17.5093 55.9412 18.3368 55.8997 19.7858C55.8587 21.2347 54.5747 22.518 51.9666 22.746ZM24.5074 11.3474C24.7261 11.4446 24.6231 11.7286 24.6231 12.2262V18.5439C24.6231 18.8919 24.7562 19.0907 25.0215 18.9251C25.2863 18.7595 25.8503 18.3118 26.0159 18.3779C26.1819 18.4439 26.5635 18.6106 26.0495 19.4395C25.5355 20.2683 24.5903 21.3963 23.8607 21.4791C23.1311 21.5619 22.0702 21.4791 21.6226 20.9315C21.1746 20.384 20.9922 19.936 20.9922 19.3395V13.901C20.9922 13.453 20.8929 13.437 20.6274 13.437C20.3618 13.437 19.9145 13.4198 19.8646 13.155C19.8146 12.8898 19.9139 12.7734 20.3618 12.6078C20.8098 12.4418 23.3302 11.6461 23.7614 11.5134C24.1923 11.3806 24.3582 11.2813 24.5074 11.3474ZM22.3518 9.44054C22.6338 8.66097 22.7002 8.06414 22.6502 7.68291C22.6006 7.30168 22.2858 7.13571 22.3019 6.9865C22.3183 6.83695 22.8823 6.65489 23.529 6.43929C24.1758 6.2237 24.7891 5.94171 25.2039 5.84247C25.6183 5.74288 25.8671 6.24047 25.3199 7.69968C24.7727 9.15856 23.7282 10.1205 23.1646 10.4521C22.601 10.7837 22.2235 10.922 22.0534 10.6677C21.9535 10.5185 22.0698 10.2201 22.3518 9.44054ZM32.5328 18.3115C31.8196 19.1079 31.0236 19.92 29.7804 19.6547C28.5367 19.3895 27.9067 18.3779 27.9067 17.2667V12.1102C27.9067 11.5935 27.9505 11.5353 27.7075 11.4508C27.1302 11.4932 26.7524 11.4415 26.7788 11.2482C26.8455 10.7502 27.276 10.7834 27.8068 10.3194C28.3376 9.85534 29.1336 9.00938 29.7472 8.06417C30.3604 7.11931 30.6092 5.8425 30.7919 5.31172C30.9743 4.78128 31.1068 4.54891 31.3888 4.6485C31.6708 4.74843 31.6208 4.93049 31.6208 5.47769V9.10759C31.6783 9.19999 31.7526 9.25475 31.8535 9.24174C32.2344 9.19178 32.6002 9.02614 32.7987 9.04257C32.9972 9.059 33.0639 9.34099 33.0639 9.58978C33.0639 9.81598 33.0184 10.0699 31.6208 10.561V16.4711C31.6208 16.9358 31.4384 17.2839 31.9028 17.0847C32.3672 16.8855 32.7991 16.4714 33.0971 16.5874C33.3952 16.7031 33.246 17.5152 32.5328 18.3115ZM39.7683 16.2301C39.0552 17.0268 38.2592 17.8389 37.0152 17.5737C35.7719 17.3078 35.1416 16.2962 35.1416 15.1853V10.0292C35.1416 9.51206 35.1857 9.45389 34.9424 9.36936C34.3654 9.41179 33.9879 9.35978 34.014 9.16677C34.0807 8.66952 34.5112 8.70203 35.042 8.23799C35.5728 7.77394 36.3688 6.92798 36.9824 5.98312C37.596 5.03791 37.8441 3.76144 38.0271 3.23066C38.2095 2.70022 38.342 2.46786 38.624 2.56744C38.906 2.66737 38.856 2.84943 38.856 3.39698V7.02654C38.9135 7.11894 38.9877 7.17403 39.0887 7.16069C39.4696 7.11072 39.8354 6.94543 40.0339 6.96186C40.2324 6.97863 40.2991 7.25993 40.2991 7.50872C40.2991 7.73459 40.2529 7.98885 38.856 8.48028V14.3904C38.856 14.8551 38.6736 15.2031 39.138 15.0043C39.6024 14.8048 40.0342 14.3911 40.3316 14.5067C40.6301 14.6221 40.4808 15.4341 39.7683 16.2301ZM49.1772 5.21073C48.4247 4.51021 47.0237 3.74125 45.1267 4.74942C43.2291 5.7576 42.0327 7.02243 41.1269 9.77386C40.2214 12.5256 42.9903 14.8158 43.6395 15.1234C44.289 15.4311 45.2972 16.0121 46.8351 14.9698C48.3737 13.927 48.938 12.8504 49.1084 12.4575C49.2795 12.0643 49.0917 11.5003 48.5102 11.8936C47.9295 12.2868 47.126 13.2611 45.8954 12.885C44.9738 12.6033 44.5987 11.9863 44.3609 11.4357C45.1723 10.9121 47.6995 9.28038 48.6133 8.68082C49.7066 7.96319 49.8096 7.9803 49.9801 7.50154C50.1512 7.02209 49.9291 5.91125 49.1772 5.21073ZM46.6988 8.47541C46.0746 9.16395 45.278 9.76284 43.9584 10.3976C43.7523 9.72896 43.649 8.7355 44.4087 7.3988C45.3998 5.65554 46.4254 5.12545 46.8525 5.75821C47.2796 6.39097 47.3651 7.74033 46.6988 8.47541ZM51.5012 5.00575C51.2846 4.8976 51.1597 4.9373 50.8863 4.98863C50.6121 5.03997 50.4243 4.83464 50.5783 4.62965C50.7326 4.42466 51.2452 4.04856 51.7233 3.62113C52.2017 3.19405 52.6805 2.80084 53.2274 2.85217C53.7749 2.9035 54.4587 2.95484 55.0907 4.06567C55.0907 4.06567 56.013 2.78373 56.5948 2.45896C56.5948 2.45896 57.449 3.33059 57.9958 3.60436C58.5434 3.87745 58.8675 4.06567 59.3808 3.65535C59.8934 3.24504 59.9957 3.17693 60.1494 3.31348C60.3031 3.45037 60.1152 4.15089 59.312 4.92019C58.5085 5.68915 57.6375 6.3729 56.8682 6.1508C56.0989 5.92871 55.2098 5.27918 55.2098 5.27918V10.2523C55.2098 10.6626 55.3303 10.6797 55.7232 10.4918C56.116 10.3036 56.526 9.92786 56.7484 10.1328C56.9702 10.3382 56.9363 10.9364 56.0305 11.859C55.1246 12.7816 54.9877 13.1067 53.5011 13.1067C52.0139 13.1067 51.5354 11.4829 51.5354 11.0387V5.43318C51.5354 5.09096 51.6385 5.07419 51.5012 5.00575ZM9.12751 34.264L10.5655 31.413C10.5655 31.413 8.64806 30.2275 6.25151 30.2275C3.85496 30.2275 2.26536 31.338 1.58401 33.3814C0.902997 35.4248 1.81124 37.6191 2.8201 38.0989C3.8293 38.5783 5.64579 39.2083 6.45308 39.5618C7.26037 39.9154 7.68951 41.1268 7.03348 41.7322C6.37745 42.3372 4.8888 42.8673 2.49225 40.7983L0.927979 43.6989C0.927979 43.6989 3.02201 45.3891 5.57016 45.3891C8.11831 45.3891 10.2623 44.2793 10.9686 41.9331C11.6753 39.5868 10.8177 37.3159 8.62274 36.5592C6.4281 35.8026 4.96443 35.727 5.14136 34.2886C5.31794 32.851 7.86575 33.0282 9.12751 34.264ZM22.5236 33.066C21.7412 30.9969 19.1681 30.6191 18.5124 30.6191H12.1797V44.9995H15.8633V40.282H18.4368C19.37 40.282 20.3542 40.206 21.7669 39.0459C23.1796 37.8851 23.3059 35.135 22.5236 33.066ZM17.5536 37.3038H15.8634V33.5449H17.1248C18.26 33.5449 19.0926 33.9987 19.0926 35.4877C19.0926 36.9757 18.2603 37.3038 17.5536 37.3038ZM31.4541 30.118C27.1028 30.118 23.5752 33.5614 23.5752 37.809C23.5752 42.0566 27.1028 45.5 31.4541 45.5C35.8054 45.5 39.333 42.0566 39.333 37.809C39.333 33.5614 35.8054 30.118 31.4541 30.118ZM31.4541 41.9276C29.2167 41.9276 27.4036 40.0834 27.4036 37.809C27.4036 35.5346 29.2167 33.6904 31.4541 33.6904C33.6912 33.6904 35.5046 35.5346 35.5046 37.809C35.5046 40.0834 33.6912 41.9276 31.4541 41.9276ZM43.9813 39.6012L47.4028 44.9867H52.0046L47.6047 39.1762C47.6047 39.1762 48.2204 39.1762 49.3826 38.4582C50.5444 37.7402 51.1939 35.3139 50.4759 33.2969C49.758 31.2802 47.4675 30.6306 46.1688 30.6306H40.2214V44.9867H43.981V39.6012H43.9813ZM46.0326 33.6726C46.6476 33.8779 47.0236 34.9371 46.8868 35.8604C46.7506 36.7834 45.3146 37.1937 44.8362 37.1937H43.9813V33.5019C44.7551 33.4977 45.4669 33.4844 46.0326 33.6726ZM61.072 30.6306H51.2278V33.6726H54.304V44.9867H57.9955V33.6726H61.072V30.6306Z" fill="#1D191F"/>
</svg>
