<svg width="68" height="46" viewBox="0 0 68 46" fill="none" xmlns="http://www.w3.org/2000/svg">
<path fill-rule="evenodd" clip-rule="evenodd" d="M19.3662 29.7874H22.1139L19.3662 25.2079L17.0457 21.3514L7.18503 27.2738L8.69104 29.7874H19.3662ZM44.929 29.7874H58.3519L49.9965 15.8663L40.7569 0.5L36.9507 2.78975L30.906 6.42247L36.9507 16.487L44.929 29.7874ZM40.2382 34.3773C39.2914 33.7671 38.182 33.4107 36.9811 33.4107H36.9507C33.6336 33.4309 30.9368 36.1379 30.9368 39.4553C30.9368 42.7732 33.6336 45.4798 36.9507 45.5004H36.9811C38.182 45.5004 39.2914 45.1443 40.2382 44.5337V45.1645H43.016V29.7881H40.2382V34.3773ZM40.2381 40.0862C39.9432 41.6128 38.5893 42.7826 36.981 42.7826H36.9507C35.1291 42.7624 33.6538 41.2766 33.6538 39.455C33.6538 37.6337 35.1291 36.148 36.9507 36.1375H36.981C38.5893 36.1375 39.9428 37.2979 40.2381 38.8242V40.0862ZM53.284 34.377C52.3156 33.745 51.184 33.4091 50.0276 33.4103H49.9965C46.6794 33.4306 43.9829 36.1375 43.9829 39.455C43.9829 42.7728 46.6794 45.4794 49.9965 45.5H50.0276C51.2285 45.5 52.3477 45.1439 53.284 44.5333V45.1642H56.0625V33.7154H53.284V34.377ZM53.284 40.0862C52.989 41.6128 51.6352 42.7826 50.0276 42.7826H49.9965C48.1756 42.7624 46.7 41.2766 46.7 39.455C46.7 37.6337 48.1756 36.148 49.9965 36.1375H50.0276C51.6352 36.1375 52.9886 37.2979 53.284 38.8242V40.0862ZM65.9433 38.7023C65.8418 38.6509 65.699 38.6003 65.5359 38.5392C64.9152 38.3256 63.9077 38.061 62.5033 37.7559C61.272 37.4808 60.6513 37.1251 60.6513 36.6772C60.6513 36.3616 60.763 36.1071 60.9767 35.9241C61.2619 35.6798 61.7702 35.5576 62.5033 35.5576C63.2462 35.5576 63.7855 35.7206 64.1011 36.0359C64.2945 36.2293 64.4366 36.5748 64.5284 37.0636H67.4797C67.4797 35.6187 66.8894 34.5808 65.7293 33.95C65.6682 33.9101 65.6035 33.8761 65.5359 33.8484C64.7316 33.4717 63.6634 33.2783 62.3305 33.2783C60.7121 33.2783 59.4913 33.706 58.6775 34.5707C58.0265 35.2626 57.7109 36.1071 57.7109 37.1044C57.7109 38.3466 58.3211 39.2416 59.5628 39.8218C60.031 40.0456 61.1704 40.3612 62.9823 40.748C64.1933 41.0126 64.8032 41.3893 64.8032 41.8676C64.8032 42.1528 64.6817 42.3968 64.4171 42.6206C64.0809 42.9055 63.5719 43.0482 62.8905 43.0482C61.9845 43.0482 61.3436 42.8957 60.9673 42.6007C60.5902 42.3158 60.3968 41.8987 60.3968 41.3694H57.3035C57.3035 42.7739 57.8938 43.8219 59.0842 44.5134C60.031 45.0528 61.2724 45.3279 62.8095 45.3279C63.8369 45.3279 64.7526 45.1547 65.5363 44.8192C65.6993 44.748 65.8421 44.6764 65.9947 44.5951C67.2057 43.9238 67.8163 42.8552 67.8163 41.39C67.8159 40.188 67.1945 39.2923 65.9433 38.7023ZM9.4849 34.377C8.51216 33.7463 7.37769 33.4105 6.21837 33.4103H6.18765C2.88064 33.4306 0.183838 36.1375 0.183838 39.455C0.183838 42.7728 2.88064 45.4794 6.18765 45.5H6.21837C7.41928 45.5 8.53849 45.1439 9.4849 44.5333V45.1642H12.263V33.7154H9.4849V34.377ZM9.4849 40.0862C9.18991 41.6128 7.83609 42.7826 6.21837 42.7826H6.18765C4.37653 42.7624 2.90088 41.2766 2.90088 39.455C2.90088 37.6337 4.37653 36.148 6.18765 36.1375H6.21837C7.83645 36.1375 9.18991 37.2979 9.4849 38.8242V40.0862ZM26.8254 32.5048H29.8479V29.8485H26.8254V32.5048ZM26.8254 45.1638H29.8479V33.4103H26.8254V45.1638ZM22.6633 34.3773C21.6905 33.7466 20.5559 33.4109 19.3965 33.4107H19.3661C16.0486 33.4309 13.3518 36.1379 13.3518 39.4553C13.3518 42.7732 16.0482 45.4798 19.3661 45.5004H19.3965C20.5559 45.5003 21.6906 45.1646 22.6633 44.5337V45.1645H25.4415V29.7881H22.6633V34.3773ZM22.6634 40.0862C22.3684 41.6128 21.0146 42.7826 19.3965 42.7826H19.3662C17.5446 42.7624 16.0689 41.2766 16.0689 39.455C16.0689 37.6337 17.5446 36.148 19.3662 36.1375H19.3965C21.0146 36.1375 22.3681 37.2979 22.6634 38.8242V40.0862ZM40.2274 29.7876L36.9507 24.3131L28.9016 10.9209L19.3662 16.6604L19.0405 16.8535L19.3662 17.3928L26.815 29.7876H40.2274Z" fill="#1D191F"/>
</svg>
