<svg width="83" height="44" viewBox="0 0 83 44" fill="none" xmlns="http://www.w3.org/2000/svg">
<path d="M19.6341 22.8578H25.3625L33.8033 0.352539H28.4833L24.6928 10.446L25.3461 0.352539H19.686L11.2457 22.8578H16.5652L20.2852 12.901L19.6341 22.8578Z" fill="#1D191F"/>
<path d="M34.4934 0.352539L26.0536 22.8578H31.3731L39.8129 0.352539H34.4934Z" fill="#1D191F"/>
<path fill-rule="evenodd" clip-rule="evenodd" d="M10.6322 15.1006C3.1988 23.8301 -3.81328 35.4453 2.38045 40.7941C8.3294 45.9319 15.7522 42.9617 20.8635 40.9165L20.9989 40.8624C26.1139 38.8163 82.6501 14.2649 82.6501 14.2649C83.1956 13.9921 83.0936 13.651 82.4114 13.8214C82.2955 13.8503 71.3412 16.8177 58.7063 20.241L59.3336 18.4933H53.1278L55.1668 13.0376H60.2814L61.8551 8.84341H56.7406L58.4939 4.10364H63.8808L65.3104 0.352539H49.0791L43.5059 7.10425L46.079 0.352539H40.6912L32.3187 22.8578H37.6382L41.2128 13.4466L41.4576 22.8578L49.1099 22.8412C34.6096 26.7702 20.8627 30.4957 20.8627 30.4957C13.0873 32.6784 4.22162 27.9214 10.6322 15.1006ZM46.735 21.3573L46.3939 9.62761L54.4368 0.796976L46.735 21.3573Z" fill="#1D191F"/>
</svg>
