<svg width="37" height="36" viewBox="0 0 37 36" fill="none" xmlns="http://www.w3.org/2000/svg">
<g clip-path="url(#clip0_84_2537)">
<path d="M14.6678 36C14.5277 36 14.3859 35.972 14.2505 35.9136C13.7765 35.7092 13.5202 35.1918 13.6446 34.6909L17.2112 20.3346H7.60159C7.25375 20.3346 6.92828 20.1632 6.73161 19.8762C6.53495 19.5893 6.49241 19.2239 6.61792 18.8994L13.6676 0.674224C13.8247 0.26789 14.2155 0 14.6512 0H24.3515C24.7079 0 25.0402 0.179999 25.235 0.478545C25.4296 0.777091 25.4604 1.15375 25.3167 1.47993L21.1423 10.9552H29.3984C29.7841 10.9552 30.139 11.1658 30.324 11.5043C30.5089 11.8428 30.4943 12.2553 30.2858 12.5798L15.5557 35.5151C15.3565 35.8253 15.0177 36 14.6678 36ZM9.14037 18.2253H18.5599C18.8844 18.2253 19.1908 18.3748 19.3907 18.6303C19.5906 18.8859 19.6617 19.2194 19.5834 19.5344L17.2312 29.0029L27.4675 13.0645H19.5251C19.1687 13.0645 18.8364 12.8845 18.6417 12.586C18.447 12.2874 18.4162 11.9107 18.56 11.5846L22.7344 2.10937H15.374L9.14037 18.2253Z" fill="#040505"/>
</g>
<defs>
<clipPath id="clip0_84_2537">
<rect width="36" height="36" fill="white" transform="translate(0.5)"/>
</clipPath>
</defs>
</svg>
